G04 PCB Fabrication Data in Gerber – Example 1, created by Karel Tavernier, Filip Vermeire and Thomas Weyn*
G04 Ucamco copyright*
%TF.GenerationSoftware,Ucamco,UcamX,1.1.0-140320*%
%TF.CreationDate,2014-06-18T00:00:00+01:00*%
%FSLAX36Y36*%
%MOMM*%
%TF.FileFunction,Soldermask,Top*%
%TF.FilePolarity,Negative*%
%TF.Part,Single*%
%TF.SameCoordinates,f8d53b1f8c81977d8c3d0dffcc4c4bd6e6770c0f*%
%ADD10C,0.85000*%
%ADD11C,1.70000*%
%ADD12C,1.80000*%
%ADD13R,1.70000X1.70000*%
%ADD14R,1.80000X1.80000*%
%ADD15R,0.40000X1.70000*%
%ADD16R,0.45000X2.60000*%
%ADD17R,1.20000X1.70000*%
%ADD18R,1.10000X1.30000*%
%ADD19R,1.40000X2.60000*%
%ADD20R,1.70000X1.20000*%
%ADD21R,1.70000X2.60000*%
%ADD22R,2.05000X0.65000*%
%ADD23R,2.10000X0.70000*%
%ADD24R,2.20000X1.50000*%
%ADD25R,2.10000X1.60000*%
%ADD26R,2.30000X2.50000*%
%ADD27R,2.60000X0.45000*%
%ADD28R,2.80000X0.75000*%
%ADD29R,3.10000X4.80000*%
G01*
D10*
%LPD*%
X76649990Y36899980D03*
X83599990Y18749980D03*
X98829980Y36504980D03*
X90349990Y14500000D03*
X92999970Y7950000D03*
X92349980Y12999980D03*
X97649970D03*
X89649990Y23799980D03*
X94949980D03*
X77549980Y35150000D03*
X98829980Y33964980D03*
X72099990Y19349970D03*
X74849990Y39434970D03*
X77549980Y32949970D03*
X98858170Y30154980D03*
X78449990Y34299980D03*
X98829980Y31424980D03*
X78549980Y35999980D03*
X98829980Y35234980D03*
X50099980Y10449990D03*
X56749970Y30299990D03*
X77597380Y38834970D03*
X98829980Y37774980D03*
X50099980Y95699990D03*
X56949970Y34850000D03*
X47049990Y37799980D03*
Y48349990D03*
X33699990Y2600000D03*
Y8399990D03*
X49199980Y2600000D03*
X53284990Y33534990D03*
X52849990Y35150000D03*
X61449990Y40049990D03*
X54100000Y9199980D03*
X65299970Y25249990D03*
X24749990Y18899990D03*
X25399970Y48061370D03*
Y68859990D03*
Y89179980D03*
Y109499990D03*
X31049980Y23818190D03*
X31449980Y18899990D03*
X44999980Y62549990D03*
Y67619980D03*
X54100000Y12999980D03*
X57332480Y27962890D03*
X70949970Y40635000D03*
X73449970Y5999990D03*
X78408980Y42634990D03*
X86268180Y41253080D03*
X74849990Y7299980D03*
X75649990Y41349980D03*
X49749990Y61299980D03*
X52500000Y98099980D03*
X65350490Y22465590D03*
X69199990Y29649980D03*
X78449990Y32049970D03*
X98858170Y28884980D03*
X3049980Y14900000D03*
Y38109980D03*
Y58429980D03*
Y78749980D03*
Y99099980D03*
X28973880Y95599990D03*
X36349990Y3549980D03*
Y7749970D03*
X54100000Y11749990D03*
X56189980Y57459980D03*
Y72699980D03*
X62649990Y29249980D03*
X72649970Y55799990D03*
X88574980Y57459980D03*
X89244990Y72699980D03*
X39649990Y68899990D03*
X43499990Y59750000D03*
X85849970Y52199970D03*
X94924980Y56189980D03*
X32399990Y39724990D03*
X34099990Y64999970D03*
X50899980Y65099970D03*
X52049990Y113349990D03*
X76449990Y67349980D03*
X78599970Y71399990D03*
X45849970Y63799970D03*
Y69549970D03*
X28527380Y81442590D03*
X32149970Y63799970D03*
X33049970Y62549990D03*
X34799980Y100099980D03*
X37849990Y65099970D03*
X42462100Y32274990D03*
X76462070Y37962180D03*
X83261380Y46646980D03*
X39900000Y3599990D03*
Y20650000D03*
X45576980Y51459790D03*
X76299970Y24749990D03*
X77549980Y3649980D03*
X102549980D03*
X107140580Y17890590D03*
X14324480Y38924990D03*
Y59244990D03*
Y79564970D03*
X15815690Y99205090D03*
X36837080Y13940480D03*
X44985490Y54908190D03*
X56851200Y99823370D03*
X64634980Y52427480D03*
X1800000Y36509980D03*
Y56829990D03*
Y77149990D03*
Y97499990D03*
X11449990Y3884780D03*
X25949980Y9599980D03*
X47699980Y92349980D03*
X25349980Y20199980D03*
X25999980Y49749990D03*
Y69659980D03*
Y89979980D03*
Y96049970D03*
Y110299980D03*
X34049990Y20199980D03*
X34699980Y8350000D03*
X19149970Y38939980D03*
Y51147470D03*
Y71432980D03*
Y91653080D03*
Y96049970D03*
X20906180Y109550070D03*
X33149970Y97549970D03*
X18499990Y38139980D03*
Y58459980D03*
Y78779980D03*
Y99099980D03*
X29149980Y21599980D03*
X29449980Y27399990D03*
X17899990Y37339980D03*
Y57659980D03*
Y77979980D03*
Y98299980D03*
X17249980Y36539990D03*
Y56859980D03*
Y77179990D03*
Y97499990D03*
X16649980Y35739990D03*
Y56059990D03*
Y76379990D03*
Y96699990D03*
X28518390Y57715170D03*
X28767990Y76364980D03*
X28980480Y98346180D03*
X29758690Y35724980D03*
X29798700Y23758090D03*
X32049970Y15274190D03*
Y23799980D03*
X36949990Y34049990D03*
X37917380Y61269980D03*
X30411500Y18177280D03*
X31486680Y30869790D03*
X36249990Y33149970D03*
X37884180Y62539980D03*
X39736300Y63809980D03*
X55057880Y35950100D03*
X2449980Y23599980D03*
Y37309990D03*
Y57629990D03*
Y77949990D03*
Y98299980D03*
X25149990Y8899980D03*
X62908180Y52113580D03*
X63349990Y47499980D03*
X8750000Y27249990D03*
Y37324990D03*
Y54483180D03*
Y57591000D03*
Y77964970D03*
Y98284970D03*
X14149990Y109319080D03*
X24449990Y8150000D03*
X38599980Y112649990D03*
X9350000Y28099990D03*
Y50159990D03*
Y70479970D03*
Y90799970D03*
X14800000Y111099980D03*
X25849980Y27549990D03*
X25949980Y14549990D03*
X37699980Y113249990D03*
X10050000Y28849980D03*
Y50909980D03*
Y71229980D03*
Y91549980D03*
X15500000Y111899980D03*
X27000000Y15300000D03*
Y24099970D03*
X36699980Y113899980D03*
X10699980Y29849980D03*
Y51709980D03*
Y72029980D03*
Y92349980D03*
X16200000Y112699980D03*
X27699990Y16049980D03*
X28049980Y27399990D03*
X30830880Y44581090D03*
X35699980Y114499980D03*
X27849980Y55413790D03*
Y72059980D03*
Y88499970D03*
Y92379980D03*
X27852770Y115967960D03*
X28549980Y16699990D03*
Y24049990D03*
X31649970Y43665880D03*
X26576580Y17372180D03*
X27199990Y51749980D03*
Y71299780D03*
Y87299980D03*
Y91579980D03*
Y111899980D03*
X32999980Y16350690D03*
X33549990Y27249990D03*
X26549990Y19499990D03*
X26599970Y50749980D03*
Y70459980D03*
Y90779980D03*
Y111099980D03*
X34049990Y23799980D03*
X34999980Y19499990D03*
X12399980Y9699980D03*
X19749980Y40539980D03*
Y60859980D03*
Y81179980D03*
Y101499970D03*
X26099970Y2449980D03*
X28349980Y12749980D03*
X76949990Y51449990D03*
X94289980Y58729980D03*
Y73969980D03*
Y87939980D03*
Y103179980D03*
Y113449990D03*
X14700000Y8250000D03*
X20399980Y41339980D03*
Y61659980D03*
Y81979980D03*
Y102299970D03*
X27249990Y3049980D03*
X29149980Y12099980D03*
X76349990Y47549990D03*
X93649980Y114299980D03*
X93654980Y59999980D03*
Y75239980D03*
Y89209980D03*
Y104449980D03*
X6899980Y14099970D03*
Y46909990D03*
Y67229990D03*
Y87549990D03*
X8450000Y108649980D03*
X15649980Y107049980D03*
X60634980Y61269980D03*
Y76509980D03*
Y90479980D03*
Y105719980D03*
X69199990Y47549990D03*
X6299990Y15049990D03*
Y46109990D03*
Y66429990D03*
Y86749990D03*
X7299980Y108549980D03*
X16300000Y106249980D03*
X59999980Y62539980D03*
Y77779980D03*
Y91749980D03*
Y106989980D03*
X68549970Y51449990D03*
X5699990Y16000000D03*
Y42059990D03*
Y62379990D03*
Y82699990D03*
Y102499970D03*
X16899990Y103899970D03*
X59364980Y63809980D03*
Y79049980D03*
Y93019980D03*
Y108259980D03*
X67899990Y47549990D03*
X5099990Y16949980D03*
Y41259990D03*
Y61579990D03*
Y81899990D03*
Y101699980D03*
X17499990Y103099970D03*
X58729980Y65079980D03*
Y80319980D03*
Y94289980D03*
Y109529980D03*
X67249980Y51449990D03*
X4449980Y17949980D03*
Y40409980D03*
Y60729980D03*
Y81049980D03*
Y100899980D03*
X18149970Y102299970D03*
X58094980Y66349980D03*
Y81589980D03*
Y95559980D03*
Y110799980D03*
X66599970Y47549990D03*
X3699990Y18849970D03*
Y39659990D03*
Y59979990D03*
Y80299970D03*
Y100049990D03*
X18143980Y101299970D03*
X57459980Y67619980D03*
Y82859980D03*
Y96829980D03*
Y112069980D03*
X65949980Y51449990D03*
X15700000Y10249990D03*
X21050000Y42139970D03*
Y62459970D03*
Y82779970D03*
Y103099970D03*
X28500000Y3349980D03*
X29849980Y11349990D03*
X75699980Y51449990D03*
X93019980Y61269980D03*
Y76509980D03*
Y90479980D03*
Y105719980D03*
Y115099980D03*
X16699990Y8250000D03*
X21699980Y42940000D03*
Y63259970D03*
Y83579970D03*
Y103899970D03*
X29799990Y3649980D03*
X30599990Y10649990D03*
X30799990Y113549990D03*
X75049990Y47549990D03*
X92384980Y62539980D03*
Y77779980D03*
Y91749980D03*
Y106989980D03*
Y118249980D03*
X18199990Y10249990D03*
X20149970Y45339990D03*
Y65659990D03*
Y85979990D03*
Y106299990D03*
X31049980Y3949980D03*
X31349970Y9950000D03*
X74399980Y51449990D03*
X91749980Y63809980D03*
Y79049980D03*
Y93019980D03*
Y108259980D03*
Y115749990D03*
X19199980Y8250000D03*
X20750000Y46139990D03*
Y66459990D03*
Y86779990D03*
Y107099990D03*
X32049970Y9199980D03*
X32549970Y110249970D03*
X32699980Y3849980D03*
X73749970Y47549990D03*
X91114980Y65079980D03*
Y80319980D03*
Y94289980D03*
Y109529980D03*
Y116649990D03*
X20199980Y10249990D03*
X21350000Y46939990D03*
Y67259990D03*
Y87579990D03*
Y107899990D03*
X32699980Y4849980D03*
Y8399990D03*
X33549990Y110849970D03*
X73099980Y51449990D03*
X90479980Y66349980D03*
Y81589980D03*
Y95559980D03*
Y110799980D03*
Y117549980D03*
X21199980Y8250000D03*
X22050000Y47739990D03*
Y68059990D03*
Y88379980D03*
Y108699990D03*
X34549990Y111449970D03*
X72449970Y47549990D03*
X89844980Y67619980D03*
Y82859980D03*
Y96829980D03*
Y112069980D03*
Y118349980D03*
X8150000Y12049990D03*
Y48509980D03*
Y68829990D03*
Y89149990D03*
X10799980Y108699990D03*
X16799990Y110099990D03*
X61904980Y58729980D03*
Y73969980D03*
Y87939980D03*
Y103179980D03*
X70799980Y51449990D03*
X7499990Y47709990D03*
Y68029990D03*
Y88349990D03*
X7549970Y13099970D03*
X9699980Y108649980D03*
X16799990Y109099990D03*
X61269980Y59999980D03*
Y75239980D03*
Y89209980D03*
Y104449980D03*
X70499990Y47549990D03*
X7699980Y42989990D03*
Y63309990D03*
Y83629980D03*
Y103949990D03*
X12699980Y5099990D03*
X14400000Y28899990D03*
X22199980Y5099990D03*
X28370000Y28899990D03*
X28500000Y45289980D03*
Y65609980D03*
Y85929980D03*
Y106249980D03*
X30549980Y8250000D03*
X33149970Y46449990D03*
X34449990Y54899990D03*
Y58099990D03*
Y66349980D03*
X34499980Y73349970D03*
X37849990Y70149980D03*
X39049990Y17299990D03*
X40500000Y23149990D03*
X45899990Y58099990D03*
X48649990Y56549970D03*
X49249990Y68899990D03*
X50699980Y15549980D03*
X51744980Y59872980D03*
Y75112980D03*
Y90352980D03*
Y105592980D03*
X54049980Y40199990D03*
X55935980Y25798990D03*
X57099990Y32249980D03*
Y45899990D03*
X60499980Y8550000D03*
X62199970Y7299980D03*
X63999970Y25299980D03*
X65299970Y47449990D03*
X66222980Y67619980D03*
Y82859980D03*
Y98099980D03*
Y113339980D03*
X67499970Y13649990D03*
X70629990Y87939980D03*
Y103179980D03*
X71949970Y22250000D03*
Y54549980D03*
X72099990Y20650000D03*
X76999970Y29549980D03*
X77649990Y47549990D03*
X79299970Y43299990D03*
X79684980Y101909980D03*
X79811980Y71429980D03*
Y86669980D03*
X80738980Y56189980D03*
X83299980Y33549990D03*
X85899980Y16849980D03*
Y20650000D03*
X86249970Y36599980D03*
X89649990Y10449990D03*
X98607980Y67619980D03*
Y82859980D03*
Y98099980D03*
Y113339980D03*
X101049990Y10449990D03*
Y21250000D03*
X103349990Y109549970D03*
X103949990Y112699980D03*
X107599990Y10599980D03*
X53200000Y1549990D03*
X62539980Y86669980D03*
Y101909980D03*
X64649990Y24199980D03*
X74649990Y99249970D03*
X78795980Y101909980D03*
X94924980Y86669980D03*
Y101909980D03*
X15253790Y39724990D03*
Y60044990D03*
Y80364990D03*
X17052190Y100136990D03*
X17309390Y34934980D03*
X42349980Y26399970D03*
X44299990Y16799990D03*
X46350000Y3249980D03*
X83199990Y43949980D03*
X94749970Y41600000D03*
X58729980Y25798990D03*
X60984970Y31584970D03*
X67121890Y37656290D03*
X59992290Y26077400D03*
X60245780Y20332780D03*
X65934970Y29502690D03*
X52349990Y2249980D03*
X52849990Y26349980D03*
X54100000Y21899980D03*
X79299970Y44599990D03*
X94749970Y42849980D03*
X7699980Y45289980D03*
Y65609980D03*
Y85929980D03*
Y106249980D03*
X17699990Y5099990D03*
X19239990Y28870000D03*
X28500000Y42989990D03*
Y63309990D03*
Y83629980D03*
Y103949990D03*
X29649980Y58099990D03*
Y73349970D03*
X30899990Y46449990D03*
X33209990Y28870000D03*
X33954600Y53671680D03*
X34399980Y67599970D03*
X39099980Y12599980D03*
X40249980Y65099970D03*
Y67599970D03*
X40500000Y19349970D03*
X41100000Y58099990D03*
X41249980Y46949990D03*
X43649980Y63799970D03*
Y68899990D03*
X47650000Y26399970D03*
Y28899990D03*
X48099980Y31399990D03*
Y33949990D03*
Y36499980D03*
Y39049990D03*
X50699980Y20650000D03*
X51744980Y55046980D03*
Y70286980D03*
Y85526980D03*
Y100766980D03*
X54049980Y37899980D03*
X58729980Y21048980D03*
X61523980D03*
X62699970Y10499980D03*
Y13649990D03*
X69649980Y22250000D03*
Y54500000D03*
X70673880Y72699980D03*
X70682890Y57459980D03*
X72549970Y10449990D03*
X73749970Y29549980D03*
X75999970Y10499980D03*
X78949980Y29549980D03*
X83249970Y29649980D03*
X85899980Y10449990D03*
X86249970Y38899980D03*
X88324970Y101909980D03*
X88336580Y86669980D03*
X88360990Y71399990D03*
X88476180Y56189980D03*
X88479980Y28884980D03*
Y41584980D03*
X108749980Y112699980D03*
X109349970Y109549970D03*
X42349980Y28899990D03*
X45299990Y18099990D03*
X47350000Y4649980D03*
X101749990D03*
D11*
X46029980Y80954980D03*
Y83494980D03*
Y86034980D03*
Y88574980D03*
Y91114980D03*
Y93654980D03*
Y96194980D03*
Y98734980D03*
Y101274980D03*
Y103814980D03*
Y106354980D03*
Y108894980D03*
Y111434980D03*
X30789980D03*
Y108894980D03*
Y106354980D03*
Y103814980D03*
Y101274980D03*
Y98734980D03*
Y96194980D03*
Y93654980D03*
Y91114980D03*
Y88574980D03*
Y86034980D03*
Y83494980D03*
Y80954980D03*
Y78414980D03*
X54919980Y49839980D03*
X84764980Y25074980D03*
D12*
X112379990Y23169980D03*
Y25709980D03*
Y28249980D03*
Y30789980D03*
Y33329980D03*
Y35869980D03*
Y38409980D03*
Y40949980D03*
Y43489980D03*
Y46029980D03*
Y48569980D03*
Y51109980D03*
Y53649980D03*
Y56189980D03*
Y58729980D03*
Y61269980D03*
Y63809980D03*
Y66349980D03*
Y68889980D03*
Y71429980D03*
Y73969980D03*
Y76509980D03*
Y79049980D03*
Y81589980D03*
Y84129980D03*
Y86669980D03*
Y89209980D03*
Y91749980D03*
Y94289980D03*
Y96829980D03*
Y99369980D03*
X109839990Y23169980D03*
Y25709980D03*
Y28249980D03*
Y30789980D03*
Y33329980D03*
Y35869980D03*
Y38409980D03*
Y40949980D03*
Y43489980D03*
Y46029980D03*
Y48569980D03*
Y51109980D03*
Y53649980D03*
Y56189980D03*
Y58729980D03*
Y61269980D03*
Y63809980D03*
Y66349980D03*
Y68889980D03*
Y71429980D03*
Y73969980D03*
Y76509980D03*
Y79049980D03*
Y81589980D03*
Y84129980D03*
Y86669980D03*
Y89209980D03*
Y91749980D03*
Y94289980D03*
Y96829980D03*
Y99369980D03*
X107299990Y23169980D03*
Y25709980D03*
Y28249980D03*
Y30789980D03*
Y33329980D03*
Y35869980D03*
Y38409980D03*
Y40949980D03*
Y43489980D03*
Y46029980D03*
Y48569980D03*
Y51109980D03*
Y53649980D03*
Y56189980D03*
Y58729980D03*
Y61269980D03*
Y63809980D03*
Y66349980D03*
Y68889980D03*
Y71429980D03*
Y73969980D03*
Y76509980D03*
Y79049980D03*
Y81589980D03*
Y84129980D03*
Y86669980D03*
Y89209980D03*
Y91749980D03*
Y94289980D03*
Y96829980D03*
Y99369980D03*
D13*
X46029880Y78414880D03*
D14*
X107299760Y20629880D03*
X109839760D03*
X112379760D03*
D15*
X23205000Y25785000D03*
X22705000D03*
X22205000D03*
X21705000D03*
X21205000D03*
X20705000D03*
X20205000D03*
X19705000D03*
X19205000D03*
X18705000D03*
X18205000D03*
X17705000D03*
X17205000D03*
X16705000D03*
X16205000D03*
X15705000D03*
X15205000D03*
X14705000D03*
X14205000D03*
X13705000D03*
X13205000D03*
X12705000D03*
X12205000D03*
X11705000D03*
Y6584990D03*
X12205000D03*
X12705000D03*
X13205000D03*
X13705000D03*
X14205000D03*
X14705000D03*
X15205000D03*
X15705000D03*
X16205000D03*
X16705000D03*
X17205000D03*
X17705000D03*
X18205000D03*
X18705000D03*
X19205000D03*
X19705000D03*
X20205000D03*
X20705000D03*
X21205000D03*
X21705000D03*
X22205000D03*
X22705000D03*
X23205000D03*
X35540000Y25785000D03*
X35040000D03*
X34540000D03*
X34040000D03*
X33540000D03*
X33040000D03*
X32540000D03*
X32040000D03*
X31540000D03*
X31040000D03*
X30540000D03*
X30040000D03*
X29540000D03*
X29040000D03*
X28540000D03*
X28040000D03*
X27540000D03*
X27040000D03*
X26540000D03*
X26040000D03*
Y6584990D03*
X26540000D03*
X27040000D03*
X27540000D03*
X28040000D03*
X28540000D03*
X29040000D03*
X29540000D03*
X30040000D03*
X30540000D03*
X31040000D03*
X31540000D03*
X32040000D03*
X32540000D03*
X33040000D03*
X33540000D03*
X34040000D03*
X34540000D03*
X35040000D03*
X35540000D03*
D16*
X78935000Y49510000D03*
X78285000D03*
X77635000D03*
X76985000D03*
X76335000D03*
X75685000D03*
X75035000D03*
X74385000D03*
X73735000D03*
X73085000D03*
X72435000D03*
X71785000D03*
X71135000D03*
X70485000D03*
X69835000D03*
X69185000D03*
X68535000D03*
X67885000D03*
X67235000D03*
X66585000D03*
X65935000D03*
X65285000D03*
X64635000D03*
X63985000D03*
X63335000D03*
X62685000D03*
X62035000D03*
X61385000D03*
Y27310000D03*
X62035000D03*
X62685000D03*
X63335000D03*
X63985000D03*
X64635000D03*
X65285000D03*
X65935000D03*
X66585000D03*
X67235000D03*
X67885000D03*
X68535000D03*
X69185000D03*
X69835000D03*
X70485000D03*
X71135000D03*
X71785000D03*
X72435000D03*
X73085000D03*
X73735000D03*
X74385000D03*
X75035000D03*
X75685000D03*
X76335000D03*
X76985000D03*
X77635000D03*
X78285000D03*
X78935000D03*
D17*
X107504230Y112704880D03*
X105205530D03*
X67105530Y103179880D03*
X69404230D03*
X81964530Y101909880D03*
X84263230D03*
X67105530Y87939880D03*
X69404230D03*
X81964530Y86669880D03*
X84263230D03*
X30910530Y73334880D03*
X33209230D03*
X67105530Y72699880D03*
X69404230D03*
X81964530Y71429880D03*
X84263230D03*
X30910530Y58094880D03*
X33209230D03*
X42340530D03*
X44639230D03*
X67105530Y57459880D03*
X69404230D03*
X81964530Y56189880D03*
X84263230D03*
X69645530Y53014880D03*
X71944230D03*
X30910530Y47934880D03*
X33209230D03*
X49325530Y39044880D03*
X51624230D03*
X49325530Y36504880D03*
X51624230D03*
X49325530Y33964880D03*
X51624230D03*
X49325530Y31424880D03*
X51624230D03*
X15670530Y28884880D03*
X17969230D03*
X29640530D03*
X31939230D03*
X43610530D03*
X45909230D03*
X49325530D03*
X51624230D03*
X43610530Y26344880D03*
X45909230D03*
X49325530D03*
X51624230D03*
X69645530Y23804880D03*
X71944230D03*
X82345530Y20629880D03*
X84644230D03*
X82345530Y16819880D03*
X84644230D03*
X63930530Y13644880D03*
X66229230D03*
X69010530D03*
X71309230D03*
X82345530D03*
X84644230D03*
X63930530Y10469880D03*
X66229230D03*
X69010530D03*
X71309230D03*
X77265530D03*
X79564230D03*
X82345530D03*
X84644230D03*
X55675530Y8564880D03*
X57974230D03*
X69010530Y7294880D03*
X71309230D03*
X82345530D03*
X84644230D03*
D18*
X102585520Y9199880D03*
X105084880D03*
X107584240D03*
D19*
X108005880Y109529880D03*
X104706420D03*
D20*
X9199880Y106234230D03*
X26979880D03*
X51744880Y104329230D03*
X9199880Y103935530D03*
X26979880D03*
X51744880Y102030530D03*
Y89089230D03*
Y86790530D03*
X9199880Y85914230D03*
X26979880D03*
X9199880Y83615530D03*
X26979880D03*
X51744880Y73849230D03*
Y71550530D03*
X9199880Y65594230D03*
X26979880D03*
X9199880Y63295530D03*
X26979880D03*
X51744880Y58609230D03*
Y56310530D03*
X9199880Y45274230D03*
X26979880D03*
X9199880Y42975530D03*
X26979880D03*
X55554880Y40194230D03*
X84764880Y38924230D03*
X55554880Y37895530D03*
X84764880Y36625530D03*
X55935880Y24573230D03*
X58729880D03*
X61523880D03*
X55935880Y22274530D03*
X58729880D03*
X61523880D03*
X39044880Y16064230D03*
Y13765530D03*
D21*
X63680340Y7294880D03*
X66479420D03*
X77015340D03*
X79814420D03*
D22*
X23715000Y96685000D03*
Y97485000D03*
Y98285000D03*
Y99085000D03*
Y99885000D03*
Y100685000D03*
Y101485000D03*
Y102285000D03*
Y103085000D03*
Y103885000D03*
Y104685000D03*
Y105485000D03*
Y106285000D03*
Y107085000D03*
Y107885000D03*
Y108685000D03*
Y109485000D03*
Y110285000D03*
Y111085000D03*
Y111885000D03*
Y112685000D03*
Y113485000D03*
X12465000D03*
Y112685000D03*
Y111885000D03*
Y111085000D03*
Y110285000D03*
Y109485000D03*
Y108685000D03*
Y107885000D03*
Y107085000D03*
Y106285000D03*
Y105485000D03*
Y104685000D03*
Y103885000D03*
Y103085000D03*
Y102285000D03*
Y101485000D03*
Y100685000D03*
Y99885000D03*
Y99085000D03*
Y98285000D03*
Y97485000D03*
Y96685000D03*
X23715000Y76365000D03*
Y77164990D03*
Y77964990D03*
Y78765000D03*
Y79565000D03*
Y80365000D03*
Y81164990D03*
Y81964990D03*
Y82765000D03*
Y83565000D03*
Y84365000D03*
Y85164990D03*
Y85964990D03*
Y86765000D03*
Y87565000D03*
Y88365000D03*
Y89164990D03*
Y89964990D03*
Y90765000D03*
Y91565000D03*
Y92365000D03*
Y93164990D03*
X12465000D03*
Y92365000D03*
Y91565000D03*
Y90765000D03*
Y89964990D03*
Y89164990D03*
Y88365000D03*
Y87565000D03*
Y86765000D03*
Y85964990D03*
Y85164990D03*
Y84365000D03*
Y83565000D03*
Y82765000D03*
Y81964990D03*
Y81164990D03*
Y80365000D03*
Y79565000D03*
Y78765000D03*
Y77964990D03*
Y77164990D03*
Y76365000D03*
X23715000Y56045000D03*
Y56845000D03*
Y57645000D03*
Y58445000D03*
Y59244990D03*
Y60045000D03*
Y60845000D03*
Y61645000D03*
Y62445000D03*
Y63244990D03*
Y64045000D03*
Y64845000D03*
Y65644990D03*
Y66444990D03*
Y67245000D03*
Y68045000D03*
Y68845000D03*
Y69645000D03*
Y70444990D03*
Y71245000D03*
Y72045000D03*
Y72845000D03*
X12465000D03*
Y72045000D03*
Y71245000D03*
Y70444990D03*
Y69645000D03*
Y68845000D03*
Y68045000D03*
Y67245000D03*
Y66444990D03*
Y65644990D03*
Y64845000D03*
Y64045000D03*
Y63244990D03*
Y62445000D03*
Y61645000D03*
Y60845000D03*
Y60045000D03*
Y59244990D03*
Y58445000D03*
Y57645000D03*
Y56845000D03*
Y56045000D03*
X23715000Y35725000D03*
Y36525000D03*
Y37324990D03*
Y38125000D03*
Y38924990D03*
Y39725000D03*
Y40525000D03*
Y41324990D03*
Y42125000D03*
Y42924990D03*
Y43725000D03*
Y44525000D03*
Y45324990D03*
Y46125000D03*
Y46924990D03*
Y47725000D03*
Y48525000D03*
Y49324990D03*
Y50125000D03*
Y50924990D03*
Y51725000D03*
Y52525000D03*
X12465000D03*
Y51725000D03*
Y50924990D03*
Y50125000D03*
Y49324990D03*
Y48525000D03*
Y47725000D03*
Y46924990D03*
Y46125000D03*
Y45324990D03*
Y44525000D03*
Y43725000D03*
Y42924990D03*
Y42125000D03*
Y41324990D03*
Y40525000D03*
Y39725000D03*
Y38924990D03*
Y38125000D03*
Y37324990D03*
Y36525000D03*
Y35725000D03*
D23*
X96850000Y56189990D03*
Y57460000D03*
Y58729990D03*
Y60000000D03*
Y61270000D03*
Y62539990D03*
Y63810000D03*
Y65080000D03*
Y66349990D03*
Y67620000D03*
X86650000D03*
Y66349990D03*
Y65080000D03*
Y63810000D03*
Y62539990D03*
Y61270000D03*
Y60000000D03*
Y58729990D03*
Y57460000D03*
Y56189990D03*
X64465000D03*
Y57460000D03*
Y58729990D03*
Y60000000D03*
Y61270000D03*
Y62539990D03*
Y63810000D03*
Y65080000D03*
Y66349990D03*
Y67620000D03*
X54265000D03*
Y66349990D03*
Y65080000D03*
Y63810000D03*
Y62539990D03*
Y61270000D03*
Y60000000D03*
Y58729990D03*
Y57460000D03*
Y56189990D03*
X96850000Y71429990D03*
Y72699990D03*
Y73970000D03*
Y75240000D03*
Y76510000D03*
Y77780000D03*
Y79050000D03*
Y80319990D03*
Y81589990D03*
Y82860000D03*
X86650000D03*
Y81589990D03*
Y80319990D03*
Y79050000D03*
Y77780000D03*
Y76510000D03*
Y75240000D03*
Y73970000D03*
Y72699990D03*
Y71429990D03*
X64465000D03*
Y72699990D03*
Y73970000D03*
Y75240000D03*
Y76510000D03*
Y77780000D03*
Y79050000D03*
Y80319990D03*
Y81589990D03*
Y82860000D03*
X54265000D03*
Y81589990D03*
Y80319990D03*
Y79050000D03*
Y77780000D03*
Y76510000D03*
Y75240000D03*
Y73970000D03*
Y72699990D03*
Y71429990D03*
X96850000Y86670000D03*
Y87940000D03*
Y89210000D03*
Y90480000D03*
Y91750000D03*
Y93020000D03*
Y94289990D03*
Y95560000D03*
Y96830000D03*
Y98100000D03*
X86650000D03*
Y96830000D03*
Y95560000D03*
Y94289990D03*
Y93020000D03*
Y91750000D03*
Y90480000D03*
Y89210000D03*
Y87940000D03*
Y86670000D03*
X64465000D03*
Y87940000D03*
Y89210000D03*
Y90480000D03*
Y91750000D03*
Y93020000D03*
Y94289990D03*
Y95560000D03*
Y96830000D03*
Y98100000D03*
X54265000D03*
Y96830000D03*
Y95560000D03*
Y94289990D03*
Y93020000D03*
Y91750000D03*
Y90480000D03*
Y89210000D03*
Y87940000D03*
Y86670000D03*
X96850000Y101910000D03*
Y103179990D03*
Y104449990D03*
Y105719990D03*
Y106990000D03*
Y108260000D03*
Y109530000D03*
Y110800000D03*
Y112069990D03*
Y113340000D03*
X86650000D03*
Y112069990D03*
Y110800000D03*
Y109530000D03*
Y108260000D03*
Y106990000D03*
Y105719990D03*
Y104449990D03*
Y103179990D03*
Y101910000D03*
X64465000D03*
Y103179990D03*
Y104449990D03*
Y105719990D03*
Y106990000D03*
Y108260000D03*
Y109530000D03*
Y110800000D03*
Y112069990D03*
Y113340000D03*
X54265000D03*
Y112069990D03*
Y110800000D03*
Y109530000D03*
Y108260000D03*
Y106990000D03*
Y105719990D03*
Y104449990D03*
Y103179990D03*
Y101910000D03*
X47560000Y61270000D03*
Y62539990D03*
Y63810000D03*
Y65080000D03*
Y66349990D03*
Y67620000D03*
Y68890000D03*
X41960000D03*
Y67620000D03*
Y66349990D03*
Y65080000D03*
Y63810000D03*
Y62539990D03*
Y61270000D03*
X36130000Y51110000D03*
Y52379990D03*
Y53650000D03*
Y54920000D03*
X30530000D03*
Y53650000D03*
Y52379990D03*
Y51110000D03*
X36130000Y61270000D03*
Y62539990D03*
Y63810000D03*
Y65080000D03*
Y66349990D03*
Y67620000D03*
Y68890000D03*
Y70160000D03*
X30530000D03*
Y68890000D03*
Y67620000D03*
Y66349990D03*
Y65080000D03*
Y63810000D03*
Y62539990D03*
Y61270000D03*
X70420000Y16820000D03*
Y18090000D03*
Y19359990D03*
Y20629990D03*
X64820000D03*
Y19359990D03*
Y18090000D03*
Y16820000D03*
X52400000Y6659990D03*
Y7929990D03*
Y9200000D03*
Y10470000D03*
Y11740000D03*
Y13010000D03*
Y14280000D03*
Y15550000D03*
Y16820000D03*
Y18090000D03*
Y19359990D03*
Y20629990D03*
Y21900000D03*
Y23170000D03*
X42200000D03*
Y21900000D03*
Y20629990D03*
Y19359990D03*
Y18090000D03*
Y16820000D03*
Y15550000D03*
Y14280000D03*
Y13010000D03*
Y11740000D03*
Y10470000D03*
Y9200000D03*
Y7929990D03*
Y6659990D03*
D24*
X39574470Y55264050D03*
X48675290D03*
X39574470Y50765710D03*
X48675290D03*
D25*
X87953850Y23803610D03*
X99353370D03*
X87953850Y21263610D03*
X99353370D03*
X87953850Y18723610D03*
X99353370D03*
X87953850Y13008610D03*
X99353370D03*
X87953850Y10468610D03*
X99353370D03*
X87953850Y7928610D03*
X99353370D03*
D26*
X74945240Y20590510D03*
X79344520D03*
X55895240Y18050510D03*
X60294520D03*
X74945240Y15589250D03*
X79344520D03*
X55895240Y13049250D03*
X60294520D03*
D27*
X59060000Y47185000D03*
Y46535000D03*
Y45885000D03*
Y45235000D03*
Y44585000D03*
Y43935000D03*
Y43285000D03*
Y42635000D03*
Y41985000D03*
Y41335000D03*
Y40685000D03*
Y40035000D03*
Y39385000D03*
Y38735000D03*
Y38085000D03*
Y37435000D03*
Y36785000D03*
Y36135000D03*
Y35485000D03*
Y34835000D03*
Y34185000D03*
Y33535000D03*
Y32885000D03*
Y32234990D03*
Y31585000D03*
Y30935000D03*
Y30285000D03*
Y29635000D03*
X81260000D03*
Y30285000D03*
Y30935000D03*
Y31585000D03*
Y32234990D03*
Y32885000D03*
Y33535000D03*
Y34185000D03*
Y34835000D03*
Y35485000D03*
Y36135000D03*
Y36785000D03*
Y37435000D03*
Y38085000D03*
Y38735000D03*
Y39385000D03*
Y40035000D03*
Y40685000D03*
Y41335000D03*
Y41985000D03*
Y42635000D03*
Y43285000D03*
Y43935000D03*
Y44585000D03*
Y45235000D03*
Y45885000D03*
Y46535000D03*
Y47185000D03*
D28*
X79025000Y57460000D03*
Y58729990D03*
Y60000000D03*
Y61270000D03*
Y62539990D03*
Y63810000D03*
Y65080000D03*
Y66349990D03*
X72725000D03*
Y65080000D03*
Y63810000D03*
Y62539990D03*
Y61270000D03*
Y60000000D03*
Y58729990D03*
Y57460000D03*
X96805000Y28885000D03*
Y30154990D03*
Y31425000D03*
Y32695000D03*
Y33965000D03*
Y35235000D03*
Y36504990D03*
Y37775000D03*
X90505000D03*
Y36504990D03*
Y35235000D03*
Y33965000D03*
Y32695000D03*
Y31425000D03*
Y30154990D03*
Y28885000D03*
X79025000Y72699990D03*
Y73970000D03*
Y75240000D03*
Y76510000D03*
Y77780000D03*
Y79050000D03*
Y80319990D03*
Y81589990D03*
X72725000D03*
Y80319990D03*
Y79050000D03*
Y77780000D03*
Y76510000D03*
Y75240000D03*
Y73970000D03*
Y72699990D03*
X96805000Y41585000D03*
Y42854990D03*
Y44125000D03*
Y45395000D03*
Y46665000D03*
Y47935000D03*
Y49205000D03*
Y50475000D03*
X90505000D03*
Y49205000D03*
Y47935000D03*
Y46665000D03*
Y45395000D03*
Y44125000D03*
Y42854990D03*
Y41585000D03*
X79025000Y87940000D03*
Y89210000D03*
Y90480000D03*
Y91750000D03*
Y93020000D03*
Y94289990D03*
Y95560000D03*
Y96830000D03*
X72725000D03*
Y95560000D03*
Y94289990D03*
Y93020000D03*
Y91750000D03*
Y90480000D03*
Y89210000D03*
Y87940000D03*
X79025000Y103179990D03*
Y104449990D03*
Y105719990D03*
Y106990000D03*
Y108260000D03*
Y109530000D03*
Y110800000D03*
Y112069990D03*
X72725000D03*
Y110800000D03*
Y109530000D03*
Y108260000D03*
Y106990000D03*
Y105719990D03*
Y104449990D03*
Y103179990D03*
D29*
X39043610Y46649640D03*
Y28900120D03*
M02*