G04 PCB Fabrication Data in Gerber – Example 1, created by Karel Tavernier, Filip Vermeire and Thomas Weyn*
G04 Ucamco copyright*
%TF.GenerationSoftware,Ucamco,UcamX,1.1.0-140320*%
%TF.CreationDate,2014-06-18T00:00:00+01:00*%
%FSLAX36Y36*%
%MOMM*%
%TF.FileFunction,Copper,L1,Top,Signal*%
%TF.FilePolarity,Positive*%
%TF.Part,Single*%
%TF.SameCoordinates,f8d53b1f8c81977d8c3d0dffcc4c4bd6e6770c0f*%
%TA.AperFunction,Conductor*%
%ADD10C,0.15000*%
%ADD11C,0.30000*%
%ADD12C,0.70000*%
%TA.AperFunction,ViaPad*%
%ADD13C,0.75000*%
%TA.AperFunction,FiducialPad,Local*%
%ADD14C,1.00000*%
%TA.AperFunction,ComponentPad*%
%ADD15C,1.60000*%
%ADD16C,1.70000*%
%ADD17R,1.60000X1.60000*%
%ADD18R,1.70000X1.70000*%
%TA.AperFunction,SMDPad,CuDef*%
%ADD19R,0.30000X1.60000*%
%ADD20R,0.35000X2.50000*%
%ADD21R,1.10000X1.60000*%
%ADD22R,1.00000X1.20000*%
%ADD23R,1.30000X2.50000*%
%ADD24R,1.60000X1.10000*%
%ADD25R,1.60000X2.50000*%
%ADD26R,1.95000X0.55000*%
%ADD27R,2.00000X0.60000*%
%ADD28R,2.10000X1.40000*%
%ADD29R,2.00000X1.50000*%
%ADD30R,2.20000X2.40000*%
%ADD31R,2.50000X0.35000*%
%ADD32R,2.70000X0.65000*%
%ADD33R,3.00000X4.70000*%
%TA.AperFunction,Conductor*%
%ADD34C,0*%
G01*
G75*
%LPD*%
D10*
X74944990Y20589980D02*
Y23255000D01*
X72434990Y25764980D01*
Y27309980D01*
X82344970Y20629980D02*
Y19145000D01*
X81899990Y18699990D01*
X78249990D01*
X76359970Y20589980D01*
X74944990D01*
X74944990Y15589990D02*
Y17454980D01*
X73199980Y19199990D01*
Y24399980D01*
X71784970Y25814990D01*
Y27309980D01*
X82344970Y16819980D02*
X81079980D01*
X80449980Y17449980D01*
X78249990D01*
X76389970Y15589990D01*
X74944990D01*
X63334980Y27309980D02*
Y30299990D01*
X69934990Y36899980D01*
X76649990D01*
X87954970Y18724980D02*
X83599990D01*
Y18749980D01*
X96804990Y36504980D02*
X98829980D01*
X81259990Y30934990D02*
X88064980D01*
X88844990Y30154980D01*
X90504980D01*
X92094990D01*
X92449980Y29799990D01*
Y17649980D01*
X90349990Y15549980D01*
Y14500000D01*
X99354970Y7929980D02*
X92999970D01*
Y7950000D01*
X81259990Y31584980D02*
X88514990D01*
X88674980Y31424980D01*
X90504980D01*
X87954970Y13009980D02*
X90149990D01*
X92799970Y15659990D01*
Y30903980D01*
X92278990Y31424980D01*
X90504980D01*
X81259990Y32234990D02*
X87230180D01*
X87690180Y32694980D01*
X90504980D01*
X92309770D01*
X93199990Y31804790D01*
Y15349980D01*
X92349980Y14500000D01*
Y12999980D01*
X99354970Y13009980D02*
X97649970D01*
Y12999980D01*
X81259990Y32884980D02*
X87016190D01*
X88096190Y33964980D01*
X90504980D01*
X87954970Y7929980D02*
X90779980D01*
X93649980Y10799980D01*
Y32640090D01*
X92325090Y33964980D01*
X90504980D01*
X81259990Y34185000D02*
X87164190D01*
X88214180Y35234980D01*
X90504980D01*
X99354970Y18724980D02*
X96774990D01*
X94099990Y21399990D01*
Y33567580D01*
X92432580Y35234980D01*
X90504980D01*
X81259990Y34834980D02*
X86834980D01*
X87633890Y35633890D01*
Y35979480D01*
X88159390Y36504980D01*
X90504980D01*
X87954970Y23804980D02*
X89649990D01*
Y23799980D01*
X90504980Y36504980D02*
X92386580D01*
X94549980Y34341590D01*
Y25349990D01*
X94949980Y24949990D01*
Y23799980D01*
X81259990Y35485000D02*
X83014970D01*
X83249980Y35250000D01*
X86724980D01*
X87307470Y35832490D01*
Y36977880D01*
X88104580Y37774980D01*
X90504980D01*
X99354970Y23804980D02*
X97144970D01*
X94949980Y25999980D01*
Y35230790D01*
X92405790Y37774980D01*
X90504980D01*
X64819990Y19359980D02*
X66249980D01*
X67234970Y20345000D01*
Y27309980D01*
Y31584980D01*
X70799990Y35150000D01*
X77549990D01*
X96804990Y33964980D02*
X98829980D01*
X70419980Y19359980D02*
X72099990D01*
Y19349980D01*
X81259990Y38084990D02*
X79628570D01*
X78278590Y39434980D01*
X74849990D01*
X90504980Y45394980D02*
X88244990D01*
X86926090Y44076090D01*
Y38654380D01*
X86171690Y37899980D01*
X83149980D01*
X82964990Y38084990D01*
X81259990D01*
X68534990Y27309980D02*
Y31284980D01*
X70199990Y32949970D01*
X77549990D01*
X70419980Y18089980D02*
X69049980D01*
X68534990Y18604990D01*
Y27309980D01*
X96804990Y30154980D02*
X98858170D01*
X67884980Y27309980D02*
Y31434990D01*
X70749980Y34299980D01*
X78449990D01*
X70419980Y16819980D02*
X69049980D01*
X67884980Y17984980D01*
Y27309980D01*
X96804990Y31424980D02*
X98829980D01*
X64819990Y20629980D02*
X66149980D01*
X66584980Y21064980D01*
Y27309980D01*
Y31699990D01*
X70884980Y35999980D01*
X78549990D01*
X96804990Y35234980D02*
X98829980D01*
X52400000Y10469980D02*
X50099980D01*
Y10449990D01*
X59059980Y30284980D02*
X61445270D01*
X69995290Y38834980D01*
X77597380D01*
X96804990Y37774980D02*
X98829980D01*
X56749980Y30299990D02*
X56764990Y30284980D01*
X59059980D01*
X30789980Y98734980D02*
X39065000D01*
X40349990Y97449970D01*
X46950000D01*
X48699980Y95699990D01*
X50099980D01*
X51624990Y39044980D02*
X52549990D01*
X52949990Y38644980D01*
Y36799980D01*
X54899990Y34850000D01*
X56949980D01*
X59059980Y34834980D02*
X56949980D01*
Y34850000D01*
X30529990Y52379980D02*
X31869990D01*
X34750000Y49499980D01*
X43949980D01*
X45099990Y48349990D01*
X47050000D01*
X51624990Y36504980D02*
X50795000D01*
X50499980Y36799980D01*
Y37449990D01*
X50199980Y37749990D01*
X47050000D01*
Y37799980D01*
X59059980Y34185000D02*
X54964990D01*
X52644980Y36504980D01*
X51624990D01*
X12204980Y6584980D02*
Y5454980D01*
X12049990Y5299990D01*
Y4449980D01*
X15549980Y949990D01*
X24649990D01*
X25249990Y1549990D01*
X32649980D01*
X33699990Y2600000D01*
X33539990Y6584980D02*
Y7589980D01*
X33699990Y7749970D01*
Y8399990D01*
X51624990Y33964980D02*
X52869980D01*
X53300000Y33534990D01*
X59059980Y33534990D02*
X53300000D01*
X33699990Y2600000D02*
X49199980D01*
X53284990Y33534990D02*
X53300000D01*
X39574980Y50764980D02*
X37922000D01*
X37576990Y51109980D01*
X36129980D01*
X48674990Y50764980D02*
X39574980D01*
X39044980Y28900000D02*
Y32299990D01*
X39395000Y32649980D01*
X41249980D01*
X43749980Y35150000D01*
X52849990D01*
X81259990Y40034970D02*
X61449990D01*
Y40049990D01*
X52400000Y9199980D02*
X54100000D01*
X65284990Y27309980D02*
Y25264980D01*
X65299970Y25249990D01*
X18205000Y25784990D02*
Y22335900D01*
X21640880Y18899990D01*
X24749990D01*
X23714990Y48524980D02*
X24936380D01*
X25399980Y48061370D01*
X23714990Y68844980D02*
X25399980D01*
Y68859990D01*
X23714990Y89164980D02*
X25399980D01*
Y89179990D01*
X23714990Y109484980D02*
X25399980D01*
Y109499990D01*
X31540000Y25784990D02*
Y24339980D01*
X31049980Y23849990D01*
Y23818190D01*
X47559980Y62539980D02*
X45010000D01*
X44999990Y62549990D01*
X47559980Y67619980D02*
X44999990D01*
X52400000Y13009980D02*
X54100000D01*
Y12999980D01*
X61384970Y27309980D02*
X58789980D01*
X58137100Y27962890D01*
X57332480D01*
X25399980Y68859990D02*
X27389990D01*
X28000000Y68249980D01*
X44369990D01*
X44999990Y67619980D01*
X31449980Y18899990D02*
X24749990D01*
X57332480Y27962890D02*
X55788490D01*
X53773780Y29977590D01*
X42345180D01*
X41749980Y29382390D01*
Y25240590D01*
X40968880Y24459490D01*
X37121290D01*
X36179180Y25401580D01*
Y27170590D01*
X35349790Y28000000D01*
X32799990D01*
X31540000Y26739980D01*
Y25784990D01*
X81259990Y42634990D02*
X78408990D01*
X90504980Y46664980D02*
X88198480D01*
X86268180Y44734690D01*
Y41253080D01*
X105084980Y9199980D02*
Y8134990D01*
X104799970Y7849970D01*
X102899970D01*
X100399980Y5349980D01*
X75649990D01*
X74999980Y5999990D01*
X73449970D01*
X70949970Y40635000D02*
X72995970D01*
X74995990Y42634990D01*
X78408990D01*
X77014990Y7294980D02*
X74849990D01*
Y7299990D01*
X81259990Y41335000D02*
X75664980D01*
X75649990Y41349980D01*
X79814980Y7294980D02*
X82344970D01*
Y10469980D01*
X79564970D01*
X82344970Y13644980D02*
Y10469980D01*
X47559980Y61269980D02*
X49719990D01*
X49749990Y61299980D01*
X54264990Y98099980D02*
X52500000D01*
X86649970Y98099980D02*
X71429980D01*
X70794980Y98734980D01*
X56189980D01*
X55554980Y98099980D01*
X54264990D01*
X42199990Y21899980D02*
X46899980D01*
X49136990Y24136990D01*
X53541090D01*
X54455090Y23222990D01*
X63627890D01*
X64385290Y22465590D01*
X65350490D01*
X69184980Y27309980D02*
Y29649980D01*
X96804990Y28884980D02*
X98858170D01*
X69199990Y29649980D02*
X69184980D01*
X78449990Y32049980D02*
X69999990D01*
X69184980Y31234990D01*
Y29649980D01*
X12464980Y38125000D02*
X3065000D01*
X3049980Y38109980D01*
X12464980Y58445000D02*
X3065000D01*
X3049980Y58429980D01*
X12464980Y78764970D02*
X3065000D01*
X3049980Y78749980D01*
X12464980Y99084970D02*
X14314990D01*
X15349980Y98049970D01*
Y96649970D01*
X16549980Y95449980D01*
X28000990D01*
X28150970Y95599990D01*
X28973880D01*
X13204980Y6584980D02*
Y8045000D01*
X9899980Y11349990D01*
X7699990D01*
X4199990Y14849990D01*
X3049980D01*
Y14900000D01*
X34539990Y6584980D02*
Y7539990D01*
X34750000Y7749970D01*
X36349990D01*
X52400000Y11739980D02*
X50349990D01*
X43910000Y5299990D01*
X40500000D01*
X38049990Y7749970D01*
X36349990D01*
X54264990Y57459980D02*
X56189980D01*
X54264990Y72699980D02*
X56189980D01*
X62684990Y27309980D02*
Y29249980D01*
X62649990D01*
X86649970Y57459980D02*
X88574980D01*
X86649970Y72699980D02*
X89244990D01*
X3049980Y99099980D02*
X3065000Y99084970D01*
X12464980D01*
X36349990Y3549980D02*
X33450000D01*
X31749980Y1849990D01*
X24999980D01*
X24499980Y1349990D01*
X16200000D01*
X13299980Y4249980D01*
Y5349980D01*
X13204980Y5444980D01*
Y6584980D01*
X54100000Y11749990D02*
Y11739980D01*
X52400000D01*
X72649970Y55799990D02*
X71349970D01*
X71099990Y55549980D01*
X67071370D01*
X65821380Y56799990D01*
X60699980D01*
X60039990Y57459980D01*
X56189980D01*
X66479980Y7294980D02*
X69009970D01*
Y10469980D01*
X66229970D01*
X69009970Y13644980D02*
Y10469980D01*
X36129980Y68889980D02*
X39649990D01*
Y68899990D01*
X64464970Y56189980D02*
X65752270D01*
X66792270Y55149980D01*
X73099980D01*
X76049990Y52199970D01*
X85849970D01*
X96849970Y56189980D02*
X94924980D01*
X43499990Y59750000D02*
X47899980D01*
X49999980Y57649980D01*
X52349990D01*
X53200000Y56799990D01*
X55549980D01*
X56159990Y56189980D01*
X64464970D01*
X23714990Y39724990D02*
X32399990D01*
X30529990Y66349980D02*
X31949980D01*
X33299990Y64999970D01*
X34099990D01*
X47559980Y65079980D02*
X50899980D01*
Y65099970D01*
X54264990Y113339980D02*
X52049990D01*
Y113349990D01*
X86649970Y113339980D02*
X85072580D01*
X84437580Y113974980D01*
X56189980D01*
X55554980Y113339980D01*
X54264990D01*
X30529990Y70159980D02*
X33009990D01*
X33899990Y71049970D01*
X48299980D01*
X52349990Y66999970D01*
X58110000D01*
X62539980Y71429980D01*
X64464970D01*
X65919990D01*
X69999990Y67349980D01*
X76449990D01*
X96849970Y71429980D02*
X95399680D01*
X94829680Y71999990D01*
X85533380D01*
X84883370Y72649970D01*
X81296590D01*
X80696590Y72049970D01*
X79249980D01*
X78599970Y71399990D01*
X30529990Y68889980D02*
X33139990D01*
X33799990Y69549980D01*
X45849970D01*
X47559980Y63809980D02*
X45849970D01*
Y63799980D01*
X47559980Y66349980D02*
X44949980D01*
X44299990Y66999970D01*
X33799990D01*
X33180000Y67619980D01*
X30529990D01*
X55675000Y8564980D02*
Y10155000D01*
X55894990Y11204980D01*
Y13049990D01*
Y14904980D01*
X53979980Y16819980D01*
X52400000D01*
X60294980Y13049990D02*
X55894990D01*
X55894990Y18049980D02*
X55854980Y18089980D01*
X52400000D01*
X55935980Y22274000D02*
X55894990D01*
Y18049980D01*
X60294980Y18049980D02*
X55894990D01*
X30529990Y65079980D02*
X29299990D01*
X29100000Y64879980D01*
Y62349990D01*
X26795000Y60044990D01*
X23714990D01*
X23714990Y80364990D02*
X25923980D01*
X27001570Y81442590D01*
X28527380D01*
X30529990Y63809980D02*
X32149980D01*
Y63799980D01*
X23714990Y100684990D02*
X27865000D01*
X28449980Y100099980D01*
X34799980D01*
X30529990Y62539980D02*
X33049970D01*
Y62549990D01*
X36129980Y65079980D02*
X37869980D01*
X37849990Y65099970D01*
X51624990Y31424980D02*
X50849990D01*
X50549990Y31724980D01*
Y32349980D01*
X50199980Y32699990D01*
X47199980D01*
X46774990Y32275000D01*
X42462100D01*
X59059980Y32884980D02*
X56599990D01*
X55140000Y31424980D01*
X51624990D01*
X59059980Y29635000D02*
X61460890D01*
X69788080Y37962180D01*
X76462080D01*
X96804990Y46664980D02*
X95363770D01*
X94149980Y47878800D01*
Y50777980D01*
X93227980Y51699980D01*
X87728170D01*
X83261380Y47233180D01*
Y46646980D01*
X107299990Y35869980D02*
X105929990D01*
X105299970Y36499980D01*
Y37199980D01*
X99599980Y42899990D01*
Y45667200D01*
X98602190Y46664980D01*
X96804990D01*
X81259990Y47185000D02*
X82713980D01*
X87528990Y51999970D01*
X93799990D01*
X94449980Y51349990D01*
Y48749990D01*
X95264990Y47934980D01*
X96804990D01*
X109839990Y35869980D02*
X108759980Y36949990D01*
X105999990D01*
X99899980Y43049980D01*
Y46550000D01*
X98514970Y47934980D01*
X96804990D01*
X78934970Y49509990D02*
Y50999980D01*
X79034970Y51099980D01*
X86138870D01*
X87338890Y52299970D01*
X94199990D01*
X94749980Y51749990D01*
Y49549990D01*
X95094990Y49204980D01*
X96804990D01*
X112379990Y35869980D02*
X110949970Y37299980D01*
X106349980D01*
X100199980Y43449980D01*
Y47554970D01*
X98549970Y49204980D01*
X96804990D01*
X78284990Y49509990D02*
Y51099980D01*
X78634970Y51449990D01*
X86023680D01*
X87173690Y52600000D01*
X94449980D01*
X95049980Y51999970D01*
Y50674980D01*
X95249980Y50474980D01*
X96804990D01*
X107299990Y38409980D02*
X106289990D01*
X100499980Y44199990D01*
Y48449990D01*
X98474990Y50474980D01*
X96804990D01*
X30529990Y53649980D02*
X32198390D01*
X32943400Y52904980D01*
X42329480D01*
X43774690Y51459790D01*
X45576980D01*
X42199990Y20629980D02*
X39900000D01*
Y20650000D01*
X75684990Y27309980D02*
Y25364980D01*
X76299980Y24749990D01*
X96804990Y32694980D02*
X101367080D01*
X102160580Y31901490D01*
Y21518100D01*
X105788080Y17890590D01*
X107140580D01*
X39900000Y3600000D02*
X45349980D01*
X45749970Y3999990D01*
X55899990D01*
X56249980Y3649980D01*
X77549990D01*
X102549990D01*
X12464980Y38924990D02*
X14324480D01*
X12464980Y59244990D02*
X14324480D01*
X12464980Y79564970D02*
X14324480D01*
X12464980Y99884970D02*
X14150190D01*
X14830100Y99205090D01*
X15815690D01*
X28539980Y6584980D02*
Y9287890D01*
X27660780Y10167090D01*
Y13114780D01*
X28486480Y13940490D01*
X36837090D01*
X46029980Y101274980D02*
X47962700D01*
X49414280Y99823370D01*
X56851200D01*
X64634980Y49509990D02*
Y52427480D01*
X44985490Y54908200D02*
X43806600D01*
X41217780Y57496990D01*
X36752000D01*
X36212580Y56957600D01*
X26424490D01*
X24574100Y55107180D01*
X16334690D01*
X15761900Y55679980D01*
Y57807580D01*
X14324480Y59244990D01*
X64634980Y52427480D02*
X63673590D01*
X63386870Y52714200D01*
X59879690D01*
X58917280Y53676580D01*
X46974990D01*
X45743400Y54908200D01*
X44985490D01*
X11704980Y6584980D02*
Y5489300D01*
X11449990Y5234280D01*
Y3884780D01*
X12464980Y35724980D02*
X4436190D01*
X3651180Y36509990D01*
X1800000D01*
X12464980Y56044980D02*
X4998190D01*
X4213180Y56829990D01*
X1800000D01*
X12464980Y76364980D02*
X5959480D01*
X5174490Y77149990D01*
X1800000D01*
X12464980Y96684980D02*
X7012990D01*
X6197980Y97499990D01*
X1800000D01*
X28039980Y6584980D02*
Y8259980D01*
X26699970Y9599980D01*
X25949990D01*
X63984990Y49509990D02*
Y51109980D01*
X63555980Y51490980D01*
Y51513590D01*
X59619970D01*
X58056990Y53076580D01*
X44751200D01*
X40930780Y56896990D01*
X37296980D01*
X36757590Y56357600D01*
X26946180D01*
X25095790Y54507180D01*
X15410390D01*
X13872590Y56044980D01*
X12464980D01*
X47699980Y92349980D02*
X30049980D01*
X27800000Y94599990D01*
X16000000D01*
X13914990Y96684980D01*
X12464980D01*
X20204990Y25784990D02*
Y22294980D01*
X22299980Y20199990D01*
X25349990D01*
X23714990Y50125000D02*
X25625000D01*
X25999980Y49749990D01*
X23714990Y70444970D02*
X25214990D01*
X25999980Y69659990D01*
X23714990Y90764970D02*
X25214990D01*
X25999980Y89979990D01*
X23714990Y111084970D02*
X25214990D01*
X25999980Y110299990D01*
X30789980Y96194980D02*
X29754980D01*
X29194790Y96755180D01*
X27763190D01*
X27057990Y96049980D01*
X25999980D01*
X34039990Y6584980D02*
Y7689980D01*
X34699980Y8350000D01*
X59059980Y43934990D02*
X44049980D01*
X41814980Y41700000D01*
X30849980D01*
X29630880Y42919090D01*
Y45536280D01*
X25999980Y49167190D01*
Y49749990D01*
X25349990Y20199990D02*
X34050000D01*
X20704990Y25784990D02*
Y30794990D01*
X19299990Y32199990D01*
X15400000D01*
X14149990Y33450000D01*
Y36699980D01*
X16389990Y38939980D01*
X19149980D01*
X23714990Y49325000D02*
X22333280D01*
X20510780Y51147470D01*
X19149980D01*
X23714990Y69644970D02*
X21854590D01*
X20066590Y71432980D01*
X19149980D01*
X23714990Y89964970D02*
X22142480D01*
X20470980Y91636470D01*
X19149980D01*
Y91653080D01*
X23714990Y110284970D02*
X22232500D01*
X21497600Y109550080D01*
X20906180D01*
X34539990Y25784990D02*
Y24699980D01*
X34750000Y24490000D01*
Y23199980D01*
X32449980Y20899990D01*
X22699980D01*
X20704990Y22894980D01*
Y25784990D01*
X59059980Y43284980D02*
X44110000D01*
X42224990Y41400000D01*
X30553890D01*
X29330880Y42622980D01*
Y45392880D01*
X25398780Y49325000D01*
X23714990D01*
X33149970Y97549970D02*
X26511180D01*
X24967590Y96006390D01*
X19149980D01*
Y96049980D01*
X21204990Y25784990D02*
Y31445000D01*
X19949980Y32699990D01*
X15800000D01*
X14649990Y33850000D01*
Y36399980D01*
X16389990Y38139980D01*
X18499990D01*
X23714990Y38924990D02*
X21181600D01*
X20396580Y38139980D01*
X18499990D01*
X23714990Y59244990D02*
X21330080D01*
X20545100Y58459980D01*
X18499990D01*
X23714990Y79564970D02*
X21317380D01*
X20532400Y78779980D01*
X18499990D01*
X23714990Y99884970D02*
X21609080D01*
X20824090Y99099980D01*
X18499990D01*
X29039970Y25784990D02*
Y26989990D01*
X29449980Y27400000D01*
X46029980Y80954980D02*
X41649980D01*
X37854990Y84749970D01*
X30249980D01*
X29299990Y83799990D01*
Y80791890D01*
X28073100Y79564970D01*
X23714990D01*
X59059980Y42634990D02*
X57364990D01*
X57049980Y42949980D01*
X44724980D01*
X40700000Y38924990D01*
X23714990D01*
X29149980Y21599980D02*
X23049990D01*
X21204990Y23444990D01*
Y25784990D01*
X21704990Y25784990D02*
Y32345000D01*
X20850000Y33199990D01*
X16049980D01*
X15200000Y34050000D01*
Y36099980D01*
X16439970Y37339980D01*
X17899990D01*
X23714990Y38125000D02*
X21346800D01*
X20561790Y37339980D01*
X17899990D01*
X23714990Y58445000D02*
X21445300D01*
X20660290Y57659980D01*
X17899990D01*
X23714990Y78764970D02*
X21382590D01*
X20597600Y77979980D01*
X17899990D01*
X23714990Y99084970D02*
X21574580D01*
X20789600Y98299980D01*
X17899990D01*
X30789980Y83494980D02*
X29656280Y82361280D01*
Y80491480D01*
X27929790Y78764970D01*
X23714990D01*
X33039990Y25784990D02*
Y22799980D01*
X32539990Y22299980D01*
X23399980D01*
X21704990Y23994980D01*
Y25784990D01*
X59059980Y41984980D02*
X57164990D01*
X56499990Y42649980D01*
X45424980D01*
X40900000Y38125000D01*
X23714990D01*
X22204990Y25784990D02*
Y32845000D01*
X21350000Y33699990D01*
X16249980D01*
X15700000Y34250000D01*
Y35949990D01*
X16289990Y36539990D01*
X17249980D01*
X23714990Y37325000D02*
X21312180D01*
X20527190Y36539990D01*
X17249980D01*
X23714990Y57645000D02*
X21627090D01*
X20842070Y56859990D01*
X17249980D01*
X23714990Y77964970D02*
X21464480D01*
X20679490Y77179990D01*
X17249980D01*
X23714990Y98284970D02*
X21589980D01*
X20804990Y97499990D01*
X17249980D01*
X30789980Y80954980D02*
X27800000Y77964970D01*
X23714990D01*
X32539990Y25784990D02*
Y24709990D01*
X32699990Y24549990D01*
Y23399980D01*
X32399990Y23099980D01*
X23499980D01*
X22204990Y24394980D01*
Y25784990D01*
X59059980Y41335000D02*
X57264990D01*
X56249980Y42349980D01*
X46074990D01*
X41049980Y37325000D01*
X23714990D01*
X22704990Y25784990D02*
Y33445000D01*
X21950000Y34199980D01*
X16649980D01*
X16249980Y34599980D01*
Y35339990D01*
X16649980Y35739990D01*
X23714990Y36525000D02*
X21294300D01*
X20509280Y35739990D01*
X16649980D01*
X23714990Y56845000D02*
X21808870D01*
X21023890Y56059990D01*
X16649980D01*
X23714990Y77164970D02*
X21579690D01*
X20794680Y76379990D01*
X16649980D01*
X23714990Y97484970D02*
X21652690D01*
X20867680Y96699990D01*
X16649980D01*
X29540000Y25784990D02*
Y24765380D01*
X29149980Y24375390D01*
Y23709990D01*
X28889990Y23449990D01*
X23701280D01*
X22704990Y24446280D01*
Y25784990D01*
X46029980Y78414980D02*
X41700000D01*
X40514980Y79599970D01*
X30036490D01*
X27601500Y77164970D01*
X23714990D01*
X59059980Y40684990D02*
X57314980D01*
X55949980Y42049980D01*
X46674990D01*
X41149980Y36525000D01*
X23714990D01*
X23204990Y25784990D02*
Y29374590D01*
X24344280Y30513890D01*
X30193900D01*
X30699990Y30007790D01*
Y27730680D01*
X30040000Y27070690D01*
Y25784990D01*
X23714990Y35724980D02*
X29758690D01*
X23714990Y56044980D02*
X24917990D01*
X26588190Y57715180D01*
X28518390D01*
X23714990Y76364980D02*
X28767990D01*
X23714990Y96684980D02*
X24992180D01*
X26653390Y98346190D01*
X28980490D01*
X30040000Y25784990D02*
Y24652790D01*
X29798700Y24411490D01*
Y23758100D01*
X59059980Y39384990D02*
X53949980D01*
X51984990Y41349980D01*
X46950000D01*
X41324990Y35724980D01*
X29758690D01*
X23204990Y6584980D02*
Y9996680D01*
X28468470Y15260200D01*
X32049980D01*
Y15274190D01*
X32039990Y25784990D02*
Y23809990D01*
X32049980Y23799980D01*
X36129980Y61269980D02*
X37917380D01*
X59059980Y38734980D02*
X54149980D01*
X52134980Y40749980D01*
X47299980D01*
X40600000Y34050000D01*
X36949990D01*
X15204980Y25784990D02*
Y24354590D01*
X21382280Y18177280D01*
X30411500D01*
X30540000Y25784990D02*
Y27089990D01*
X30999990Y27549990D01*
Y30383080D01*
X31486680Y30869790D01*
X36129980Y62539980D02*
X37884180D01*
X59059980Y37434980D02*
X57234990D01*
X56599990Y36799980D01*
X54000000D01*
X53300000Y37499980D01*
Y39099980D01*
X52099970Y40300000D01*
X47750000D01*
X40600000Y33149970D01*
X36249990D01*
X36129980Y63809980D02*
X39736300D01*
X59059980Y36784990D02*
X57428790D01*
X56574690Y35930890D01*
X55057880D01*
Y35950100D01*
X11704980Y25784990D02*
Y23955000D01*
X11349990Y23599980D01*
X2449980D01*
X12464980Y36525000D02*
X4922600D01*
X4137590Y37309990D01*
X2449980D01*
X12464980Y56845000D02*
X5810990D01*
X5025980Y57629990D01*
X2449980D01*
X12464980Y77164970D02*
X6242280D01*
X5457290Y77949990D01*
X2449980D01*
X12464980Y97484970D02*
X7444290D01*
X6629280Y98299980D01*
X2449980D01*
X27539980Y6584980D02*
Y7959980D01*
X26599970Y8899980D01*
X25149990D01*
X46029980Y96194980D02*
X39994990D01*
X38799980Y94999990D01*
X16300000D01*
X13814990Y97484970D01*
X12464980D01*
X63334980Y49509990D02*
Y47499980D01*
X63349990D01*
X62908180Y52113590D02*
X59689290D01*
X58426280Y53376580D01*
X44892780D01*
X41072390Y57196990D01*
X36996980D01*
X36457590Y56657600D01*
X26679980D01*
X24829590Y54807180D01*
X15833580D01*
X13795780Y56845000D01*
X12464980D01*
X12204980Y25784990D02*
Y26915700D01*
X11870690Y27249990D01*
X8750000D01*
X12464980Y37325000D02*
X8750000D01*
X12464980Y57645000D02*
X8750000D01*
Y57591000D01*
X12464980Y77964970D02*
X8750000D01*
X12464980Y98284970D02*
X8750000D01*
X27039980Y6584980D02*
Y7759980D01*
X26649990Y8150000D01*
X24449990D01*
X62684990Y49509990D02*
Y51047680D01*
X62541690Y51190980D01*
X59271690D01*
X57686090Y52776580D01*
X44626890D01*
X40806470Y56596990D01*
X37568480D01*
X37029090Y56057600D01*
X27288390D01*
X25437980Y54207180D01*
X9856780D01*
X9626880Y54437080D01*
X8796100D01*
X8750000Y54483180D01*
X38599980Y112649990D02*
X33950000D01*
X32449980Y114149990D01*
X25926800D01*
X25626800Y114449990D01*
X20299990D01*
X16449980Y110599980D01*
X16051280D01*
X14770380Y109319090D01*
X14149990D01*
X12464980Y49325000D02*
X10185000D01*
X9350000Y50160000D01*
X12464980Y69644970D02*
X10185000D01*
X9350000Y70479970D01*
X12464980Y89964970D02*
X10185000D01*
X9350000Y90799970D01*
X12464980Y110284970D02*
X13984990D01*
X14800000Y111099980D01*
X12704980Y25784990D02*
Y27167180D01*
X11772190Y28100000D01*
X9350000D01*
X27039980Y25784990D02*
Y27049990D01*
X26539980Y27549990D01*
X25849990D01*
X62034980Y49509990D02*
Y47899980D01*
X61884970Y47750000D01*
X61049970D01*
X56623380Y52176580D01*
X43910890D01*
X42187500Y53900000D01*
X37849990D01*
X37449990Y54300000D01*
X28927990D01*
X27889580Y53261590D01*
X18007790D01*
X14071200Y49325000D01*
X12464980D01*
X14800000Y111099980D02*
X16200000D01*
X19999990Y114899980D01*
X25868000D01*
X26278390Y114489590D01*
X32860390D01*
X34099990Y113249990D01*
X37699980D01*
X25949990Y14549990D02*
X19649980D01*
X12704980Y21494980D01*
Y25784990D01*
X12464980Y50125000D02*
X10834980D01*
X10050000Y50909980D01*
X12464980Y70444970D02*
X10834980D01*
X10050000Y71229980D01*
X12464980Y90764970D02*
X10834980D01*
X10050000Y91549980D01*
X12464980Y111084970D02*
X13903480D01*
X14718490Y111899980D01*
X15500000D01*
X13204980Y25784990D02*
Y21944990D01*
X19849980Y15300000D01*
X27000000D01*
X27539980Y25784990D02*
Y24639980D01*
X27000000Y24099980D01*
X61384970Y49509990D02*
X59999980D01*
X57033390Y52476580D01*
X44502580D01*
X40682190Y56296990D01*
X37896980D01*
X37199980Y55599990D01*
X29143000D01*
X27104600Y53561590D01*
X17224990D01*
X13788390Y50125000D01*
X12464980D01*
X10050000Y28849980D02*
X11627490D01*
X13204980Y27272490D01*
Y25784990D01*
X36699980Y113899980D02*
X34199980D01*
X33310380Y114789590D01*
X26573580D01*
X26013180Y115349990D01*
X19699990D01*
X16249980Y111899980D01*
X15500000D01*
X12464980Y50925000D02*
X10948090D01*
X10699980Y51173080D01*
Y51709980D01*
X12464980Y71244970D02*
X10944280D01*
X10699980Y71489290D01*
Y72029980D01*
X12464980Y91564970D02*
X10923780D01*
X10699980Y91788770D01*
Y92349980D01*
X12464980Y111884970D02*
X13901090D01*
X14716080Y112699980D01*
X16200000D01*
X13704980Y25784990D02*
Y22444990D01*
X20099990Y16049980D01*
X27700000D01*
X28039980Y25784990D02*
Y27389990D01*
X28049980Y27400000D01*
X59059980Y47185000D02*
X44249980D01*
X39965000Y42899990D01*
X34143190D01*
X32462090Y44581090D01*
X30830880D01*
X10699980Y29849980D02*
X11318670D01*
X13704980Y27463680D01*
Y25784990D01*
X35699980Y114499980D02*
X34399980D01*
X33810370Y115089590D01*
X26792000D01*
X26081590Y115799970D01*
X19299990D01*
X16200000Y112699980D01*
X12464980Y51724990D02*
X14072490D01*
X16254680Y53907180D01*
X25780490D01*
X27287100Y55413790D01*
X27849980D01*
X12464980Y72044970D02*
X16402080D01*
X18036490Y73679380D01*
X26230580D01*
X27849980Y72059980D01*
X12464980Y92364970D02*
X14435990D01*
X16153590Y94082590D01*
X26147400D01*
X27849980Y92379980D01*
X12464980Y112684970D02*
X13943280D01*
X17488690Y116230380D01*
X26499800D01*
X26762180Y115967970D01*
X27852780D01*
X14204980Y25784990D02*
Y23144990D01*
X20650000Y16699990D01*
X28549980D01*
X28539980Y25784990D02*
Y24049990D01*
X28549980D01*
X46029980Y83494980D02*
X41735000D01*
X37979990Y87249990D01*
X30199990D01*
X28949980Y88499980D01*
X27849980D01*
X59059980Y46534990D02*
X44299990D01*
X40365000Y42599990D01*
X33789090D01*
X32723180Y43665880D01*
X31649980D01*
X14704980Y25784990D02*
Y23656600D01*
X20989390Y17372180D01*
X26576580D01*
X23714990Y51724990D02*
X27174980D01*
X27200000Y51749990D01*
X23714990Y72044970D02*
X26454790D01*
X27200000Y71299780D01*
X23714990Y92364970D02*
X26414990D01*
X27200000Y91579980D01*
X23714990Y112684970D02*
X26414990D01*
X27200000Y111899980D01*
X30789980Y86034980D02*
X29764990D01*
X28500000Y87299980D01*
X27200000D01*
X33539990Y25784990D02*
Y27249990D01*
X33550000D01*
X59059980Y45234990D02*
X43749980D01*
X40814980Y42299990D01*
X31549980D01*
X30230880Y43619090D01*
Y45802480D01*
X27200000Y48833380D01*
Y51749990D01*
X26576580Y17372180D02*
X29873880D01*
X30895390Y16350690D01*
X32999990D01*
X19704990Y25784990D02*
Y21744990D01*
X21950000Y19499990D01*
X26549990D01*
X23714990Y50925000D02*
X25617680D01*
X25792690Y50749990D01*
X26599970D01*
X23714990Y71244970D02*
X25814990D01*
X26599970Y70459980D01*
X23714990Y91564970D02*
X25814990D01*
X26599970Y90779980D01*
X23714990Y111884970D02*
X25814990D01*
X26599970Y111099980D01*
X30789980Y88574980D02*
X29674970D01*
X27469980Y90779980D01*
X26599970D01*
X34039990Y25784990D02*
Y23809990D01*
X34050000Y23799980D01*
X59059980Y44584980D02*
X43849980D01*
X41264990Y41999990D01*
X31149980D01*
X29930880Y43219090D01*
Y45669380D01*
X26599970Y49000290D01*
Y50749990D01*
X26549990Y19499990D02*
X34999980D01*
X13704980Y6584980D02*
Y8394980D01*
X12399980Y9699980D01*
X23714990Y40524990D02*
X19749980D01*
Y40539980D01*
X23714990Y60844990D02*
X19749980D01*
Y60859980D01*
X23714990Y81164990D02*
X19749980D01*
Y81179980D01*
X23714990Y101484990D02*
X28684980D01*
X29699990Y102499980D01*
X43084980D01*
X44399990Y103814980D01*
X46029980D01*
X29039970Y6584980D02*
Y10299980D01*
X28349980Y10990000D01*
Y12749990D01*
X42199990Y13009980D02*
X40909980D01*
X39800000Y11899980D01*
X32999990D01*
X32149980Y12749990D01*
X28349980D01*
X46029980Y103814980D02*
X49299980Y107084980D01*
Y112699980D01*
X51049990Y114449990D01*
X87549990D01*
X88549990Y113449990D01*
X94289980D01*
X76984990Y49509990D02*
Y51449990D01*
X76949990D01*
X86649970Y58729980D02*
X94289980D01*
X86649970Y73969980D02*
X94289980D01*
X96849970Y87939980D02*
X94289980D01*
X96849970Y103179980D02*
X94289980D01*
X19749980Y101499980D02*
Y101484990D01*
X23714990D01*
X26099980Y2449980D02*
X25099980D01*
X24349990Y1700000D01*
X16754990D01*
X13704980Y4749980D01*
Y6584980D01*
X14704980Y6584980D02*
Y8250000D01*
X14700000D01*
X23714990Y41324990D02*
X20399990D01*
Y41339980D01*
X23714990Y61644990D02*
X20399990D01*
Y61659980D01*
X23714990Y81964990D02*
X20399990D01*
Y81979980D01*
X23714990Y102284990D02*
X28784980D01*
X29549980Y103049990D01*
Y104499970D01*
X30099990Y105049980D01*
X43194990D01*
X44499990Y106354980D01*
X46029980D01*
X29540000Y6584980D02*
Y10249990D01*
X29149980Y10639990D01*
Y12099980D01*
X42199990Y11739980D02*
X40689990D01*
X40349990Y11399980D01*
X32599990D01*
X31899990Y12099980D01*
X29149980D01*
X46029980Y106354980D02*
X48499980Y108824980D01*
Y113399980D01*
X50149990Y115049990D01*
X87799980D01*
X88549990Y114299980D01*
X93649980D01*
X76334980Y49509990D02*
Y47550000D01*
X76349990D01*
X86649970Y59999980D02*
X93654980D01*
X86649970Y75239980D02*
X93654980D01*
X96849970Y89209980D02*
X93654980D01*
X96849970Y104449980D02*
X93654980D01*
X20399990Y102299980D02*
Y102284990D01*
X23714990D01*
X27249990Y3049980D02*
X25149990D01*
X24199980Y2100000D01*
X17354980D01*
X14704980Y4749980D01*
Y6584980D01*
X12464980Y46124980D02*
X10949990D01*
X10164980Y46909990D01*
X6899990D01*
X12464980Y66444980D02*
X10949990D01*
X10164980Y67229990D01*
X6899990D01*
X12464980Y86764980D02*
X10949990D01*
X10164980Y87549990D01*
X6899990D01*
X12464980Y107084980D02*
X15649980D01*
Y107049980D01*
X16205000Y6584980D02*
Y7745000D01*
X16049980Y7899990D01*
Y8950000D01*
X16400000Y9299980D01*
Y11299980D01*
X13599980Y14099970D01*
X6899990D01*
X54264990Y61269980D02*
X60634980D01*
X54264990Y76509980D02*
X60634980D01*
X64464970Y90479980D02*
X60634980D01*
X64464970Y105719980D02*
X60634980D01*
X69184980Y49509990D02*
Y47564980D01*
X69199990Y47550000D01*
X8450000Y108649980D02*
X9599980Y107499990D01*
X10499980D01*
X10914990Y107084980D01*
X12464980D01*
X12464980Y45324980D02*
X10984990D01*
X10199980Y46109990D01*
X6299990D01*
X12464980Y65644980D02*
X10984990D01*
X10099980Y66529990D01*
Y66429990D01*
X6299990D01*
X12464980Y85964980D02*
X10984990D01*
X10099980Y86849990D01*
Y86749990D01*
X6299990D01*
X12464980Y106284980D02*
X16300000D01*
Y106249980D01*
X17205000Y6584980D02*
Y7854980D01*
X17399990Y8050000D01*
Y11399980D01*
X13749990Y15049990D01*
X6299990D01*
X54264990Y62539980D02*
X59999980D01*
X54264990Y77779980D02*
X59999980D01*
X64464970Y91749980D02*
X59999980D01*
X64464970Y106989980D02*
X59999980D01*
X68534990Y49509990D02*
Y51434980D01*
X68549980Y51449990D01*
X7299990Y108549980D02*
X8699990Y107149980D01*
X10299980D01*
X11164980Y106284980D01*
X12464980D01*
X12464980Y42924990D02*
X10964980D01*
X10099980Y42059990D01*
X5699990D01*
X12464980Y63244990D02*
X10964980D01*
X10099980Y62379990D01*
X5699990D01*
X12464980Y83564990D02*
X10964980D01*
X10099980Y82699990D01*
X5699990D01*
X12464980Y103884990D02*
X16884980D01*
X16899990Y103899970D01*
X18704990Y6584980D02*
Y7745000D01*
X18549980Y7899990D01*
Y9099980D01*
X18799990Y9350000D01*
Y11199980D01*
X13999970Y16000000D01*
X5699990D01*
X54264990Y63809980D02*
X59364980D01*
X54264990Y79049980D02*
X59364980D01*
X64464970Y93019980D02*
X59364980D01*
X64464970Y108259980D02*
X59364980D01*
X67884980Y49509990D02*
Y47564980D01*
X67899990Y47550000D01*
X5699990Y102499980D02*
X9650000D01*
X11034980Y103884990D01*
X12464980D01*
X12464980Y42124990D02*
X10914990D01*
X10050000Y41259990D01*
X5099990D01*
X12464980Y62444990D02*
X10914990D01*
X10050000Y61579990D01*
X5099990D01*
X12464980Y82764990D02*
X10914990D01*
X10050000Y81899990D01*
X5099990D01*
X12464980Y103084990D02*
X17499990D01*
Y103099970D01*
X19704990Y6584980D02*
Y7854980D01*
X19849980Y7999990D01*
Y8950000D01*
X19549980Y9250000D01*
Y11449990D01*
X14049990Y16949980D01*
X5099990D01*
X54264990Y65079980D02*
X58729980D01*
X54264990Y80319980D02*
X58729980D01*
X64464970Y94289980D02*
X58729980D01*
X64464970Y109529980D02*
X58729980D01*
X67234970Y49509990D02*
Y51449990D01*
X67249980D01*
X5099990Y101699980D02*
X9550000D01*
X10934980Y103084990D01*
X12464980D01*
X12464980Y41324990D02*
X10914990D01*
X9999980Y40409980D01*
X4449980D01*
X12464980Y61644990D02*
X10914990D01*
X9999980Y60729980D01*
X4449980D01*
X12464980Y81964990D02*
X10914990D01*
X9999980Y81049980D01*
X4449980D01*
X12464980Y102284990D02*
X18149980D01*
Y102299980D01*
X20704990Y6584980D02*
Y7794980D01*
X20549970Y7950000D01*
Y9050000D01*
X20799990Y9299980D01*
Y11249990D01*
X14099970Y17949980D01*
X4449980D01*
X54264990Y66349980D02*
X58094980D01*
X54264990Y81589980D02*
X58094980D01*
X64464970Y95559980D02*
X58094980D01*
X64464970Y110799980D02*
X58094980D01*
X66584980Y49509990D02*
Y47564980D01*
X66599970Y47550000D01*
X4449980Y100899980D02*
X9699980D01*
X11084990Y102284990D01*
X12464980D01*
X12464980Y40524990D02*
X10964980D01*
X10099980Y39659990D01*
X3700000D01*
X12464980Y60844990D02*
X10964980D01*
X10099980Y59979990D01*
X3700000D01*
X12464980Y81164990D02*
X10964980D01*
X10099980Y80299970D01*
X3700000D01*
X12464980Y101484990D02*
X15725880D01*
X15910890Y101299980D01*
X18143980D01*
X21704990Y6584980D02*
Y7904990D01*
X21850000Y8050000D01*
Y11199980D01*
X14199970Y18849980D01*
X3700000D01*
X54264990Y67619980D02*
X57459980D01*
X54264990Y82859980D02*
X57459980D01*
X64464970Y96829980D02*
X57459980D01*
X64464970Y112069980D02*
X57459980D01*
X65934970Y49509990D02*
Y51484990D01*
X65949980D01*
Y51449990D01*
X3700000Y100049990D02*
X9699980D01*
X11134980Y101484990D01*
X12464980D01*
X15704970Y6584980D02*
Y4699990D01*
X17954980Y2449980D01*
X24099980D01*
X25299980Y3649980D01*
X27500000D01*
X27800000Y3349980D01*
X28500000D01*
X23714990Y42124990D02*
X21050000D01*
Y42139970D01*
X23714990Y62444990D02*
X21050000D01*
Y62459970D01*
X23714990Y82764990D02*
X21050000D01*
Y82779970D01*
X23714990Y103084990D02*
X21050000D01*
Y103099970D01*
X30040000Y6584980D02*
Y7859980D01*
X29849980Y8050000D01*
Y11349990D01*
X42199990Y10469980D02*
X40829990D01*
X40300000Y10999980D01*
X32199990D01*
X31849980Y11349990D01*
X29849980D01*
X46029980Y108894980D02*
X44449980D01*
X43254980Y107699990D01*
X29749980D01*
X29199990Y107149980D01*
Y103299970D01*
X28700000Y102799970D01*
X25499980D01*
X25214990Y103084990D01*
X23714990D01*
X75684990Y49509990D02*
Y51449990D01*
X75699980D01*
X86649970Y61269980D02*
X93019980D01*
X86649970Y76509980D02*
X93019980D01*
X96849970Y90479980D02*
X93019980D01*
X96849970Y105719980D02*
X93019980D01*
X15700000Y10249990D02*
X15704970D01*
Y6584980D01*
X93019980Y115099980D02*
X88549990D01*
X87999980Y115649990D01*
X49199980D01*
X47799980Y114249990D01*
Y110664980D01*
X46029980Y108894980D01*
X16705000Y6584980D02*
Y8250000D01*
X16699990D01*
X23714990Y42924990D02*
X21699980D01*
Y42940000D01*
X23714990Y63244990D02*
X21699980D01*
Y63259970D01*
X23714990Y83564990D02*
X21699980D01*
Y83579970D01*
X23714990Y103884990D02*
X21699980D01*
Y103899970D01*
X31040000Y6584980D02*
Y7789980D01*
X31199990Y7950000D01*
Y8750000D01*
X30599990Y9350000D01*
Y10649990D01*
X42199990Y9199980D02*
X40649980D01*
X39199970Y10649990D01*
X30599990D01*
X75034980Y49509990D02*
Y47550000D01*
X75049990D01*
X86649970Y62539980D02*
X92384980D01*
X86649970Y77779980D02*
X92384980D01*
X96849970Y91749980D02*
X92384980D01*
X96849970Y106989980D02*
X92384980D01*
X21699980Y103899970D02*
X19299990Y106299990D01*
Y111499980D01*
X21899980Y114099980D01*
X25250570D01*
X25800590Y113549990D01*
X30799990D01*
X29799990Y3649980D02*
X29149980D01*
X28849980Y3949980D01*
X25099980D01*
X23949990Y2800000D01*
X18554980D01*
X16705000Y4649980D01*
Y6584980D01*
X30799990Y113549990D02*
X32349980D01*
X33850000Y112049970D01*
X39199970D01*
X46099990Y118949980D01*
X90699970D01*
X91399970Y118249980D01*
X92384980D01*
X18205000Y6584980D02*
Y5449980D01*
X18299990Y5354980D01*
Y4549980D01*
X19749980Y3100000D01*
X23599980D01*
X24749990Y4249980D01*
X30099990D01*
X30399990Y3949980D01*
X31049980D01*
X23714990Y45324980D02*
X20164990D01*
X20149970Y45339990D01*
X23714990Y65644980D02*
X20164990D01*
X20149970Y65659990D01*
X23714990Y85964980D02*
X20164990D01*
X20149970Y85979990D01*
X23714990Y106284980D02*
X20164990D01*
X20149970Y106299990D01*
X30789980Y108894980D02*
X27694990D01*
X25084990Y106284980D01*
X23714990D01*
X31540000Y6584980D02*
Y8859980D01*
X31349980Y9050000D01*
Y9950000D01*
X42199990Y7929980D02*
X40569970D01*
X38549990Y9950000D01*
X31349980D01*
X74384970Y49509990D02*
Y51449990D01*
X74399980D01*
X86649970Y63809980D02*
X91749980D01*
X86649970Y79049980D02*
X91749980D01*
X96849970Y93019980D02*
X91749980D01*
X96849970Y108259980D02*
X91749980D01*
X18199990Y10249990D02*
X18205000Y10244990D01*
Y6584980D01*
X91749980Y115749990D02*
X88949990D01*
X88299980Y116399970D01*
X48499980D01*
X40994990Y108894980D01*
X30789980D01*
X19204990Y6584980D02*
Y4499990D01*
X20254980Y3449980D01*
X23249990D01*
X24349990Y4549980D01*
X31349980D01*
X32049980Y3849980D01*
X32699990D01*
X23714990Y46124980D02*
X20750000D01*
Y46139990D01*
X23714990Y66444980D02*
X20750000D01*
Y66459990D01*
X23714990Y86764980D02*
X20750000D01*
Y86779990D01*
X23714990Y107084980D02*
X20750000D01*
Y107099990D01*
X32039990Y6584980D02*
Y9199980D01*
X32049980D01*
X42199990Y6659980D02*
X40639980D01*
X38099980Y9199980D01*
X32049980D01*
X73734980Y49509990D02*
Y47550000D01*
X73749970D01*
X86649970Y65079980D02*
X91114980D01*
X86649970Y80319980D02*
X91114980D01*
X96849970Y94289980D02*
X91114980D01*
X96849970Y109529980D02*
X91114980D01*
X19199990Y8250000D02*
X19204990D01*
Y6584980D01*
X32549980Y110249970D02*
X28564990D01*
X25399980Y107084980D01*
X23714990D01*
X91114980Y116649990D02*
X88899980D01*
X88449990Y117099970D01*
X47950000D01*
X41100000Y110249970D01*
X32549980D01*
X20204990Y6584980D02*
Y4599990D01*
X20954980Y3849980D01*
X23049990D01*
X24049990Y4849980D01*
X32699990D01*
X23714990Y46924980D02*
X21350000D01*
Y46939990D01*
X23714990Y67244980D02*
X21350000D01*
Y67259990D01*
X23714990Y87564980D02*
X21350000D01*
Y87579990D01*
X23714990Y107884980D02*
X21350000D01*
Y107899990D01*
X32539990Y6584980D02*
Y7689980D01*
X32699990Y7849970D01*
Y8399990D01*
X52400000Y6659980D02*
X47299980D01*
X45089980Y4449980D01*
X33650000D01*
X33249970Y4849980D01*
X32699990D01*
X73084970Y49509990D02*
Y51449990D01*
X73099980D01*
X86649970Y66349980D02*
X90479980D01*
X86649970Y81589980D02*
X90479980D01*
X96849970Y95559980D02*
X90479980D01*
X96849970Y110799980D02*
X90479980D01*
X20199990Y10249990D02*
X20204990D01*
Y6584980D01*
X33550000Y110849970D02*
X31849980Y112549990D01*
X29799990D01*
X29349980Y112099980D01*
Y111634980D01*
X25599980Y107884980D01*
X23714990D01*
X90479980Y117549980D02*
X88649990D01*
X88449990Y117749980D01*
X47399980D01*
X40500000Y110849970D01*
X33550000D01*
X21204990Y6584980D02*
Y4699990D01*
X21704990Y4199990D01*
X22899980D01*
X24149990Y5449980D01*
X32889980D01*
X33039990Y5599990D01*
Y5610000D01*
X23714990Y47724980D02*
X22050000D01*
Y47739990D01*
X23714990Y68044980D02*
X22050000D01*
Y68059990D01*
X23714990Y88364980D02*
X22050000D01*
Y88379990D01*
X23714990Y108684980D02*
X22050000D01*
Y108699990D01*
X33039990Y6584980D02*
Y5610000D01*
X52400000Y7929980D02*
X47650000D01*
X44619980Y4899990D01*
X33750000D01*
X33039990Y5610000D01*
X72434990Y49509990D02*
Y47564980D01*
X72449970Y47550000D01*
X86649970Y67619980D02*
X89844980D01*
X86649970Y82859980D02*
X89844980D01*
X96849970Y96829980D02*
X89844980D01*
X96849970Y112069980D02*
X89844980D01*
X21199990Y8250000D02*
X21204990D01*
Y6584980D01*
X34550000Y111449970D02*
X33599990D01*
X32099990Y112949990D01*
X29549980D01*
X28800000Y112199980D01*
Y111799980D01*
X25684990Y108684980D01*
X23714990D01*
X89844980Y118349980D02*
X46750000D01*
X39849990Y111449970D01*
X34550000D01*
X12464980Y47724980D02*
X11049990D01*
X10264980Y48509990D01*
X8150000D01*
X12464980Y68044980D02*
X11049990D01*
X10264980Y68829990D01*
X8150000D01*
X12464980Y88364980D02*
X11049990D01*
X10264980Y89149990D01*
X8150000D01*
X12464980Y108684980D02*
X14754000D01*
X16168980Y110099990D01*
X16799990D01*
X14204980Y6584980D02*
Y7745000D01*
X14049990Y7899990D01*
Y9299980D01*
X11299980Y12049990D01*
X8150000D01*
X54264990Y58729980D02*
X61904980D01*
X54264990Y73969980D02*
X61904980D01*
X64464970Y87939980D02*
X61904980D01*
X64464970Y103179980D02*
X61904980D01*
X71134990Y49509990D02*
Y51114990D01*
X70799990Y51449990D01*
X10799980Y108699990D02*
X12449990D01*
X12464980Y108684980D01*
X12464980Y46924980D02*
X10934980D01*
X10199980Y47659980D01*
Y47709990D01*
X7499990D01*
X12464980Y67244980D02*
X10934980D01*
X10199980Y67979980D01*
Y68029990D01*
X7499990D01*
X12464980Y87564980D02*
X10934980D01*
X10199980Y88299980D01*
Y88349990D01*
X7499990D01*
X12464980Y107884980D02*
X10464980D01*
X9699980Y108649980D01*
X15204980Y6584980D02*
Y7804990D01*
X15349980Y7950000D01*
Y9150000D01*
X11449990Y13049990D01*
X7549970D01*
Y13099980D01*
X54264990Y59999980D02*
X61269980D01*
X54264990Y75239980D02*
X61269980D01*
X64464970Y89209980D02*
X61269980D01*
X64464970Y104449980D02*
X61269980D01*
X70484980Y49509990D02*
Y47564980D01*
X70499990Y47550000D01*
X16799990Y109099990D02*
X16191990D01*
X14976990Y107884980D01*
X12464980D01*
X81259990Y36134980D02*
X83164990D01*
X83749970Y35549990D01*
X86249970D01*
X86942680Y36242680D01*
Y37629390D01*
X87526090Y38212780D01*
Y42021380D01*
X88359690Y42854980D01*
X90504980D01*
X109839990Y20629980D02*
X111112990Y21902980D01*
Y24113900D01*
X110846670Y24380190D01*
X105844670D01*
X102549990Y27674880D01*
Y35875190D01*
X98925180Y39499970D01*
X93849980D01*
X92749980Y40600000D01*
Y42249980D01*
X92144980Y42854980D01*
X90504980D01*
X79024990Y57459980D02*
X79938980D01*
Y57917180D01*
X83367980D01*
X83549390Y58094980D01*
X94924980D01*
X95559980Y57459980D01*
X96849970D01*
X99689970D01*
X100649990Y56499990D01*
Y55499990D01*
X103199970Y52949990D01*
Y50149990D01*
X106049980Y47299980D01*
X108569990D01*
X109839990Y46029980D01*
X64464970Y58729980D02*
X72724980D01*
X74530590D01*
X74876180Y58384390D01*
Y55473780D01*
X77149990Y53200000D01*
X99349970D01*
X101099980Y51449990D01*
Y44999990D01*
X106249980Y39849990D01*
X110939990D01*
X112379990Y38409980D01*
X64464970Y59999980D02*
X72724980D01*
X74492180D01*
X75183390Y59308800D01*
Y55716580D01*
X77399970Y53500000D01*
X99599980D01*
X101399980Y51699980D01*
Y45649970D01*
X106099990Y40949980D01*
X107299990D01*
X64464970Y61269980D02*
X72724980D01*
X74604980D01*
X75483390Y60391580D01*
Y55896590D01*
X77579980Y53800000D01*
X99899980D01*
X101699980Y51999970D01*
Y46450000D01*
X106049980Y42099990D01*
X108689980D01*
X109839990Y40949980D01*
X64464970Y62539980D02*
X72724980D01*
X74492180D01*
X75783390Y61248780D01*
Y56146580D01*
X77829970Y54100000D01*
X100149990D01*
X101999980Y52249990D01*
Y46650000D01*
X106249980Y42399990D01*
X110929980D01*
X112379990Y40949980D01*
X64464970Y63809980D02*
X72724980D01*
X74604980D01*
X76083390Y62331580D01*
Y56396590D01*
X78079980Y54400000D01*
X100299980D01*
X102299980Y52400000D01*
Y47250000D01*
X106059990Y43489980D01*
X107299990D01*
X64464970Y65079980D02*
X72724980D01*
X74604980D01*
X76383390Y63301580D01*
Y56646570D01*
X78329970Y54699990D01*
X100499980D01*
X102599980Y52600000D01*
Y47599980D01*
X105599970Y44599990D01*
X108729990D01*
X109839990Y43489980D01*
X64464970Y66349980D02*
X72724980D01*
X74604980D01*
X76683390Y64271580D01*
Y56896590D01*
X78579980Y54999990D01*
X100699980D01*
X102899970Y52800000D01*
Y48299980D01*
X106249980Y44949980D01*
X110919970D01*
X112379990Y43489980D01*
X96849970Y72699980D02*
X95559980D01*
X94924980Y73334980D01*
X81411780D01*
X80776780Y72699980D01*
X79024990D01*
X112379990Y61269980D02*
X110949970Y62699980D01*
X106299990D01*
X105449980Y63549990D01*
Y64599970D01*
X102449990Y67599970D01*
Y69799990D01*
X99549990Y72699980D01*
X96849970D01*
X96849970Y73969980D02*
X95559980D01*
X94924980Y74604980D01*
X83518780D01*
X82883780Y73969980D01*
X79024990D01*
X107299990Y63809980D02*
X106089990D01*
X105749980Y64149990D01*
Y64799970D01*
X102749990Y67799990D01*
Y70769990D01*
X99549990Y73969980D01*
X96849970D01*
X96849970Y75239980D02*
X95559980D01*
X94924980Y75874980D01*
X83450890D01*
X82815890Y75239980D01*
X79024990D01*
X109839990Y63809980D02*
X108749980Y64899970D01*
X106199990D01*
X103049990Y68049980D01*
Y71739990D01*
X99549990Y75239980D01*
X96849970D01*
X79024990Y58729980D02*
X79938980D01*
Y59187180D01*
X83240980D01*
X83421370Y59364980D01*
X94924980D01*
X95559980Y58729980D01*
X96849970D01*
X99519970D01*
X100949990Y57299990D01*
Y55649980D01*
X103499970Y53100000D01*
Y51249990D01*
X106179980Y48569980D01*
X107299990D01*
X96849970Y76509980D02*
X95559980D01*
X94924980Y77144980D01*
X83335680D01*
X82700680Y76509980D01*
X79024990D01*
X112379990Y63809980D02*
X110939990Y65249990D01*
X106399990D01*
X103349990Y68299990D01*
Y72299980D01*
X101499980Y74149990D01*
Y74499980D01*
X99489970Y76509980D01*
X96849970D01*
X96849970Y77779980D02*
X95559980D01*
X94924980Y78414980D01*
X83220490D01*
X82585490Y77779980D01*
X79024990D01*
X107299990Y66349980D02*
X106099990D01*
X103649990Y68799990D01*
Y72649970D01*
X101999980Y74299980D01*
Y74899980D01*
X99119970Y77779980D01*
X96849970D01*
X96849970Y79049980D02*
X95559980D01*
X94924980Y79684980D01*
X83152490D01*
X82517490Y79049980D01*
X79024990D01*
X109839990Y66349980D02*
X108739990Y67449980D01*
X106149980D01*
X103949990Y69649980D01*
Y72949970D01*
X102299980Y74599980D01*
Y75749990D01*
X98999980Y79049980D01*
X96849970D01*
X96849970Y80319980D02*
X95559980D01*
X94924980Y80954980D01*
X83086070D01*
X82451070Y80319980D01*
X79024990D01*
X112379990Y66349980D02*
X110929980Y67799990D01*
X106349980D01*
X104249980Y69899990D01*
Y73249970D01*
X102599980Y74899980D01*
Y76699980D01*
X98979990Y80319980D01*
X96849970D01*
X96849970Y81589980D02*
X95559980D01*
X94924980Y82224980D01*
X83143680D01*
X82508680Y81589980D01*
X79024990D01*
X107299990Y68889980D02*
X106209980D01*
X104549980Y70549980D01*
Y73599980D01*
X102899970Y75249990D01*
Y77699970D01*
X100649990Y79949980D01*
Y80249980D01*
X99309990Y81589980D01*
X96849970D01*
X64464970Y72699980D02*
X67104970D01*
X109839990Y53649980D02*
X108739990Y54749980D01*
X106149980D01*
X103049990Y57849980D01*
Y62899980D01*
X100049990Y65899970D01*
Y67549980D01*
X99349970Y68249980D01*
X70235470D01*
X67104970Y71380480D01*
Y72699980D01*
X64464970Y73969980D02*
X72724980D01*
X112379990Y53649980D02*
X110929980Y55099990D01*
X106249980D01*
X103349990Y57999990D01*
Y63099980D01*
X100349990Y66099970D01*
Y67749980D01*
X99549990Y68549980D01*
X76819990D01*
X74858980Y70510990D01*
Y73715980D01*
X74604980Y73969980D01*
X72724980D01*
X64464970Y75239980D02*
X72724980D01*
X107299990Y56189980D02*
X106209980D01*
X103649990Y58750000D01*
Y63349990D01*
X100649990Y66349980D01*
Y67949980D01*
X99749990Y68849980D01*
X77169980D01*
X75239980Y70779970D01*
Y74604980D01*
X74604980Y75239980D01*
X72724980D01*
X64464970Y76509980D02*
X72724980D01*
X109839990Y56189980D02*
X108679970Y57349980D01*
X105749980D01*
X103949990Y59150000D01*
Y63599980D01*
X100949990Y66599970D01*
Y68199990D01*
X99999980Y69149980D01*
X77469980D01*
X75620980Y70998970D01*
Y75493980D01*
X74604980Y76509980D01*
X72724980D01*
X64464970Y77779980D02*
X72724980D01*
X112379990Y56189980D02*
X110919970Y57649980D01*
X106049980D01*
X104249980Y59450000D01*
Y63799980D01*
X101249990Y66799970D01*
Y68349980D01*
X100149990Y69449980D01*
X77719990D01*
X76001980Y71167980D01*
Y76382980D01*
X74604980Y77779980D01*
X72724980D01*
X79024990Y59999980D02*
X79938980D01*
Y60431780D01*
X83240980D01*
X83446980Y60634980D01*
X94924980D01*
X95559980Y59999980D01*
X96849970D01*
X99399980D01*
X101249990Y58149980D01*
Y55799990D01*
X103799970Y53249980D01*
Y51849990D01*
X105949980Y49699980D01*
X108709970D01*
X109839990Y48569980D01*
X64464970Y79049980D02*
X72724980D01*
X107299990Y58729980D02*
X105969970D01*
X104549980Y60149970D01*
Y63999980D01*
X101549990Y66999970D01*
Y68549980D01*
X100349990Y69749980D01*
X77969980D01*
X76382980Y71336970D01*
Y77271980D01*
X74604980Y79049980D01*
X72724980D01*
X64464970Y80319980D02*
X72724980D01*
X109839990Y58729980D02*
X108569990Y59999980D01*
X106699990D01*
X104849980Y61849990D01*
Y64249990D01*
X101849990Y67249980D01*
Y68749980D01*
X100549990Y70049980D01*
X78219990D01*
X76763980Y71505980D01*
Y78160980D01*
X74604980Y80319980D01*
X72724980D01*
X64464970Y81589980D02*
X72724980D01*
X109839990Y61269980D02*
X108709970Y62399980D01*
X106049980D01*
X105149980Y63299980D01*
Y64399980D01*
X102149990Y67399970D01*
Y68999990D01*
X100799980Y70349980D01*
X78469980D01*
X77144980Y71674990D01*
Y79049980D01*
X74604980Y81589980D01*
X72724980D01*
X79024990Y61269980D02*
X79938980D01*
Y61752580D01*
X83113980D01*
X83267780Y61904980D01*
X94924980D01*
X95559980Y61269980D01*
X96849970D01*
X99329980D01*
X101549990Y59050000D01*
Y55949980D01*
X104099970Y53400000D01*
Y51999970D01*
X106099990Y49999980D01*
X110949970D01*
X112379990Y48569980D01*
X79024990Y62539980D02*
X79938980D01*
Y63022580D01*
X82986980D01*
X83139790Y63174980D01*
X94924980D01*
X95559980Y62539980D01*
X96849970D01*
X99409990D01*
X101849990Y60099980D01*
Y56249980D01*
X104399970Y53700000D01*
Y52700000D01*
X105989990Y51109980D01*
X107299990D01*
X79024990Y63809980D02*
X79938980D01*
Y64241780D01*
X82986980D01*
X83190970Y64444980D01*
X94924980D01*
X95559980Y63809980D01*
X96849970D01*
X99439990D01*
X102149990Y61099980D01*
Y56549980D01*
X104699970Y54000000D01*
Y53500000D01*
X105949980Y52249990D01*
X108699990D01*
X109839990Y51109980D01*
X79024990Y65079980D02*
X79938980D01*
Y65511780D01*
X82986980D01*
X83190970Y65714980D01*
X94924980D01*
X95559980Y65079980D01*
X96849970D01*
X99269980D01*
X102449990Y61899980D01*
Y56799990D01*
X105049980Y54200000D01*
Y53649980D01*
X106149980Y52549990D01*
X110939990D01*
X112379990Y51109980D01*
X79024990Y66349980D02*
X79938980D01*
Y66781780D01*
X82986980D01*
X83190970Y66984980D01*
X94924980D01*
X95559980Y66349980D01*
X96849970D01*
X99049970D01*
X102749990Y62649990D01*
Y57099990D01*
X106199990Y53649980D01*
X107299990D01*
X64464970Y57459980D02*
X67104970D01*
X109839990Y38409980D02*
X108749980Y39499970D01*
X105949980D01*
X100799980Y44649980D01*
Y51199980D01*
X99099980Y52900000D01*
X76749990D01*
X73199980Y56449980D01*
X71349970D01*
X70849980Y55949980D01*
X67454990D01*
X67104970Y56299990D01*
Y57459980D01*
X86649970Y87939980D02*
X79024990D01*
X112379990Y76509980D02*
X110939990Y77949990D01*
X106299990D01*
X105599970Y78649980D01*
Y79649980D01*
X103349990Y81899990D01*
Y84899990D01*
X99674990Y88574980D01*
X88574980D01*
X87939980Y87939980D01*
X86649970D01*
X54264990Y89209980D02*
X55554980D01*
X56189980Y89844980D01*
X67636490D01*
X68271490Y89209980D01*
X72724980D01*
X112379990Y68889980D02*
X110919970Y70349980D01*
X106199990D01*
X105149980Y71399990D01*
Y74199980D01*
X103499970Y75849990D01*
Y78199970D01*
X101249990Y80449980D01*
Y82599990D01*
X100049990Y83799990D01*
X76809980D01*
X74858980Y85750990D01*
Y88955980D01*
X74604980Y89209980D01*
X72724980D01*
X54264990Y90479980D02*
X55554980D01*
X56189980Y91114980D01*
X67574980D01*
X68209980Y90479980D01*
X72724980D01*
X107299990Y71429980D02*
X106019980D01*
X105449980Y71999990D01*
Y74499980D01*
X103799970Y76149990D01*
Y78399970D01*
X101549990Y80649980D01*
Y82849980D01*
X100299980Y84099990D01*
X77159970D01*
X75239980Y86019970D01*
Y89844980D01*
X74604980Y90479980D01*
X72724980D01*
X54264990Y91749980D02*
X55554980D01*
X56189980Y92384980D01*
X67718380D01*
X68353380Y91749980D01*
X72724980D01*
X109839990Y71429980D02*
X108719980Y72549970D01*
X106299990D01*
X105749980Y73099980D01*
Y74799980D01*
X104099970Y76449990D01*
Y78599970D01*
X101849990Y80849980D01*
Y83049980D01*
X100499980Y84399990D01*
X77459970D01*
X75620980Y86238970D01*
Y90733980D01*
X74604980Y91749980D01*
X72724980D01*
X54264990Y93019980D02*
X55554980D01*
X56189980Y93654980D01*
X67841270D01*
X68476270Y93019980D01*
X72724980D01*
X112379990Y71429980D02*
X110959980Y72849970D01*
X106449980D01*
X106049980Y73249970D01*
Y75099980D01*
X104399970Y76749990D01*
Y78799970D01*
X102149990Y81049980D01*
Y83299990D01*
X100749990Y84699990D01*
X77709980D01*
X76001980Y86407980D01*
Y91622980D01*
X74604980Y93019980D01*
X72724980D01*
X54264990Y94289980D02*
X55554980D01*
X56189980Y94924980D01*
X68005070D01*
X68640070Y94289980D01*
X72724980D01*
X109839990Y73969980D02*
X108609970Y75199980D01*
X106549980D01*
X104699970Y77049990D01*
Y78999970D01*
X102449990Y81249980D01*
Y83549980D01*
X100999980Y84999980D01*
X77959990D01*
X76382980Y86576970D01*
Y92511980D01*
X74604980Y94289980D01*
X72724980D01*
X54264990Y95559980D02*
X55554980D01*
X56189980Y96194980D01*
X67841270D01*
X68476270Y95559980D01*
X72724980D01*
X107299990Y76509980D02*
X106199990D01*
X104999970Y77709980D01*
Y79199970D01*
X102749990Y81449980D01*
Y83749970D01*
X101199980Y85299980D01*
X78209980D01*
X76763980Y86745980D01*
Y93400980D01*
X74604980Y95559980D01*
X72724980D01*
X54264990Y96829980D02*
X55554980D01*
X56189980Y97464980D01*
X67882190D01*
X68517190Y96829980D01*
X72724980D01*
X109839990Y76509980D02*
X108699990Y77649990D01*
X105949980D01*
X105299970Y78299970D01*
Y79399970D01*
X103049990Y81649980D01*
Y83999990D01*
X101449990Y85599980D01*
X78459990D01*
X77144980Y86914990D01*
Y94289980D01*
X74604980Y96829980D01*
X72724980D01*
X86649970Y103179980D02*
X85247480D01*
X84910070Y103517370D01*
X81070070D01*
X80732680Y103179980D01*
X79024990D01*
X112379990Y91749980D02*
X110929980Y93199990D01*
X106199990D01*
X104149980Y95249980D01*
Y99264980D01*
X99599980Y103814980D01*
X88574980D01*
X87939980Y103179980D01*
X86649970D01*
X86649970Y104449980D02*
X79024990D01*
X107299990Y94289980D02*
X106159990D01*
X104449980Y95999990D01*
Y100249990D01*
X99614990Y105084980D01*
X88574980D01*
X87939980Y104449980D01*
X86649970D01*
X86649970Y105719980D02*
X79024990D01*
X109839990Y94289980D02*
X108679970Y95449980D01*
X106199990D01*
X104749980Y96899990D01*
Y101149990D01*
X99544990Y106354980D01*
X88574980D01*
X87939980Y105719980D01*
X86649970D01*
X86649970Y89209980D02*
X79024990D01*
X107299990Y79049980D02*
X106199990D01*
X105899990Y79349980D01*
Y79899970D01*
X103649990Y82149980D01*
Y85699980D01*
X99504990Y89844980D01*
X88574980D01*
X87939980Y89209980D01*
X86649970D01*
X86649970Y106989980D02*
X79024990D01*
X112379990Y94289980D02*
X110919970Y95749980D01*
X106399990D01*
X105049980Y97099990D01*
Y102049990D01*
X99474990Y107624980D01*
X88574980D01*
X87939980Y106989980D01*
X86649970D01*
X86649970Y108259980D02*
X79024990D01*
X107299990Y96829980D02*
X106219980D01*
X105349980Y97699980D01*
Y102999970D01*
X99454970Y108894980D01*
X88574980D01*
X87939980Y108259980D01*
X86649970D01*
X86649970Y109529980D02*
X79024990D01*
X109839990Y96829980D02*
X108719980Y97949970D01*
X106499990D01*
X105649980Y98799980D01*
Y103949990D01*
X99434980Y110164980D01*
X88574980D01*
X87939980Y109529980D01*
X86649970D01*
X86649970Y110799980D02*
X79024990D01*
X112379990Y96829980D02*
X110959980Y98249970D01*
X106699990D01*
X105949980Y98999980D01*
Y104499970D01*
X101199980Y109249970D01*
Y109749970D01*
X99514990Y111434980D01*
X88574980D01*
X87939980Y110799980D01*
X86649970D01*
X86649970Y112069980D02*
X79024990D01*
X109839990Y99369980D02*
X108759980Y100449990D01*
X106849980D01*
X106249980Y101049990D01*
Y105099970D01*
X101849990Y109499990D01*
Y110349970D01*
X99494980Y112704980D01*
X88574980D01*
X87939980Y112069980D01*
X86649970D01*
X54264990Y103179980D02*
X55554980D01*
X56189980Y103814980D01*
X65714980D01*
X66349980Y103179980D01*
X67104970D01*
X109839990Y84129980D02*
X108719980Y85249970D01*
X106199990D01*
X105749980Y85699980D01*
Y87549990D01*
X101699980Y91599970D01*
Y97449970D01*
X100449990Y98699980D01*
X76499980D01*
X73749970Y101449990D01*
X67691490D01*
X67104970Y102036480D01*
Y103179980D01*
X54264990Y104449980D02*
X55554980D01*
X56189980Y105084980D01*
X67761890D01*
X68396890Y104449980D01*
X72724980D01*
X112379990Y84129980D02*
X110959980Y85549970D01*
X106449980D01*
X106049980Y85949970D01*
Y87699980D01*
X101999980Y91749980D01*
Y97649970D01*
X100649990Y98999980D01*
X76849990D01*
X75067770Y100782170D01*
Y103987170D01*
X74604980Y104449980D01*
X72724980D01*
X54264990Y105719980D02*
X55554980D01*
X56189980Y106354980D01*
X67953890D01*
X68588890Y105719980D01*
X72724980D01*
X109839990Y86669980D02*
X108559980Y87949990D01*
X106249980D01*
X102299980Y91899970D01*
Y97849970D01*
X100849990Y99299980D01*
X77199980D01*
X75367770Y101132190D01*
Y104957170D01*
X74604980Y105719980D01*
X72724980D01*
X54264990Y106989980D02*
X55554980D01*
X56189980Y107624980D01*
X67953890D01*
X68588890Y106989980D01*
X72724980D01*
X107299990Y89209980D02*
X106089990D01*
X102649990Y92649980D01*
Y98049970D01*
X101099980Y99599980D01*
X77499970D01*
X75667770Y101432180D01*
Y105927170D01*
X74604980Y106989980D01*
X72724980D01*
X54264990Y108259980D02*
X55554980D01*
X56189980Y108894980D01*
X67896290D01*
X68531290Y108259980D01*
X72724980D01*
X109839990Y89209980D02*
X108699990Y90349990D01*
X106049980D01*
X102949990Y93449980D01*
Y98299980D01*
X101349990Y99899980D01*
X77749990D01*
X75967770Y101682170D01*
Y106897170D01*
X74604980Y108259980D01*
X72724980D01*
X86649970Y90479980D02*
X79024990D01*
X109839990Y79049980D02*
X108689980Y80199970D01*
X106099990D01*
X103949990Y82349980D01*
Y86649970D01*
X99484970Y91114980D01*
X88574980D01*
X87939980Y90479980D01*
X86649970D01*
X54264990Y109529980D02*
X55554980D01*
X56189980Y110164980D01*
X67723490D01*
X68358490Y109529980D01*
X72724980D01*
X112379990Y89209980D02*
X110939990Y90649990D01*
X106299990D01*
X103249990Y93699990D01*
Y98499980D01*
X101549990Y100199980D01*
X77999970D01*
X76326980Y101872980D01*
Y107807990D01*
X74604980Y109529980D01*
X72724980D01*
X54264990Y110799980D02*
X55554980D01*
X56189980Y111434980D01*
X67742690D01*
X68377690Y110799980D01*
X72724980D01*
X107299990Y91749980D02*
X106199990D01*
X103549990Y94399990D01*
Y98749970D01*
X101799980Y100499980D01*
X78249990D01*
X76626980Y102122990D01*
Y108777990D01*
X74604980Y110799980D01*
X72724980D01*
X54264990Y112069980D02*
X55554980D01*
X56189980Y112704980D01*
X67857880D01*
X68492880Y112069980D01*
X72724980D01*
X109839990Y91749980D02*
X108739990Y92849980D01*
X105899990D01*
X103849990Y94899990D01*
Y98999980D01*
X102049990Y100799980D01*
X78499970D01*
X76926980Y102372980D01*
Y109747990D01*
X74604980Y112069980D01*
X72724980D01*
X86649970Y91749980D02*
X79024990D01*
X112379990Y79049980D02*
X110929980Y80499990D01*
X106299990D01*
X104249980Y82549980D01*
Y86799980D01*
X100149990Y90899970D01*
Y91729970D01*
X99494980Y92384980D01*
X88574980D01*
X87939980Y91749980D01*
X86649970D01*
X86649970Y93019980D02*
X79024990D01*
X107299990Y81589980D02*
X106109980D01*
X104549980Y83149980D01*
Y86949990D01*
X100449990Y91049990D01*
Y92549980D01*
X99344990Y93654980D01*
X88574980D01*
X87939980Y93019980D01*
X86649970D01*
X86649970Y94289980D02*
X79024990D01*
X109839990Y81589980D02*
X108679970Y82749980D01*
X106149980D01*
X104849980Y84049970D01*
Y87099980D01*
X100749990Y91199970D01*
Y93524990D01*
X99349970Y94924980D01*
X88574980D01*
X87939980Y94289980D01*
X86649970D01*
X86649970Y95559980D02*
X79024990D01*
X112379990Y81589980D02*
X110919970Y83049980D01*
X106299990D01*
X105149980Y84199990D01*
Y87249990D01*
X101049990Y91349980D01*
Y94344980D01*
X99199980Y96194980D01*
X88574980D01*
X87939980Y95559980D01*
X86649970D01*
X86649970Y96829980D02*
X79024990D01*
X107299990Y84129980D02*
X105969970D01*
X105449980Y84649970D01*
Y87399980D01*
X101349990Y91499970D01*
Y95214980D01*
X99099980Y97464980D01*
X88574980D01*
X87939980Y96829980D01*
X86649970D01*
X54264990Y87939980D02*
X55554980D01*
X56189980Y88574980D01*
X65714980D01*
X66349980Y87939980D01*
X67104970D01*
X109839990Y68889980D02*
X108679970Y70049980D01*
X105799990D01*
X104849980Y70999990D01*
Y73899980D01*
X103199970Y75549990D01*
Y77949990D01*
X100949990Y80199970D01*
Y82349980D01*
X99799980Y83499990D01*
X70354370D01*
X67104970Y86749380D01*
Y87939980D01*
X51624990Y28884980D02*
X53006090D01*
X53927680Y27963400D01*
Y24405800D01*
X54810480Y23522990D01*
X63054490D01*
X63731470Y24199980D01*
X64634980D01*
X64464970Y86669980D02*
X62539980D01*
X64464970Y101909980D02*
X62539980D01*
X64634980Y27309980D02*
Y24199980D01*
X96849970Y86669980D02*
X94924980D01*
X96849970Y101909980D02*
X94924980D01*
X112379990Y25709980D02*
X114149990Y23939990D01*
Y18978980D01*
X109149970Y13978990D01*
Y4999990D01*
X105699970Y1549990D01*
X53200000D01*
X64649990Y24199980D02*
X64634980D01*
X74649990Y99249970D02*
X68749980D01*
X66089990Y101909980D01*
X64464970D01*
X94924980Y101909980D02*
X89356590D01*
X88715570Y102550980D01*
X85422080D01*
X84897290Y103075790D01*
X81157090D01*
X80591280Y102544980D01*
X79430980D01*
X78795980Y101909980D01*
X12464980Y39724990D02*
X15253790D01*
X12464980Y60044990D02*
X15253790D01*
X12464980Y80364990D02*
X15253790D01*
X12464980Y100684990D02*
X15088390D01*
X15636390Y100136990D01*
X17052190D01*
X62034980Y27309980D02*
Y28851380D01*
X61887990Y28998400D01*
X55399690D01*
X54120490Y30277590D01*
X42048480D01*
X41449980Y29679090D01*
Y25708490D01*
X40546580Y24805080D01*
X37464290D01*
X36532490Y25736880D01*
Y29285080D01*
X33813780Y32003800D01*
X24987000D01*
X22055790Y34934980D01*
X17309390D01*
X42199990Y16819980D02*
X44299990D01*
Y16799990D01*
X43610000Y26344980D02*
X42454980D01*
X42499990Y26299980D01*
Y26399980D01*
X42349980D01*
X109839990Y23169980D02*
X108583680Y21913670D01*
Y16958800D01*
X106399990Y14775080D01*
Y8250000D01*
X104749980Y6599990D01*
Y3799990D01*
X103799970Y2849980D01*
X55899990D01*
X55499990Y3249980D01*
X46350000D01*
X81259990Y43934990D02*
X83099990D01*
Y43949980D01*
X83199990D01*
X96804990Y41584980D02*
X94749980D01*
Y41600000D01*
X107299990Y30789980D02*
X105859990D01*
X104049980Y32599990D01*
Y36629600D01*
X99094570Y41584980D01*
X96804990D01*
X81259990Y45234990D02*
X83384980D01*
X84497470Y46347480D01*
Y47392800D01*
X88204680Y51099980D01*
X92549980D01*
X93549980Y50099980D01*
Y45599990D01*
X95024980Y44124980D01*
X96804990D01*
X112379990Y30789980D02*
X110919970Y32249980D01*
X106349980D01*
X104649980Y33950000D01*
Y36949990D01*
X98999980Y42599990D01*
Y43670880D01*
X98545880Y44124980D01*
X96804990D01*
X81259990Y41984980D02*
X82934990D01*
X84861680Y43911670D01*
Y47219390D01*
X88117280Y50474980D01*
X90504980D01*
X112379990Y28249980D02*
X110929980Y29699990D01*
X106249980D01*
X103749990Y32199990D01*
Y36487180D01*
X99537190Y40700000D01*
X94549980D01*
X93949980Y41300000D01*
Y44449980D01*
X93249980Y45149980D01*
Y49599980D01*
X92374980Y50474980D01*
X90504980D01*
X58729980Y24573990D02*
Y25798990D01*
X59059980Y31584980D02*
X60984970D01*
X61716190D01*
X65857270Y35726090D01*
Y36391670D01*
X67121890Y37656290D01*
X61523980Y24573990D02*
X60307880D01*
X59992290Y24889590D01*
Y26077400D01*
X65934970Y27309980D02*
Y29502690D01*
X60245780Y20332780D02*
X62301380D01*
X63709370Y21740780D01*
X65905890D01*
X66131190Y21966070D01*
Y24021800D01*
X65934970Y24217990D01*
Y27309980D01*
X81259990Y37434980D02*
X82934990D01*
X83099990Y37599980D01*
X86363690D01*
X87226090Y38462380D01*
Y42876090D01*
X88474980Y44124980D01*
X90504980D01*
X107299990Y25709980D02*
X105689990D01*
X102849990Y28549980D01*
Y36036790D01*
X99086770Y39800000D01*
X93999990D01*
X93049980Y40749980D01*
Y43349980D01*
X92274980Y44124980D01*
X90504980D01*
X81259990Y39384990D02*
X83034990D01*
X85875880Y42225880D01*
Y45699170D01*
X88111690Y47934980D01*
X90504980D01*
X107299990Y28249980D02*
X106099990D01*
X103149990Y31199990D01*
Y36190790D01*
X99240770Y40100000D01*
X94199990D01*
X93349980Y40949980D01*
Y43999990D01*
X92649980Y44699990D01*
Y47422690D01*
X92137690Y47934980D01*
X90504980D01*
X81259990Y40684990D02*
X82934990D01*
X85417280Y43167280D01*
Y46571790D01*
X88050470Y49204980D01*
X90504980D01*
X109839990Y28249980D02*
X108739990Y29349980D01*
X105799990D01*
X103449990Y31699990D01*
Y36333180D01*
X99383190Y40400000D01*
X94399990D01*
X93649980Y41149980D01*
Y44199990D01*
X92949980Y44899990D01*
Y48449990D01*
X92194990Y49204980D01*
X90504980D01*
X51624990Y26344980D02*
X52849990D01*
Y26349990D01*
X52400000Y21899980D02*
X54100000D01*
X112379990Y23169980D02*
X113699980Y21850000D01*
Y19359980D01*
X108599990Y14259990D01*
Y5549980D01*
X105299970Y2249990D01*
X52349990D01*
X81259990Y44584980D02*
X79499970D01*
Y44599990D01*
X79299970D01*
X96804990Y42854980D02*
X94749980D01*
Y42849980D01*
X109839990Y30789980D02*
X108679970Y31949980D01*
X105849980D01*
X104349980Y33450000D01*
Y36799980D01*
X98678980Y42470990D01*
Y42744290D01*
X98568280Y42854980D01*
X96804990D01*
X81259990Y45884980D02*
X83434990D01*
X83923080Y46373090D01*
Y47304780D01*
X88018290Y51399980D01*
X92848690D01*
X93849980Y50398680D01*
Y46650000D01*
X95104990Y45394980D01*
X96804990D01*
X109839990Y33329980D02*
X108569990Y34599980D01*
X106299990D01*
X104949980Y35949990D01*
Y37099980D01*
X99299980Y42749980D01*
Y44652590D01*
X98557590Y45394980D01*
X96804990D01*
X42199990Y18089980D02*
X45299990D01*
Y18099990D01*
X43610000Y28884980D02*
X42399990D01*
Y28900000D01*
X42349980D01*
X47350000Y4649980D02*
Y4599990D01*
X47399980Y4649980D01*
X101749990D01*
D11*
X9199980Y42975000D02*
X7699990D01*
Y42989990D01*
X9199980Y63294970D02*
X7699990D01*
Y63309990D01*
X9199980Y83614970D02*
X7699990D01*
Y83629990D01*
X9199980Y103934970D02*
X7699990D01*
Y103949990D01*
X12464980Y43724980D02*
X11034980D01*
X10285000Y42975000D01*
X9199980D01*
X12464980Y64044980D02*
X11034980D01*
X10285000Y63294970D01*
X9199980D01*
X12464980Y84364980D02*
X11034980D01*
X10285000Y83614970D01*
X9199980D01*
X12464980Y104684980D02*
X11034980D01*
X10285000Y103934970D01*
X9199980D01*
X12704980Y6584980D02*
Y5099990D01*
X12699980D01*
X15670000Y28884980D02*
X14400000D01*
Y28900000D01*
X22204990Y6584980D02*
Y5099990D01*
X22199980D01*
X23714990Y44524980D02*
X24984990D01*
X25734980Y45274990D01*
X26979980D01*
X23714990Y64844980D02*
X24984990D01*
X25734980Y65594970D01*
X26979980D01*
X23714990Y85164980D02*
X24984990D01*
X25734980Y85914970D01*
X26979980D01*
X23714990Y105484980D02*
X24984990D01*
X25734980Y106234970D01*
X26979980D01*
X26979980Y45274990D02*
X28500000D01*
Y45289980D01*
X26979980Y65594970D02*
X28500000D01*
Y65609980D01*
X26979980Y85914970D02*
X28500000D01*
Y85929980D01*
X26979980Y106234970D02*
X28500000D01*
Y106249980D01*
X29640000Y28884980D02*
X28370000D01*
Y28900000D01*
X30540000Y6584980D02*
Y8250000D01*
X30549980D01*
X33209990Y47934980D02*
Y46450000D01*
X33149970D01*
X33209990Y58094980D02*
X34450000D01*
Y58099990D01*
X33209990Y73334980D02*
X34499980D01*
Y73349970D01*
X36129980Y54919980D02*
X34450000D01*
Y54899990D01*
X36129980Y66349980D02*
X34450000D01*
X36129980Y70159980D02*
X37849990D01*
Y70149980D01*
X39044980Y16064990D02*
Y17199990D01*
X39049990D01*
Y17299990D01*
X39574980Y55264990D02*
X37925170D01*
X37580190Y54919980D01*
X36129980D01*
X42199990Y15549980D02*
X40800000D01*
X40284990Y16064990D01*
X39044980D01*
X42199990Y23169980D02*
X40500000D01*
Y23149990D01*
X44639990Y58094980D02*
X45899990D01*
Y58099990D01*
X47559980Y68889980D02*
X49249990D01*
Y68899990D01*
X48674990Y55264990D02*
Y56499990D01*
X48649990D01*
Y56549980D01*
X51744980Y58609990D02*
Y59872980D01*
X51744980Y73849970D02*
Y75112980D01*
X51744980Y89089970D02*
Y90352980D01*
X51744980Y104329970D02*
Y105592980D01*
X52400000Y15549980D02*
X50699980D01*
X55554980Y40194990D02*
X54049980D01*
Y40200000D01*
X55935980Y24573990D02*
Y25798990D01*
X57974990Y8564980D02*
X60499980D01*
Y8550000D01*
X59059980Y32234990D02*
X57099990D01*
Y32249980D01*
X59059980Y40034970D02*
X55714980D01*
X55554980Y40194990D01*
X59059980Y45884980D02*
X57099990D01*
Y45899990D01*
X63679990Y7294980D02*
X62199980D01*
Y7299990D01*
X63984990Y27309980D02*
Y25299980D01*
X63999980D01*
X64464970Y67619980D02*
X66222980D01*
X64464970Y82859980D02*
X66222980D01*
X64464970Y98099980D02*
X66222980D01*
X64464970Y113339980D02*
X66222980D01*
X64819990Y18089980D02*
X66059990D01*
X66599970Y17549980D01*
Y15900000D01*
X66229970Y15529990D01*
Y13644980D01*
X65284990Y49509990D02*
Y47450000D01*
X65299970D01*
X66229970Y13644980D02*
X67499970D01*
Y13649990D01*
X69404970Y87939980D02*
X70629990D01*
X69404970Y103179980D02*
X70629990D01*
X70419980Y20629980D02*
X72099990D01*
Y20650000D01*
X71134990Y27309980D02*
Y25664980D01*
X71944970Y24854990D01*
Y23804980D01*
X71784970Y49509990D02*
Y53014980D01*
X71944970D01*
X71944970Y23804980D02*
Y22250000D01*
X71949970D01*
X71944970Y53014980D02*
Y54549980D01*
X71949970D01*
X72724980Y87939980D02*
X70629990D01*
X72724980Y103179980D02*
X70629990D01*
X76334980Y27309980D02*
Y29384980D01*
X76499980Y29549980D01*
X76984990D01*
X76984990Y27309980D02*
Y29549980D01*
X77634980Y27309980D02*
Y29414980D01*
X77499970Y29549980D01*
X76999980D01*
X77634980Y49509990D02*
Y47550000D01*
X77649990D01*
X81259990Y33534990D02*
X83299990D01*
Y33550000D01*
X81259990Y36784990D02*
X83214970D01*
X83374970Y36625000D01*
X84764980D01*
X81259990Y43284980D02*
X79299970D01*
Y43299990D01*
X81963970Y56189980D02*
X80738980D01*
X81963970Y71429980D02*
X79811980D01*
X81963970Y86669980D02*
X79811980D01*
X81963970Y101909980D02*
X79684980D01*
X84644970Y16819980D02*
X85829980D01*
X85899980Y16749980D01*
Y16849980D01*
X84644970Y20629980D02*
X85899980D01*
Y20650000D01*
X84764980Y36625000D02*
X86249970D01*
Y36599980D01*
X87954970Y10469980D02*
X89649990D01*
Y10449990D01*
X87954970Y21264980D02*
X86514990D01*
X85899980Y20650000D01*
X96849970Y67619980D02*
X98607980D01*
X96849970Y82859980D02*
X98607980D01*
X96849970Y98099980D02*
X98607980D01*
X96849970Y113339980D02*
X98607980D01*
X99354970Y10469980D02*
X101049990D01*
Y10449990D01*
X99354970Y21264980D02*
X101049990D01*
Y21250000D01*
X107584980Y9199980D02*
Y10599980D01*
X107599990D01*
X76999980Y29549980D02*
X76984990D01*
X9199980Y45274990D02*
X7699990D01*
Y45289980D01*
X9199980Y65594970D02*
X7699990D01*
Y65609980D01*
X9199980Y85914970D02*
X7699990D01*
Y85929980D01*
X9199980Y106234970D02*
X7699990D01*
Y106249980D01*
X12464980Y44524980D02*
X11064980D01*
X10314990Y45274990D01*
X9199980D01*
X12464980Y64844980D02*
X11064980D01*
X10314990Y65594970D01*
X9199980D01*
X12464980Y85164980D02*
X11064980D01*
X10314990Y85914970D01*
X9199980D01*
X12464980Y105484980D02*
X11064980D01*
X10314990Y106234970D01*
X9199980D01*
X17705000Y6584980D02*
Y5099990D01*
X17699990D01*
X17705000Y25784990D02*
Y27104980D01*
X17969990Y27369980D01*
Y28884980D01*
X19239990D01*
Y28870000D01*
X23714990Y43724980D02*
X24914990D01*
X25664980Y42975000D01*
X26979980D01*
X23714990Y64044980D02*
X24914990D01*
X25664980Y63294970D01*
X26979980D01*
X23714990Y84364980D02*
X24914990D01*
X25664980Y83614970D01*
X26979980D01*
X23714990Y104684980D02*
X24914990D01*
X25664980Y103934970D01*
X26979980D01*
X26979980Y42975000D02*
X28500000D01*
Y42989990D01*
X26979980Y63294970D02*
X28500000D01*
Y63309990D01*
X26979980Y83614970D02*
X28500000D01*
Y83629990D01*
X26979980Y103934970D02*
X28500000D01*
Y103949990D01*
X30529990Y51109980D02*
Y49969980D01*
X30910000Y49590000D01*
Y47934980D01*
X30529990Y61269980D02*
Y60019970D01*
X30910000Y59639990D01*
Y58094980D01*
X30789980Y78414980D02*
Y73454970D01*
X30910000Y73334980D01*
X30910000Y47934980D02*
Y46750000D01*
X30899990D01*
Y46450000D01*
X30910000Y58094980D02*
X29649980D01*
Y58099990D01*
X30910000Y73334980D02*
X29649980D01*
Y73349970D01*
X31040000Y25784990D02*
Y26839980D01*
X31939990Y27739980D01*
Y28884980D01*
X33209990D01*
Y28870000D01*
X36129980Y53649980D02*
X33954600D01*
Y53671680D01*
X36129980Y67619980D02*
X34399980D01*
Y67599970D01*
X39044980Y13765000D02*
Y12544990D01*
X39099980Y12599980D01*
X39044980Y46650000D02*
Y46950000D01*
X41249980D01*
X41959990Y61269980D02*
Y59889980D01*
X42340000Y59509990D01*
Y58094980D01*
X41959990Y63809980D02*
X43649980D01*
Y63799980D01*
X41959990Y65079980D02*
X40249990D01*
Y65099970D01*
X41959990Y67619980D02*
X40249990D01*
Y67599970D01*
X41959990Y68889980D02*
X43649980D01*
Y68899990D01*
X42199990Y14279980D02*
X40779980D01*
X40265000Y13765000D01*
X39044980D01*
X42199990Y19359980D02*
X40500000D01*
Y19349980D01*
X42340000Y58094980D02*
X41100000D01*
Y58099990D01*
X45909990Y26344980D02*
Y26399980D01*
X47650000D01*
X45909990Y28900000D02*
X47650000D01*
X49325000Y26344980D02*
Y26399980D01*
X47650000D01*
X49325000Y28900000D02*
X47650000D01*
X49325000Y31399990D02*
X48099980D01*
X49325000Y33950000D02*
X48099980D01*
X49325000Y36499980D02*
X48099980D01*
X49325000Y39044980D02*
X48099980D01*
Y39049990D01*
X51744980Y56310000D02*
Y56189980D01*
X51744980Y71549970D02*
Y71429980D01*
X51744980Y86789970D02*
Y86669980D01*
X51744980Y102029970D02*
Y101909980D01*
X52400000Y19359980D02*
X50949990D01*
X50699980Y19610000D01*
Y20650000D01*
X52400000Y20629980D02*
X50749990D01*
Y20650000D01*
X50699980D01*
X54264990Y56189980D02*
X51744980D01*
X54264990Y71429980D02*
X51744980D01*
X54264990Y86669980D02*
X51744980D01*
X54264990Y101909980D02*
X51744980D01*
X55554980Y37895000D02*
X54049980D01*
Y37899980D01*
X58729980Y22274000D02*
Y21048980D01*
X59059980Y38084990D02*
X55744980D01*
X55554980Y37895000D01*
X61523980Y22274000D02*
Y21048980D01*
X63929970Y10469980D02*
X62699980D01*
Y10499980D01*
X63929970Y13644980D02*
X62704980D01*
X62699980Y13649990D01*
X64819990Y16819980D02*
Y16019990D01*
X63929970Y15130000D01*
Y13644980D01*
X69404970Y57459980D02*
X70682890D01*
X69404970Y72699980D02*
X70673880D01*
X69644970Y23804980D02*
Y22250000D01*
X69649980D01*
X69834990Y27309980D02*
Y25534980D01*
X69644970Y25344990D01*
Y23804980D01*
X69834990Y49509990D02*
Y53014980D01*
X69649980D01*
X71309970Y7294980D02*
Y10469980D01*
X72549970D01*
Y10449990D01*
X71309970Y13644980D02*
Y10469980D01*
X72724980Y57459980D02*
X70682890D01*
X72724980Y72699980D02*
X70673880D01*
X73084970Y27309980D02*
Y29384980D01*
X73249970Y29549980D01*
X73734980D01*
X73734980Y27309980D02*
Y29549980D01*
X74384970Y27309980D02*
Y29414980D01*
X74249990Y29549980D01*
X73749970D01*
X77264970Y10469980D02*
X75999980D01*
Y10499980D01*
X78284990Y27309980D02*
Y29384980D01*
X78449990Y29549980D01*
X78934970D01*
Y29535000D01*
X78934970Y27309980D02*
Y29535000D01*
X81259990Y29635000D02*
X83249980D01*
Y29649980D01*
X81259990Y30284980D02*
X83114970D01*
X83249980Y30149980D01*
Y29649980D01*
X81259990Y38734980D02*
X83334990D01*
X83524980Y38924990D01*
X84764980D01*
X84263970Y56189980D02*
X86649970D01*
X84263970Y71429980D02*
X86649970D01*
X84263970Y86669980D02*
X86649970D01*
X84263970Y101909980D02*
X86649970D01*
X84644970Y7294980D02*
Y10469980D01*
X85899980D01*
Y10449990D01*
X84644970Y13644980D02*
Y10469980D01*
X84764980Y38924990D02*
X86249970D01*
Y38899980D01*
X86649970Y56189980D02*
X88476180D01*
X86649970Y71429980D02*
X88360990D01*
Y71399990D01*
X86649970Y86669980D02*
X88336580D01*
X86649970Y101909980D02*
X88324970D01*
X90504980Y28884980D02*
X88479990D01*
X90504980Y41584980D02*
X88479990D01*
X51744980Y100766980D02*
Y101909980D01*
X51744980Y56189980D02*
Y55046980D01*
X51744980Y71429980D02*
Y70286980D01*
X51744980Y86669980D02*
Y85526980D01*
X73734980Y29549980D02*
X73749970D01*
X78934970Y29535000D02*
X78949980Y29549980D01*
X69649980Y53014980D02*
Y54500000D01*
D12*
X104704970Y109549970D02*
X103349990D01*
X105204970Y112699980D02*
X103949990D01*
X107504970Y112699980D02*
X108749980D01*
X108004990Y109549970D02*
X109349970D01*
D13*
X76649990Y36899980D03*
X83599990Y18749980D03*
X98829980Y36504980D03*
X90349990Y14500000D03*
X92999970Y7950000D03*
X92349980Y12999980D03*
X97649970D03*
X89649990Y23799980D03*
X94949980D03*
X77549980Y35150000D03*
X98829980Y33964980D03*
X72099990Y19349970D03*
X74849990Y39434970D03*
X77549980Y32949970D03*
X98858170Y30154980D03*
X78449990Y34299980D03*
X98829980Y31424980D03*
X78549980Y35999980D03*
X98829980Y35234980D03*
X50099980Y10449990D03*
X56749970Y30299990D03*
X77597380Y38834970D03*
X98829980Y37774980D03*
X50099980Y95699990D03*
X56949970Y34850000D03*
X47049990Y37799980D03*
Y48349990D03*
X33699990Y2600000D03*
Y8399990D03*
X49199980Y2600000D03*
X53284990Y33534990D03*
X52849990Y35150000D03*
X61449990Y40049990D03*
X54100000Y9199980D03*
X65299970Y25249990D03*
X24749990Y18899990D03*
X25399970Y48061370D03*
Y68859990D03*
Y89179980D03*
Y109499990D03*
X31049980Y23818190D03*
X31449980Y18899990D03*
X44999980Y62549990D03*
Y67619980D03*
X54100000Y12999980D03*
X57332480Y27962890D03*
X70949970Y40635000D03*
X73449970Y5999990D03*
X78408980Y42634990D03*
X86268180Y41253080D03*
X74849990Y7299980D03*
X75649990Y41349980D03*
X49749990Y61299980D03*
X52500000Y98099980D03*
X65350490Y22465590D03*
X69199990Y29649980D03*
X78449990Y32049970D03*
X98858170Y28884980D03*
X3049980Y14900000D03*
Y38109980D03*
Y58429980D03*
Y78749980D03*
Y99099980D03*
X28973880Y95599990D03*
X36349990Y3549980D03*
Y7749970D03*
X54100000Y11749990D03*
X56189980Y57459980D03*
Y72699980D03*
X62649990Y29249980D03*
X72649970Y55799990D03*
X88574980Y57459980D03*
X89244990Y72699980D03*
X39649990Y68899990D03*
X43499990Y59750000D03*
X85849970Y52199970D03*
X94924980Y56189980D03*
X32399990Y39724990D03*
X34099990Y64999970D03*
X50899980Y65099970D03*
X52049990Y113349990D03*
X76449990Y67349980D03*
X78599970Y71399990D03*
X45849970Y63799970D03*
Y69549970D03*
X28527380Y81442590D03*
X32149970Y63799970D03*
X33049970Y62549990D03*
X34799980Y100099980D03*
X37849990Y65099970D03*
X42462100Y32274990D03*
X76462070Y37962180D03*
X83261380Y46646980D03*
X39900000Y3599990D03*
Y20650000D03*
X45576980Y51459790D03*
X76299970Y24749990D03*
X77549980Y3649980D03*
X102549980D03*
X107140580Y17890590D03*
X14324480Y38924990D03*
Y59244990D03*
Y79564970D03*
X15815690Y99205090D03*
X36837080Y13940480D03*
X44985490Y54908190D03*
X56851200Y99823370D03*
X64634980Y52427480D03*
X1800000Y36509980D03*
Y56829990D03*
Y77149990D03*
Y97499990D03*
X11449990Y3884780D03*
X25949980Y9599980D03*
X47699980Y92349980D03*
X25349980Y20199980D03*
X25999980Y49749990D03*
Y69659980D03*
Y89979980D03*
Y96049970D03*
Y110299980D03*
X34049990Y20199980D03*
X34699980Y8350000D03*
X19149970Y38939980D03*
Y51147470D03*
Y71432980D03*
Y91653080D03*
Y96049970D03*
X20906180Y109550070D03*
X33149970Y97549970D03*
X18499990Y38139980D03*
Y58459980D03*
Y78779980D03*
Y99099980D03*
X29149980Y21599980D03*
X29449980Y27399990D03*
X17899990Y37339980D03*
Y57659980D03*
Y77979980D03*
Y98299980D03*
X17249980Y36539990D03*
Y56859980D03*
Y77179990D03*
Y97499990D03*
X16649980Y35739990D03*
Y56059990D03*
Y76379990D03*
Y96699990D03*
X28518390Y57715170D03*
X28767990Y76364980D03*
X28980480Y98346180D03*
X29758690Y35724980D03*
X29798700Y23758090D03*
X32049970Y15274190D03*
Y23799980D03*
X36949990Y34049990D03*
X37917380Y61269980D03*
X30411500Y18177280D03*
X31486680Y30869790D03*
X36249990Y33149970D03*
X37884180Y62539980D03*
X39736300Y63809980D03*
X55057880Y35950100D03*
X2449980Y23599980D03*
Y37309990D03*
Y57629990D03*
Y77949990D03*
Y98299980D03*
X25149990Y8899980D03*
X62908180Y52113580D03*
X63349990Y47499980D03*
X8750000Y27249990D03*
Y37324990D03*
Y54483180D03*
Y57591000D03*
Y77964970D03*
Y98284970D03*
X14149990Y109319080D03*
X24449990Y8150000D03*
X38599980Y112649990D03*
X9350000Y28099990D03*
Y50159990D03*
Y70479970D03*
Y90799970D03*
X14800000Y111099980D03*
X25849980Y27549990D03*
X25949980Y14549990D03*
X37699980Y113249990D03*
X10050000Y28849980D03*
Y50909980D03*
Y71229980D03*
Y91549980D03*
X15500000Y111899980D03*
X27000000Y15300000D03*
Y24099970D03*
X36699980Y113899980D03*
X10699980Y29849980D03*
Y51709980D03*
Y72029980D03*
Y92349980D03*
X16200000Y112699980D03*
X27699990Y16049980D03*
X28049980Y27399990D03*
X30830880Y44581090D03*
X35699980Y114499980D03*
X27849980Y55413790D03*
Y72059980D03*
Y88499970D03*
Y92379980D03*
X27852770Y115967960D03*
X28549980Y16699990D03*
Y24049990D03*
X31649970Y43665880D03*
X26576580Y17372180D03*
X27199990Y51749980D03*
Y71299780D03*
Y87299980D03*
Y91579980D03*
Y111899980D03*
X32999980Y16350690D03*
X33549990Y27249990D03*
X26549990Y19499990D03*
X26599970Y50749980D03*
Y70459980D03*
Y90779980D03*
Y111099980D03*
X34049990Y23799980D03*
X34999980Y19499990D03*
X12399980Y9699980D03*
X19749980Y40539980D03*
Y60859980D03*
Y81179980D03*
Y101499970D03*
X26099970Y2449980D03*
X28349980Y12749980D03*
X76949990Y51449990D03*
X94289980Y58729980D03*
Y73969980D03*
Y87939980D03*
Y103179980D03*
Y113449990D03*
X14700000Y8250000D03*
X20399980Y41339980D03*
Y61659980D03*
Y81979980D03*
Y102299970D03*
X27249990Y3049980D03*
X29149980Y12099980D03*
X76349990Y47549990D03*
X93649980Y114299980D03*
X93654980Y59999980D03*
Y75239980D03*
Y89209980D03*
Y104449980D03*
X6899980Y14099970D03*
Y46909990D03*
Y67229990D03*
Y87549990D03*
X8450000Y108649980D03*
X15649980Y107049980D03*
X60634980Y61269980D03*
Y76509980D03*
Y90479980D03*
Y105719980D03*
X69199990Y47549990D03*
X6299990Y15049990D03*
Y46109990D03*
Y66429990D03*
Y86749990D03*
X7299980Y108549980D03*
X16300000Y106249980D03*
X59999980Y62539980D03*
Y77779980D03*
Y91749980D03*
Y106989980D03*
X68549970Y51449990D03*
X5699990Y16000000D03*
Y42059990D03*
Y62379990D03*
Y82699990D03*
Y102499970D03*
X16899990Y103899970D03*
X59364980Y63809980D03*
Y79049980D03*
Y93019980D03*
Y108259980D03*
X67899990Y47549990D03*
X5099990Y16949980D03*
Y41259990D03*
Y61579990D03*
Y81899990D03*
Y101699980D03*
X17499990Y103099970D03*
X58729980Y65079980D03*
Y80319980D03*
Y94289980D03*
Y109529980D03*
X67249980Y51449990D03*
X4449980Y17949980D03*
Y40409980D03*
Y60729980D03*
Y81049980D03*
Y100899980D03*
X18149970Y102299970D03*
X58094980Y66349980D03*
Y81589980D03*
Y95559980D03*
Y110799980D03*
X66599970Y47549990D03*
X3699990Y18849970D03*
Y39659990D03*
Y59979990D03*
Y80299970D03*
Y100049990D03*
X18143980Y101299970D03*
X57459980Y67619980D03*
Y82859980D03*
Y96829980D03*
Y112069980D03*
X65949980Y51449990D03*
X15700000Y10249990D03*
X21050000Y42139970D03*
Y62459970D03*
Y82779970D03*
Y103099970D03*
X28500000Y3349980D03*
X29849980Y11349990D03*
X75699980Y51449990D03*
X93019980Y61269980D03*
Y76509980D03*
Y90479980D03*
Y105719980D03*
Y115099980D03*
X16699990Y8250000D03*
X21699980Y42940000D03*
Y63259970D03*
Y83579970D03*
Y103899970D03*
X29799990Y3649980D03*
X30599990Y10649990D03*
X30799990Y113549990D03*
X75049990Y47549990D03*
X92384980Y62539980D03*
Y77779980D03*
Y91749980D03*
Y106989980D03*
Y118249980D03*
X18199990Y10249990D03*
X20149970Y45339990D03*
Y65659990D03*
Y85979990D03*
Y106299990D03*
X31049980Y3949980D03*
X31349970Y9950000D03*
X74399980Y51449990D03*
X91749980Y63809980D03*
Y79049980D03*
Y93019980D03*
Y108259980D03*
Y115749990D03*
X19199980Y8250000D03*
X20750000Y46139990D03*
Y66459990D03*
Y86779990D03*
Y107099990D03*
X32049970Y9199980D03*
X32549970Y110249970D03*
X32699980Y3849980D03*
X73749970Y47549990D03*
X91114980Y65079980D03*
Y80319980D03*
Y94289980D03*
Y109529980D03*
Y116649990D03*
X20199980Y10249990D03*
X21350000Y46939990D03*
Y67259990D03*
Y87579990D03*
Y107899990D03*
X32699980Y4849980D03*
Y8399990D03*
X33549990Y110849970D03*
X73099980Y51449990D03*
X90479980Y66349980D03*
Y81589980D03*
Y95559980D03*
Y110799980D03*
Y117549980D03*
X21199980Y8250000D03*
X22050000Y47739990D03*
Y68059990D03*
Y88379980D03*
Y108699990D03*
X34549990Y111449970D03*
X72449970Y47549990D03*
X89844980Y67619980D03*
Y82859980D03*
Y96829980D03*
Y112069980D03*
Y118349980D03*
X8150000Y12049990D03*
Y48509980D03*
Y68829990D03*
Y89149990D03*
X10799980Y108699990D03*
X16799990Y110099990D03*
X61904980Y58729980D03*
Y73969980D03*
Y87939980D03*
Y103179980D03*
X70799980Y51449990D03*
X7499990Y47709990D03*
Y68029990D03*
Y88349990D03*
X7549970Y13099970D03*
X9699980Y108649980D03*
X16799990Y109099990D03*
X61269980Y59999980D03*
Y75239980D03*
Y89209980D03*
Y104449980D03*
X70499990Y47549990D03*
X7699980Y42989990D03*
Y63309990D03*
Y83629980D03*
Y103949990D03*
X12699980Y5099990D03*
X14400000Y28899990D03*
X22199980Y5099990D03*
X28370000Y28899990D03*
X28500000Y45289980D03*
Y65609980D03*
Y85929980D03*
Y106249980D03*
X30549980Y8250000D03*
X33149970Y46449990D03*
X34449990Y54899990D03*
Y58099990D03*
Y66349980D03*
X34499980Y73349970D03*
X37849990Y70149980D03*
X39049990Y17299990D03*
X40500000Y23149990D03*
X45899990Y58099990D03*
X48649990Y56549970D03*
X49249990Y68899990D03*
X50699980Y15549980D03*
X51744980Y59872980D03*
Y75112980D03*
Y90352980D03*
Y105592980D03*
X54049980Y40199990D03*
X55935980Y25798990D03*
X57099990Y32249980D03*
Y45899990D03*
X60499980Y8550000D03*
X62199970Y7299980D03*
X63999970Y25299980D03*
X65299970Y47449990D03*
X66222980Y67619980D03*
Y82859980D03*
Y98099980D03*
Y113339980D03*
X67499970Y13649990D03*
X70629990Y87939980D03*
Y103179980D03*
X71949970Y22250000D03*
Y54549980D03*
X72099990Y20650000D03*
X76999970Y29549980D03*
X77649990Y47549990D03*
X79299970Y43299990D03*
X79684980Y101909980D03*
X79811980Y71429980D03*
Y86669980D03*
X80738980Y56189980D03*
X83299980Y33549990D03*
X85899980Y16849980D03*
Y20650000D03*
X86249970Y36599980D03*
X89649990Y10449990D03*
X98607980Y67619980D03*
Y82859980D03*
Y98099980D03*
Y113339980D03*
X101049990Y10449990D03*
Y21250000D03*
X103349990Y109549970D03*
X103949990Y112699980D03*
X107599990Y10599980D03*
X53200000Y1549990D03*
X62539980Y86669980D03*
Y101909980D03*
X64649990Y24199980D03*
X74649990Y99249970D03*
X78795980Y101909980D03*
X94924980Y86669980D03*
Y101909980D03*
X15253790Y39724990D03*
Y60044990D03*
Y80364990D03*
X17052190Y100136990D03*
X17309390Y34934980D03*
X42349980Y26399970D03*
X44299990Y16799990D03*
X46350000Y3249980D03*
X83199990Y43949980D03*
X94749970Y41600000D03*
X58729980Y25798990D03*
X60984970Y31584970D03*
X67121890Y37656290D03*
X59992290Y26077400D03*
X60245780Y20332780D03*
X65934970Y29502690D03*
X52349990Y2249980D03*
X52849990Y26349980D03*
X54100000Y21899980D03*
X79299970Y44599990D03*
X94749970Y42849980D03*
X7699980Y45289980D03*
Y65609980D03*
Y85929980D03*
Y106249980D03*
X17699990Y5099990D03*
X19239990Y28870000D03*
X28500000Y42989990D03*
Y63309990D03*
Y83629980D03*
Y103949990D03*
X29649980Y58099990D03*
Y73349970D03*
X30899990Y46449990D03*
X33209990Y28870000D03*
X33954600Y53671680D03*
X34399980Y67599970D03*
X39099980Y12599980D03*
X40249980Y65099970D03*
Y67599970D03*
X40500000Y19349970D03*
X41100000Y58099990D03*
X41249980Y46949990D03*
X43649980Y63799970D03*
Y68899990D03*
X47650000Y26399970D03*
Y28899990D03*
X48099980Y31399990D03*
Y33949990D03*
Y36499980D03*
Y39049990D03*
X50699980Y20650000D03*
X51744980Y55046980D03*
Y70286980D03*
Y85526980D03*
Y100766980D03*
X54049980Y37899980D03*
X58729980Y21048980D03*
X61523980D03*
X62699970Y10499980D03*
Y13649990D03*
X69649980Y22250000D03*
Y54500000D03*
X70673880Y72699980D03*
X70682890Y57459980D03*
X72549970Y10449990D03*
X73749970Y29549980D03*
X75999970Y10499980D03*
X78949980Y29549980D03*
X83249970Y29649980D03*
X85899980Y10449990D03*
X86249970Y38899980D03*
X88324970Y101909980D03*
X88336580Y86669980D03*
X88360990Y71399990D03*
X88476180Y56189980D03*
X88479980Y28884980D03*
Y41584980D03*
X108749980Y112699980D03*
X109349970Y109549970D03*
X42349980Y28899990D03*
X45299990Y18099990D03*
X47350000Y4649980D03*
X101749990D03*
D14*
X54919980Y49839980D03*
X84764980Y25074980D03*
D15*
X46029980Y80954980D03*
Y83494980D03*
Y86034980D03*
Y88574980D03*
Y91114980D03*
Y93654980D03*
Y96194980D03*
Y98734980D03*
Y101274980D03*
Y103814980D03*
Y106354980D03*
Y108894980D03*
Y111434980D03*
X30789980D03*
Y108894980D03*
Y106354980D03*
Y103814980D03*
Y101274980D03*
Y98734980D03*
Y96194980D03*
Y93654980D03*
Y91114980D03*
Y88574980D03*
Y86034980D03*
Y83494980D03*
Y80954980D03*
Y78414980D03*
D16*
X112379990Y23169980D03*
Y25709980D03*
Y28249980D03*
Y30789980D03*
Y33329980D03*
Y35869980D03*
Y38409980D03*
Y40949980D03*
Y43489980D03*
Y46029980D03*
Y48569980D03*
Y51109980D03*
Y53649980D03*
Y56189980D03*
Y58729980D03*
Y61269980D03*
Y63809980D03*
Y66349980D03*
Y68889980D03*
Y71429980D03*
Y73969980D03*
Y76509980D03*
Y79049980D03*
Y81589980D03*
Y84129980D03*
Y86669980D03*
Y89209980D03*
Y91749980D03*
Y94289980D03*
Y96829980D03*
Y99369980D03*
X109839990Y23169980D03*
Y25709980D03*
Y28249980D03*
Y30789980D03*
Y33329980D03*
Y35869980D03*
Y38409980D03*
Y40949980D03*
Y43489980D03*
Y46029980D03*
Y48569980D03*
Y51109980D03*
Y53649980D03*
Y56189980D03*
Y58729980D03*
Y61269980D03*
Y63809980D03*
Y66349980D03*
Y68889980D03*
Y71429980D03*
Y73969980D03*
Y76509980D03*
Y79049980D03*
Y81589980D03*
Y84129980D03*
Y86669980D03*
Y89209980D03*
Y91749980D03*
Y94289980D03*
Y96829980D03*
Y99369980D03*
X107299990Y23169980D03*
Y25709980D03*
Y28249980D03*
Y30789980D03*
Y33329980D03*
Y35869980D03*
Y38409980D03*
Y40949980D03*
Y43489980D03*
Y46029980D03*
Y48569980D03*
Y51109980D03*
Y53649980D03*
Y56189980D03*
Y58729980D03*
Y61269980D03*
Y63809980D03*
Y66349980D03*
Y68889980D03*
Y71429980D03*
Y73969980D03*
Y76509980D03*
Y79049980D03*
Y81589980D03*
Y84129980D03*
Y86669980D03*
Y89209980D03*
Y91749980D03*
Y94289980D03*
Y96829980D03*
Y99369980D03*
D17*
X46029880Y78414880D03*
D18*
X107299760Y20629880D03*
X109839760D03*
X112379760D03*
D19*
X23205000Y25785000D03*
X22705000D03*
X22205000D03*
X21705000D03*
X21205000D03*
X20705000D03*
X20205000D03*
X19705000D03*
X19205000D03*
X18705000D03*
X18205000D03*
X17705000D03*
X17205000D03*
X16705000D03*
X16205000D03*
X15705000D03*
X15205000D03*
X14705000D03*
X14205000D03*
X13705000D03*
X13205000D03*
X12705000D03*
X12205000D03*
X11705000D03*
Y6584990D03*
X12205000D03*
X12705000D03*
X13205000D03*
X13705000D03*
X14205000D03*
X14705000D03*
X15205000D03*
X15705000D03*
X16205000D03*
X16705000D03*
X17205000D03*
X17705000D03*
X18205000D03*
X18705000D03*
X19205000D03*
X19705000D03*
X20205000D03*
X20705000D03*
X21205000D03*
X21705000D03*
X22205000D03*
X22705000D03*
X23205000D03*
X35540000Y25785000D03*
X35040000D03*
X34540000D03*
X34040000D03*
X33540000D03*
X33040000D03*
X32540000D03*
X32040000D03*
X31540000D03*
X31040000D03*
X30540000D03*
X30040000D03*
X29540000D03*
X29040000D03*
X28540000D03*
X28040000D03*
X27540000D03*
X27040000D03*
X26540000D03*
X26040000D03*
Y6584990D03*
X26540000D03*
X27040000D03*
X27540000D03*
X28040000D03*
X28540000D03*
X29040000D03*
X29540000D03*
X30040000D03*
X30540000D03*
X31040000D03*
X31540000D03*
X32040000D03*
X32540000D03*
X33040000D03*
X33540000D03*
X34040000D03*
X34540000D03*
X35040000D03*
X35540000D03*
D20*
X78935000Y49510000D03*
X78285000D03*
X77635000D03*
X76985000D03*
X76335000D03*
X75685000D03*
X75035000D03*
X74385000D03*
X73735000D03*
X73085000D03*
X72435000D03*
X71785000D03*
X71135000D03*
X70485000D03*
X69835000D03*
X69185000D03*
X68535000D03*
X67885000D03*
X67235000D03*
X66585000D03*
X65935000D03*
X65285000D03*
X64635000D03*
X63985000D03*
X63335000D03*
X62685000D03*
X62035000D03*
X61385000D03*
Y27310000D03*
X62035000D03*
X62685000D03*
X63335000D03*
X63985000D03*
X64635000D03*
X65285000D03*
X65935000D03*
X66585000D03*
X67235000D03*
X67885000D03*
X68535000D03*
X69185000D03*
X69835000D03*
X70485000D03*
X71135000D03*
X71785000D03*
X72435000D03*
X73085000D03*
X73735000D03*
X74385000D03*
X75035000D03*
X75685000D03*
X76335000D03*
X76985000D03*
X77635000D03*
X78285000D03*
X78935000D03*
D21*
X107504230Y112704880D03*
X105205530D03*
X67105530Y103179880D03*
X69404230D03*
X81964530Y101909880D03*
X84263230D03*
X67105530Y87939880D03*
X69404230D03*
X81964530Y86669880D03*
X84263230D03*
X30910530Y73334880D03*
X33209230D03*
X67105530Y72699880D03*
X69404230D03*
X81964530Y71429880D03*
X84263230D03*
X30910530Y58094880D03*
X33209230D03*
X42340530D03*
X44639230D03*
X67105530Y57459880D03*
X69404230D03*
X81964530Y56189880D03*
X84263230D03*
X69645530Y53014880D03*
X71944230D03*
X30910530Y47934880D03*
X33209230D03*
X49325530Y39044880D03*
X51624230D03*
X49325530Y36504880D03*
X51624230D03*
X49325530Y33964880D03*
X51624230D03*
X49325530Y31424880D03*
X51624230D03*
X15670530Y28884880D03*
X17969230D03*
X29640530D03*
X31939230D03*
X43610530D03*
X45909230D03*
X49325530D03*
X51624230D03*
X43610530Y26344880D03*
X45909230D03*
X49325530D03*
X51624230D03*
X69645530Y23804880D03*
X71944230D03*
X82345530Y20629880D03*
X84644230D03*
X82345530Y16819880D03*
X84644230D03*
X63930530Y13644880D03*
X66229230D03*
X69010530D03*
X71309230D03*
X82345530D03*
X84644230D03*
X63930530Y10469880D03*
X66229230D03*
X69010530D03*
X71309230D03*
X77265530D03*
X79564230D03*
X82345530D03*
X84644230D03*
X55675530Y8564880D03*
X57974230D03*
X69010530Y7294880D03*
X71309230D03*
X82345530D03*
X84644230D03*
D22*
X102585520Y9199880D03*
X105084880D03*
X107584240D03*
D23*
X108005880Y109529880D03*
X104706420D03*
D24*
X9199880Y106234230D03*
X26979880D03*
X51744880Y104329230D03*
X9199880Y103935530D03*
X26979880D03*
X51744880Y102030530D03*
Y89089230D03*
Y86790530D03*
X9199880Y85914230D03*
X26979880D03*
X9199880Y83615530D03*
X26979880D03*
X51744880Y73849230D03*
Y71550530D03*
X9199880Y65594230D03*
X26979880D03*
X9199880Y63295530D03*
X26979880D03*
X51744880Y58609230D03*
Y56310530D03*
X9199880Y45274230D03*
X26979880D03*
X9199880Y42975530D03*
X26979880D03*
X55554880Y40194230D03*
X84764880Y38924230D03*
X55554880Y37895530D03*
X84764880Y36625530D03*
X55935880Y24573230D03*
X58729880D03*
X61523880D03*
X55935880Y22274530D03*
X58729880D03*
X61523880D03*
X39044880Y16064230D03*
Y13765530D03*
D25*
X63680340Y7294880D03*
X66479420D03*
X77015340D03*
X79814420D03*
D26*
X23715000Y96685000D03*
Y97485000D03*
Y98285000D03*
Y99085000D03*
Y99885000D03*
Y100685000D03*
Y101485000D03*
Y102285000D03*
Y103085000D03*
Y103885000D03*
Y104685000D03*
Y105485000D03*
Y106285000D03*
Y107085000D03*
Y107885000D03*
Y108685000D03*
Y109485000D03*
Y110285000D03*
Y111085000D03*
Y111885000D03*
Y112685000D03*
Y113485000D03*
X12465000D03*
Y112685000D03*
Y111885000D03*
Y111085000D03*
Y110285000D03*
Y109485000D03*
Y108685000D03*
Y107885000D03*
Y107085000D03*
Y106285000D03*
Y105485000D03*
Y104685000D03*
Y103885000D03*
Y103085000D03*
Y102285000D03*
Y101485000D03*
Y100685000D03*
Y99885000D03*
Y99085000D03*
Y98285000D03*
Y97485000D03*
Y96685000D03*
X23715000Y76365000D03*
Y77164990D03*
Y77964990D03*
Y78765000D03*
Y79565000D03*
Y80365000D03*
Y81164990D03*
Y81964990D03*
Y82765000D03*
Y83565000D03*
Y84365000D03*
Y85164990D03*
Y85964990D03*
Y86765000D03*
Y87565000D03*
Y88365000D03*
Y89164990D03*
Y89964990D03*
Y90765000D03*
Y91565000D03*
Y92365000D03*
Y93164990D03*
X12465000D03*
Y92365000D03*
Y91565000D03*
Y90765000D03*
Y89964990D03*
Y89164990D03*
Y88365000D03*
Y87565000D03*
Y86765000D03*
Y85964990D03*
Y85164990D03*
Y84365000D03*
Y83565000D03*
Y82765000D03*
Y81964990D03*
Y81164990D03*
Y80365000D03*
Y79565000D03*
Y78765000D03*
Y77964990D03*
Y77164990D03*
Y76365000D03*
X23715000Y56045000D03*
Y56845000D03*
Y57645000D03*
Y58445000D03*
Y59244990D03*
Y60045000D03*
Y60845000D03*
Y61645000D03*
Y62445000D03*
Y63244990D03*
Y64045000D03*
Y64845000D03*
Y65644990D03*
Y66444990D03*
Y67245000D03*
Y68045000D03*
Y68845000D03*
Y69645000D03*
Y70444990D03*
Y71245000D03*
Y72045000D03*
Y72845000D03*
X12465000D03*
Y72045000D03*
Y71245000D03*
Y70444990D03*
Y69645000D03*
Y68845000D03*
Y68045000D03*
Y67245000D03*
Y66444990D03*
Y65644990D03*
Y64845000D03*
Y64045000D03*
Y63244990D03*
Y62445000D03*
Y61645000D03*
Y60845000D03*
Y60045000D03*
Y59244990D03*
Y58445000D03*
Y57645000D03*
Y56845000D03*
Y56045000D03*
X23715000Y35725000D03*
Y36525000D03*
Y37324990D03*
Y38125000D03*
Y38924990D03*
Y39725000D03*
Y40525000D03*
Y41324990D03*
Y42125000D03*
Y42924990D03*
Y43725000D03*
Y44525000D03*
Y45324990D03*
Y46125000D03*
Y46924990D03*
Y47725000D03*
Y48525000D03*
Y49324990D03*
Y50125000D03*
Y50924990D03*
Y51725000D03*
Y52525000D03*
X12465000D03*
Y51725000D03*
Y50924990D03*
Y50125000D03*
Y49324990D03*
Y48525000D03*
Y47725000D03*
Y46924990D03*
Y46125000D03*
Y45324990D03*
Y44525000D03*
Y43725000D03*
Y42924990D03*
Y42125000D03*
Y41324990D03*
Y40525000D03*
Y39725000D03*
Y38924990D03*
Y38125000D03*
Y37324990D03*
Y36525000D03*
Y35725000D03*
D27*
X96850000Y56189990D03*
Y57460000D03*
Y58729990D03*
Y60000000D03*
Y61270000D03*
Y62539990D03*
Y63810000D03*
Y65080000D03*
Y66349990D03*
Y67620000D03*
X86650000D03*
Y66349990D03*
Y65080000D03*
Y63810000D03*
Y62539990D03*
Y61270000D03*
Y60000000D03*
Y58729990D03*
Y57460000D03*
Y56189990D03*
X64465000D03*
Y57460000D03*
Y58729990D03*
Y60000000D03*
Y61270000D03*
Y62539990D03*
Y63810000D03*
Y65080000D03*
Y66349990D03*
Y67620000D03*
X54265000D03*
Y66349990D03*
Y65080000D03*
Y63810000D03*
Y62539990D03*
Y61270000D03*
Y60000000D03*
Y58729990D03*
Y57460000D03*
Y56189990D03*
X96850000Y71429990D03*
Y72699990D03*
Y73970000D03*
Y75240000D03*
Y76510000D03*
Y77780000D03*
Y79050000D03*
Y80319990D03*
Y81589990D03*
Y82860000D03*
X86650000D03*
Y81589990D03*
Y80319990D03*
Y79050000D03*
Y77780000D03*
Y76510000D03*
Y75240000D03*
Y73970000D03*
Y72699990D03*
Y71429990D03*
X64465000D03*
Y72699990D03*
Y73970000D03*
Y75240000D03*
Y76510000D03*
Y77780000D03*
Y79050000D03*
Y80319990D03*
Y81589990D03*
Y82860000D03*
X54265000D03*
Y81589990D03*
Y80319990D03*
Y79050000D03*
Y77780000D03*
Y76510000D03*
Y75240000D03*
Y73970000D03*
Y72699990D03*
Y71429990D03*
X96850000Y86670000D03*
Y87940000D03*
Y89210000D03*
Y90480000D03*
Y91750000D03*
Y93020000D03*
Y94289990D03*
Y95560000D03*
Y96830000D03*
Y98100000D03*
X86650000D03*
Y96830000D03*
Y95560000D03*
Y94289990D03*
Y93020000D03*
Y91750000D03*
Y90480000D03*
Y89210000D03*
Y87940000D03*
Y86670000D03*
X64465000D03*
Y87940000D03*
Y89210000D03*
Y90480000D03*
Y91750000D03*
Y93020000D03*
Y94289990D03*
Y95560000D03*
Y96830000D03*
Y98100000D03*
X54265000D03*
Y96830000D03*
Y95560000D03*
Y94289990D03*
Y93020000D03*
Y91750000D03*
Y90480000D03*
Y89210000D03*
Y87940000D03*
Y86670000D03*
X96850000Y101910000D03*
Y103179990D03*
Y104449990D03*
Y105719990D03*
Y106990000D03*
Y108260000D03*
Y109530000D03*
Y110800000D03*
Y112069990D03*
Y113340000D03*
X86650000D03*
Y112069990D03*
Y110800000D03*
Y109530000D03*
Y108260000D03*
Y106990000D03*
Y105719990D03*
Y104449990D03*
Y103179990D03*
Y101910000D03*
X64465000D03*
Y103179990D03*
Y104449990D03*
Y105719990D03*
Y106990000D03*
Y108260000D03*
Y109530000D03*
Y110800000D03*
Y112069990D03*
Y113340000D03*
X54265000D03*
Y112069990D03*
Y110800000D03*
Y109530000D03*
Y108260000D03*
Y106990000D03*
Y105719990D03*
Y104449990D03*
Y103179990D03*
Y101910000D03*
X47560000Y61270000D03*
Y62539990D03*
Y63810000D03*
Y65080000D03*
Y66349990D03*
Y67620000D03*
Y68890000D03*
X41960000D03*
Y67620000D03*
Y66349990D03*
Y65080000D03*
Y63810000D03*
Y62539990D03*
Y61270000D03*
X36130000Y51110000D03*
Y52379990D03*
Y53650000D03*
Y54920000D03*
X30530000D03*
Y53650000D03*
Y52379990D03*
Y51110000D03*
X36130000Y61270000D03*
Y62539990D03*
Y63810000D03*
Y65080000D03*
Y66349990D03*
Y67620000D03*
Y68890000D03*
Y70160000D03*
X30530000D03*
Y68890000D03*
Y67620000D03*
Y66349990D03*
Y65080000D03*
Y63810000D03*
Y62539990D03*
Y61270000D03*
X70420000Y16820000D03*
Y18090000D03*
Y19359990D03*
Y20629990D03*
X64820000D03*
Y19359990D03*
Y18090000D03*
Y16820000D03*
X52400000Y6659990D03*
Y7929990D03*
Y9200000D03*
Y10470000D03*
Y11740000D03*
Y13010000D03*
Y14280000D03*
Y15550000D03*
Y16820000D03*
Y18090000D03*
Y19359990D03*
Y20629990D03*
Y21900000D03*
Y23170000D03*
X42200000D03*
Y21900000D03*
Y20629990D03*
Y19359990D03*
Y18090000D03*
Y16820000D03*
Y15550000D03*
Y14280000D03*
Y13010000D03*
Y11740000D03*
Y10470000D03*
Y9200000D03*
Y7929990D03*
Y6659990D03*
D28*
X39574470Y55264050D03*
X48675290D03*
X39574470Y50765710D03*
X48675290D03*
D29*
X87953850Y23803610D03*
X99353370D03*
X87953850Y21263610D03*
X99353370D03*
X87953850Y18723610D03*
X99353370D03*
X87953850Y13008610D03*
X99353370D03*
X87953850Y10468610D03*
X99353370D03*
X87953850Y7928610D03*
X99353370D03*
D30*
X74945240Y20590510D03*
X79344520D03*
X55895240Y18050510D03*
X60294520D03*
X74945240Y15589250D03*
X79344520D03*
X55895240Y13049250D03*
X60294520D03*
D31*
X59060000Y47185000D03*
Y46535000D03*
Y45885000D03*
Y45235000D03*
Y44585000D03*
Y43935000D03*
Y43285000D03*
Y42635000D03*
Y41985000D03*
Y41335000D03*
Y40685000D03*
Y40035000D03*
Y39385000D03*
Y38735000D03*
Y38085000D03*
Y37435000D03*
Y36785000D03*
Y36135000D03*
Y35485000D03*
Y34835000D03*
Y34185000D03*
Y33535000D03*
Y32885000D03*
Y32234990D03*
Y31585000D03*
Y30935000D03*
Y30285000D03*
Y29635000D03*
X81260000D03*
Y30285000D03*
Y30935000D03*
Y31585000D03*
Y32234990D03*
Y32885000D03*
Y33535000D03*
Y34185000D03*
Y34835000D03*
Y35485000D03*
Y36135000D03*
Y36785000D03*
Y37435000D03*
Y38085000D03*
Y38735000D03*
Y39385000D03*
Y40035000D03*
Y40685000D03*
Y41335000D03*
Y41985000D03*
Y42635000D03*
Y43285000D03*
Y43935000D03*
Y44585000D03*
Y45235000D03*
Y45885000D03*
Y46535000D03*
Y47185000D03*
D32*
X79025000Y57460000D03*
Y58729990D03*
Y60000000D03*
Y61270000D03*
Y62539990D03*
Y63810000D03*
Y65080000D03*
Y66349990D03*
X72725000D03*
Y65080000D03*
Y63810000D03*
Y62539990D03*
Y61270000D03*
Y60000000D03*
Y58729990D03*
Y57460000D03*
X96805000Y28885000D03*
Y30154990D03*
Y31425000D03*
Y32695000D03*
Y33965000D03*
Y35235000D03*
Y36504990D03*
Y37775000D03*
X90505000D03*
Y36504990D03*
Y35235000D03*
Y33965000D03*
Y32695000D03*
Y31425000D03*
Y30154990D03*
Y28885000D03*
X79025000Y72699990D03*
Y73970000D03*
Y75240000D03*
Y76510000D03*
Y77780000D03*
Y79050000D03*
Y80319990D03*
Y81589990D03*
X72725000D03*
Y80319990D03*
Y79050000D03*
Y77780000D03*
Y76510000D03*
Y75240000D03*
Y73970000D03*
Y72699990D03*
X96805000Y41585000D03*
Y42854990D03*
Y44125000D03*
Y45395000D03*
Y46665000D03*
Y47935000D03*
Y49205000D03*
Y50475000D03*
X90505000D03*
Y49205000D03*
Y47935000D03*
Y46665000D03*
Y45395000D03*
Y44125000D03*
Y42854990D03*
Y41585000D03*
X79025000Y87940000D03*
Y89210000D03*
Y90480000D03*
Y91750000D03*
Y93020000D03*
Y94289990D03*
Y95560000D03*
Y96830000D03*
X72725000D03*
Y95560000D03*
Y94289990D03*
Y93020000D03*
Y91750000D03*
Y90480000D03*
Y89210000D03*
Y87940000D03*
X79025000Y103179990D03*
Y104449990D03*
Y105719990D03*
Y106990000D03*
Y108260000D03*
Y109530000D03*
Y110800000D03*
Y112069990D03*
X72725000D03*
Y110800000D03*
Y109530000D03*
Y108260000D03*
Y106990000D03*
Y105719990D03*
Y104449990D03*
Y103179990D03*
D33*
X39043610Y46649640D03*
Y28900120D03*
D34*
G36*
X110006210Y9970190D02*
X110017740Y9988370D01*
G02*
X110038850Y9999980I21110J-13380D01*
G01*
X119653640D01*
G02*
X119667430Y9995830I00J-24990D01*
G01*
X119688840Y9981660D01*
G02*
X119700040Y9960820I-13790J-20840D01*
G01*
Y5042640D01*
G02*
X119700000Y5041260I-24990J0D01*
G01*
X119678440Y4650130D01*
G02*
X119678230Y4648010I-24960J1370D01*
G01*
X119654890Y4482380D01*
G02*
X119652620Y4474950I-24750J3490D01*
G01*
X119629220Y4305390D01*
G02*
X119628950Y4303770I-24760J3420D01*
G01*
X119620620Y4263260D01*
X119620400Y4262300D01*
X119597630Y4170080D01*
X119590240Y4137510D01*
X119585980Y4114580D01*
G02*
X119585670Y4113160I-24570J4570D01*
G01*
X119568320Y4042840D01*
X119564660Y4024870D01*
X119564520Y4024230D01*
X119542320Y3928270D01*
X119541310Y3923290D01*
G02*
X119541010Y3922030I-24500J5000D01*
G01*
X119522090Y3848940D01*
X119518580Y3833380D01*
X119518420Y3832710D01*
X119502320Y3769470D01*
G02*
X119501930Y3768110I-24220J6170D01*
G01*
X119490580Y3732170D01*
X119490350Y3731490D01*
X119464910Y3658320D01*
X119455080Y3628410D01*
X119442360Y3586790D01*
X119442270Y3586520D01*
X119428300Y3540490D01*
X119428000Y3539550D01*
X119412860Y3495960D01*
X119412600Y3495250D01*
X119393890Y3446240D01*
X119379030Y3405400D01*
X119378820Y3404830D01*
X119365360Y3370440D01*
X119365300Y3370270D01*
X119355620Y3346040D01*
G02*
X119354720Y3344070I-23220J9280D01*
G01*
X119345550Y3325890D01*
X119319640Y3267930D01*
X119300610Y3217640D01*
X119300470Y3217270D01*
X119285310Y3179050D01*
G02*
X119284000Y3176260I-23240J9210D01*
G01*
X119258830Y3130300D01*
X119252750Y3116650D01*
G02*
X119251140Y3113630I-22840J10170D01*
G01*
X119219440Y3043000D01*
X119219390Y3042880D01*
X119206770Y3015150D01*
X119192330Y2983040D01*
G02*
X119191500Y2981370I-22790J10250D01*
G01*
X119191460Y2981290D01*
X119176140Y2953320D01*
X119175870Y2952830D01*
X119175820Y2952750D01*
X119165010Y2934180D01*
X119139240Y2882640D01*
X119139060Y2882290D01*
X119121130Y2846590D01*
X119120610Y2845600D01*
X119083220Y2778820D01*
X119082600Y2777780D01*
X118825910Y2367390D01*
G02*
X118824750Y2365700I-21190J13250D01*
G01*
X118691580Y2187160D01*
X118691000Y2186420D01*
X118550010Y2011560D01*
X118549230Y2010640D01*
X118390650Y1832360D01*
G02*
X118389720Y1831370I-18670J16610D01*
G01*
X118176640Y1616560D01*
G02*
X118175470Y1615450I-17740J17600D01*
G01*
X117997520Y1457890D01*
X117996820Y1457300D01*
X117831560Y1321480D01*
G02*
X117830020Y1320310I-15870J19310D01*
G01*
X117448540Y1053380D01*
X117447570Y1052740D01*
X117447490Y1052680D01*
X117322140Y974100D01*
X117321140Y973510D01*
X117140670Y871750D01*
X117139590Y871170D01*
X116887550Y745160D01*
G02*
X116886030Y744460I-11170J22350D01*
G01*
X116582040Y617180D01*
G02*
X116580530Y616600I-9650J23050D01*
G01*
X116305810Y521940D01*
X116304990Y521670D01*
X116148860Y473770D01*
G02*
X116147320Y473350I-7330J23890D01*
G01*
X115889100Y411880D01*
X115888260Y411700D01*
X115653030Y364170D01*
X115651820Y363960D01*
X115528280Y345260D01*
X115527570Y345170D01*
X115396650Y329190D01*
X115396430Y329170D01*
X115293870Y317560D01*
G02*
X115292570Y317440I-2810J24830D01*
G01*
X115043170Y302310D01*
G02*
X115041660Y302260I-1510J24950D01*
G01*
X110041740D01*
G02*
X110025710Y308080I00J25000D01*
G01*
X110011280Y320150D01*
G02*
X110002320Y339320I16040J19170D01*
G01*
Y4999990D01*
X111750000D01*
G03*
X114999980Y1750010I3249980J0D01*
G03*
X111750000Y4999990I00J3249980D01*
G01*
X110002320D01*
Y9956800D01*
G02*
X110006210Y9970190I25000J0D01*
G01*
G37*
G36*
X302260Y5040230D02*
Y9960820D01*
G02*
X313460Y9981660I25000J0D01*
G01*
X334870Y9995830D01*
G02*
X348670Y9999980I13800J-20840D01*
G01*
X9963460D01*
G02*
X9984590Y9988330I00J-24990D01*
G01*
X9996120Y9970070D01*
G02*
X9999980Y9956730I-21130J-13340D01*
G01*
X9999960Y339500D01*
G02*
X9991060Y320380I-25000J0D01*
G01*
X9976530Y308140D01*
G02*
X9960430Y302260I-16100J19120D01*
G01*
X4943580D01*
G02*
X4941840Y302320I00J25000D01*
G01*
X4675520Y320890D01*
X4674260Y321010D01*
X4476390Y344940D01*
X4475660Y345040D01*
X4352700Y363630D01*
X4351520Y363830D01*
X4132450Y407720D01*
X4131630Y407900D01*
X3860560Y471710D01*
G02*
X3858940Y472150I5730J24330D01*
G01*
X3792440Y492590D01*
X3792200Y492670D01*
X3701750Y520450D01*
X3701080Y520670D01*
X3606460Y552680D01*
X3606330Y552720D01*
X3606250Y552750D01*
X3424470Y616050D01*
G02*
X3423090Y616570I8220J23600D01*
G01*
X3120700Y742280D01*
G02*
X3119120Y743000I9600J23080D01*
G01*
X2861640Y871700D01*
X2860520Y872300D01*
X2860270Y872440D01*
X2678810Y974960D01*
X2677830Y975550D01*
X2537240Y1063690D01*
X2537170Y1063740D01*
X2536120Y1064430D01*
X2167920Y1323760D01*
G02*
X2166430Y1324900I14400J20440D01*
G01*
X1992770Y1467900D01*
X1992020Y1468550D01*
X1817570Y1624220D01*
G02*
X1816420Y1625320I16640J18650D01*
G01*
X1602190Y1842490D01*
G02*
X1601250Y1843500I17800J17550D01*
G01*
X1445150Y2020310D01*
X1444400Y2021190D01*
X1307550Y2191390D01*
X1306990Y2192120D01*
X1172680Y2372230D01*
G02*
X1171510Y2373930I20030J14940D01*
G01*
X1131350Y2438210D01*
G02*
X1129270Y2442360I21200J13250D01*
G01*
X1103090Y2483710D01*
G02*
X1101410Y2486820I21120J13370D01*
G01*
X1059870Y2553060D01*
X1042600Y2580390D01*
G02*
X1040630Y2584190I21130J13360D01*
G01*
X1014190Y2625950D01*
G02*
X1012510Y2629060I21120J13370D01*
G01*
X970920Y2695410D01*
X970850Y2695520D01*
X941710Y2741640D01*
X941490Y2742000D01*
X916670Y2782820D01*
X916180Y2783660D01*
X880860Y2847200D01*
X880350Y2848140D01*
X861550Y2885790D01*
X837270Y2934220D01*
X814960Y2973160D01*
G02*
X814030Y2974940I21690J12410D01*
G01*
X804790Y2994630D01*
X804690Y2994840D01*
X788700Y3029940D01*
X788630Y3030090D01*
X760980Y3092150D01*
G02*
X758900Y3095890I20730J13970D01*
G01*
X746780Y3122930D01*
X732950Y3148870D01*
X732810Y3149130D01*
X712310Y3188800D01*
G02*
X710750Y3192540I22210J11480D01*
G01*
X702590Y3217600D01*
X686310Y3259230D01*
X659140Y3321190D01*
X647950Y3343330D01*
G02*
X647020Y3345410I22310J11280D01*
G01*
X624240Y3402960D01*
X624170Y3403120D01*
X619200Y3416060D01*
X619130Y3416210D01*
X602060Y3461880D01*
X601960Y3462160D01*
X579560Y3524340D01*
X579360Y3524920D01*
X571000Y3550010D01*
X570820Y3550580D01*
X556660Y3596750D01*
X556630Y3596840D01*
X546810Y3629610D01*
X527010Y3687660D01*
X508060Y3743440D01*
X507840Y3744110D01*
X497730Y3776880D01*
G02*
X497290Y3778510I23890J7370D01*
G01*
X374600Y4298780D01*
G02*
X374200Y4300920I24330J5740D01*
G01*
X324720Y4640840D01*
G02*
X324500Y4643040I24740J3600D01*
G01*
X304480Y4999990D01*
X1750010D01*
G03*
X4999990Y1750010I3249980J0D01*
G03*
X1750010Y4999990I00J3249980D01*
G01*
X304480D01*
X302300Y5038830D01*
G02*
X302260Y5040230I24960J1400D01*
G01*
G37*
G36*
X324780Y115360060D02*
X369870Y115667730D01*
X372690Y115690140D01*
G02*
X373000Y115692050I24800J-3120D01*
G01*
X384250Y115746840D01*
X384520Y115747990D01*
X402690Y115819130D01*
X412600Y115864790D01*
X412900Y115867090D01*
G02*
X413400Y115869740I24800J-3230D01*
G01*
X425640Y115920320D01*
X435340Y115962160D01*
X435360Y115962280D01*
X448390Y116016750D01*
X461030Y116074380D01*
X461560Y116078530D01*
G02*
X462250Y116081930I24800J-3190D01*
G01*
X477150Y116136390D01*
X497720Y116221880D01*
G02*
X498120Y116223350I24300J-5850D01*
G01*
X511100Y116265740D01*
X511460Y116266820D01*
X529600Y116317680D01*
X547630Y116372690D01*
X559930Y116412920D01*
X573520Y116457700D01*
X573890Y116458840D01*
X592460Y116510890D01*
X592580Y116511230D01*
X606370Y116548180D01*
X619770Y116583870D01*
X638310Y116632570D01*
G02*
X638870Y116633900I23360J-8900D01*
G01*
X665670Y116693670D01*
X684310Y116736230D01*
X691430Y116753280D01*
X704250Y116786590D01*
X713550Y116813090D01*
G02*
X715090Y116816590I23590J-8270D01*
G01*
X739420Y116862180D01*
X745960Y116875200D01*
X785010Y116960370D01*
G02*
X786500Y116964570I24210J-6220D01*
G01*
X797140Y116987780D01*
X797520Y116988570D01*
X832490Y117058320D01*
G02*
X833540Y117060200I22350J-11210D01*
G01*
X1244140Y117728250D01*
G02*
X1245920Y117730780I21290J-13090D01*
G01*
X1451100Y117987020D01*
G02*
X1451960Y117988030I19510J-15630D01*
G01*
X1613480Y118169180D01*
G02*
X1614390Y118170150I18650J-16630D01*
G01*
X1822740Y118380230D01*
G02*
X1823910Y118381340I17750J-17600D01*
G01*
X2004200Y118541180D01*
X2004900Y118541770D01*
X2170910Y118678370D01*
G02*
X2172460Y118679550I15880J-19300D01*
G01*
X2552290Y118945340D01*
X2553270Y118945980D01*
X2553350Y118946030D01*
X2681540Y119026400D01*
X2682540Y119027000D01*
X2862460Y119128440D01*
X2863520Y119129000D01*
X3111320Y119252900D01*
G02*
X3112770Y119253570I11180J-22350D01*
G01*
X3327220Y119344180D01*
X3327720Y119344380D01*
X3394160Y119370790D01*
G02*
X3395960Y119371590I11070J-22410D01*
G01*
X3440460Y119389350D01*
X3441570Y119389760D01*
X3696460Y119477770D01*
X3697290Y119478040D01*
X3855480Y119526550D01*
G02*
X3857040Y119526980I7330J-23890D01*
G01*
X4105430Y119585910D01*
X4106170Y119586070D01*
X4255140Y119616680D01*
X4255350Y119616720D01*
X4355470Y119636400D01*
X4356550Y119636590D01*
X4476010Y119654680D01*
X4476720Y119654770D01*
X4598390Y119669630D01*
X4598600Y119669660D01*
X4709320Y119682210D01*
G02*
X4710620Y119682320I2810J-24840D01*
G01*
X4960280Y119697430D01*
G02*
X4961790Y119697480I1510J-24950D01*
G01*
X9960380Y119697500D01*
G02*
X9976300Y119691780I00J-24990D01*
G01*
X9990910Y119679710D01*
G02*
X9999980Y119660440I-15920J-19270D01*
G01*
Y110042530D01*
G02*
X9996020Y110029020I-24990J0D01*
G01*
X9984620Y110011270D01*
G02*
X9963580Y109999780I-21040J13510D01*
G01*
X346940D01*
G02*
X332920Y110004080I00J25000D01*
G01*
X313240Y110017420D01*
G02*
X302260Y110038110I14020J20690D01*
G01*
Y114958470D01*
G02*
X302300Y114959870I25000J0D01*
G01*
X304550Y114999980D01*
X1750010D01*
G03*
X4999990Y111750000I3249980J0D01*
G03*
X1750010Y114999980I00J3249980D01*
G01*
X304550D01*
X324550Y115357830D01*
G02*
X324780Y115360060I24960J-1390D01*
G37*
M02*
