G04 PCB Fabrication Data in Gerber – Example 1, created by Karel Tavernier, Filip Vermeire and Thomas Weyn*
G04 Ucamco copyright*
%TF.GenerationSoftware,Ucamco,UcamX,1.1.0-140320*%
%TF.CreationDate,2014-06-18T00:00:00+01:00*%
%FSLAX36Y36*%
%MOMM*%
%TF.FileFunction,Copper,L4,Bot,Signal*%
%TF.FilePolarity,Positive*%
%TF.Part,Single*%
%TF.SameCoordinates,f8d53b1f8c81977d8c3d0dffcc4c4bd6e6770c0f*%
%TA.AperFunction,Conductor*%
%ADD10C,0.15000*%
%TA.AperFunction,ViaPad*%
%ADD11C,0.75000*%
%TA.AperFunction,ComponentPad*%
%ADD12C,1.60000*%
%ADD13C,1.70000*%
%ADD14R,1.60000X1.60000*%
%ADD15R,1.70000X1.70000*%
%TA.AperFunction,Conductor*%
%ADD16C,0*%
G01*
G75*
%LPD*%
D10*
X76649990Y36899980D02*
X83949950D01*
X84399990Y37349990D01*
X93699990D01*
X94544950Y36504980D01*
X98829980D01*
X83599990Y18749980D02*
Y21450000D01*
X77849990Y27200000D01*
Y30249980D01*
X76649990Y31449980D01*
Y36899980D01*
X90349990Y14500000D02*
Y12999980D01*
X92999970Y10349990D01*
Y7950000D01*
X92349980Y12999980D02*
X97649970D01*
X89649990Y23799980D02*
X94949980D01*
X77549990Y35150000D02*
X92899940D01*
X94084980Y33964980D01*
X98829980D01*
X72099990Y19349980D02*
X74849990Y22099980D01*
Y39434980D01*
X77549990Y32949970D02*
X92499940D01*
X95294990Y30154980D01*
X98858150D01*
X78449990Y34299980D02*
X92449980D01*
X95324980Y31424980D01*
X98829980D01*
X78549990Y35999980D02*
X93649980D01*
X94414980Y35234980D01*
X98829980D01*
X50099980Y10449990D02*
Y25849990D01*
X52649990Y28400000D01*
X55799990D01*
X56749980Y29349980D01*
Y30299990D01*
X77597380Y38834980D02*
X83270370D01*
X84330390Y37774980D01*
X98829980D01*
X50099980Y95699990D02*
Y68149980D01*
X48749990Y66799970D01*
Y59899980D01*
X55549980Y53100000D01*
Y37899980D01*
X56949980Y36499980D01*
Y34850000D01*
X47050000Y37799980D02*
Y48349990D01*
X33699990Y8399990D02*
Y2600000D01*
X49199980Y2600000D02*
Y27300000D01*
X53284990Y31384980D01*
Y33534990D01*
X52849990Y35150000D02*
X54249980D01*
X55399990Y33999990D01*
X57749980D01*
X61449990Y37699980D01*
Y40049990D01*
X54100000Y9199980D02*
X64075490Y19175480D01*
Y22346690D01*
X65299970Y23571180D01*
Y25249990D01*
X24749990Y18899990D02*
Y34850000D01*
X25399980Y35499980D01*
Y48061370D01*
Y68859990D01*
X25399980Y89179990D02*
Y68859990D01*
X25399980Y109499990D02*
Y89179990D01*
X31049980Y23818190D02*
Y21257590D01*
X31449980Y20857590D01*
Y18899990D01*
X44999990Y67619980D02*
Y62549990D01*
X54100000Y12999980D02*
Y18399990D01*
X57332480Y21632500D01*
Y27962890D01*
X73449940Y5999990D02*
Y13199980D01*
X70949950Y15700000D01*
Y40635000D01*
X78408960Y42634990D02*
X80841470D01*
X82223380Y41253080D01*
X86268180D01*
X74849990Y7299990D02*
Y19999990D01*
X75649990Y20799990D01*
Y41349980D01*
X49749990Y61299980D02*
Y66649980D01*
X52499970Y69399990D01*
Y98099980D01*
X65350470Y22465590D02*
X69199990Y26315090D01*
Y29649980D01*
X98858150Y28884980D02*
X95114980D01*
X91949980Y32049980D01*
X78449990D01*
X30789960Y93654980D02*
X29994960Y94449980D01*
X29299970D01*
X28973860Y94776090D01*
Y95599990D01*
X3049980Y14900000D02*
Y38109980D01*
Y58429980D01*
Y78749980D01*
Y99099980D01*
X36349990Y7749970D02*
Y3549980D01*
X56189960Y57459980D02*
Y55409980D01*
X62649990Y48949990D01*
Y29249980D01*
X56189960Y72699980D02*
Y57459980D01*
X62649990Y29249980D02*
Y20299990D01*
X54100000Y11749990D01*
X88574960Y57459980D02*
X88064980Y56949980D01*
X78949960D01*
X77799970Y55799990D01*
X72649970D01*
X89244990Y72699980D02*
Y59277580D01*
X88574960Y58607580D01*
Y57459980D01*
X39649990Y68899990D02*
Y66842870D01*
X43499990Y62992890D01*
Y59750000D01*
X85849970Y52199970D02*
X90950390D01*
X94924960Y56174590D01*
Y56189980D01*
X32399990Y39724990D02*
Y40707190D01*
X33750000Y42057200D01*
Y46954190D01*
X32986880Y47717280D01*
Y58663690D01*
X34099990Y59776790D01*
Y64999970D01*
X50899980Y65099970D02*
Y66749980D01*
X54149980Y69999990D01*
Y108199990D01*
X52049990Y110299990D01*
Y113349990D01*
X76449960Y67349980D02*
Y68249980D01*
X78599970Y70399990D01*
Y71399990D01*
X45849950Y63799980D02*
Y69549980D01*
X28527380Y81442590D02*
Y78332080D01*
X32149980Y74709480D01*
Y63799980D01*
X33049950Y62549990D02*
Y73349970D01*
X34799980Y75099980D01*
Y100099980D01*
X37849990Y65099970D02*
X38749990Y64199980D01*
Y60197570D01*
X37768960Y59216600D01*
Y39468780D01*
X42462100Y34775680D01*
Y32275000D01*
X76462050Y37962180D02*
Y43159100D01*
X78570180Y45267200D01*
X81881580D01*
X83261380Y46646980D01*
X109839990Y25709980D02*
X108649980Y24519990D01*
Y19399990D01*
X107140580Y17890590D01*
X39900000Y20650000D02*
Y3600020D01*
X45576980Y51459790D02*
Y33226990D01*
X39900000Y27549990D01*
Y20650000D01*
X76299980Y24749990D02*
Y20699990D01*
X77549990Y19449980D01*
Y3649980D01*
X102549990Y3649980D02*
Y13299980D01*
X107140580Y17890590D01*
X14324460Y38924990D02*
Y59244990D01*
Y79564970D01*
Y96584980D01*
X15815690Y98076180D01*
Y99205090D01*
X36837060Y13940490D02*
Y25434880D01*
X43897580Y32495390D01*
Y52606680D01*
X44985490Y53694590D01*
Y54908200D01*
X56851200Y99823370D02*
Y55742690D01*
X59503290Y53090570D01*
X63971880D01*
X64634980Y52427480D01*
X46029960Y98734980D02*
X47699980Y97064980D01*
Y92349980D01*
X1800000Y36509990D02*
Y14199970D01*
X2700000Y13299980D01*
X5180080D01*
X7680100Y10799980D01*
X10149970D01*
X10899980Y10050000D01*
Y8350000D01*
X11449990Y7799990D01*
Y3884810D01*
X1800000Y56829990D02*
Y36509990D01*
X1800000Y77149990D02*
Y56829990D01*
X1800000Y97499990D02*
Y77149990D01*
X11449990Y3884810D02*
X13733100D01*
X15748280Y5899990D01*
X24449990D01*
X25949990Y7399990D01*
Y9599980D01*
X25999980Y49749990D02*
Y35250000D01*
X25249990Y34499980D01*
Y21750000D01*
X25349960Y21650000D01*
Y20199990D01*
X25999980Y69659990D02*
Y49749990D01*
X25999980Y89979990D02*
Y69659990D01*
X25999980Y96049980D02*
Y89979990D01*
X25999980Y110299990D02*
Y96049980D01*
X34050000Y20199990D02*
Y17299990D01*
X34699980Y16649980D01*
Y8350000D01*
X30789960Y91114980D02*
X33149950Y93474970D01*
Y97549970D01*
X19149980Y38939980D02*
X17749950Y40339980D01*
Y48859980D01*
X19149980Y50260000D01*
Y51147470D01*
Y59259980D01*
X17749950Y60659980D01*
Y69179980D01*
X19149980Y70579970D01*
Y71432980D01*
Y79579980D01*
X17749950Y80979980D01*
Y89499980D01*
X19149980Y90899970D01*
Y91653080D01*
Y96049980D01*
Y106709670D01*
X20906180Y108465880D01*
Y109550080D01*
X18499990Y38139980D02*
X17299990Y39339980D01*
Y48909990D01*
X18499990Y50109990D01*
Y58459980D01*
X17299990Y59659980D01*
Y69229990D01*
X18499990Y70429990D01*
Y78779980D01*
X17299990Y79979980D01*
Y89549990D01*
X18499990Y90749990D01*
Y99099980D01*
X29449980Y27400000D02*
Y25769390D01*
X29149980Y25469400D01*
Y21599980D01*
X17899990Y37339980D02*
X16849980Y38389990D01*
Y48909990D01*
X17899990Y49960000D01*
Y57659980D01*
X16849980Y58709990D01*
Y69229990D01*
X17899990Y70279970D01*
Y77979980D01*
X16849980Y79029970D01*
Y89549990D01*
X17899990Y90599970D01*
Y98299980D01*
X17249980Y36539990D02*
X16429990Y37360000D01*
Y48959980D01*
X17249980Y49779990D01*
Y56859990D01*
X16429990Y57680000D01*
Y69279980D01*
X17249980Y70099990D01*
Y77179990D01*
X16429990Y77999970D01*
Y89599980D01*
X17249980Y90419990D01*
Y97499990D01*
X16649980Y35739990D02*
X15979980Y36409990D01*
Y48959980D01*
X16649980Y49629980D01*
Y56059990D01*
X15979980Y56729990D01*
Y69279980D01*
X16649980Y69949980D01*
Y76379990D01*
X15979980Y77049990D01*
Y89599980D01*
X16649980Y90269980D01*
Y96699990D01*
X28518390Y57715180D02*
Y51184580D01*
X32290590Y47412380D01*
Y42476780D01*
X29758690Y39944880D01*
Y35724980D01*
X28767990Y76364980D02*
Y67416280D01*
X29126390Y67057880D01*
Y60796170D01*
X28518390Y60188170D01*
Y57715180D01*
X28980490Y98346190D02*
Y97148170D01*
X28289280Y96456990D01*
Y94291180D01*
X29199970Y93380490D01*
Y85635190D01*
X27800000Y84235190D01*
Y78355470D01*
X28767990Y77387480D01*
Y76364980D01*
X29758690Y35724980D02*
Y28591390D01*
X30437080Y27912980D01*
Y26405080D01*
X29798700Y25766680D01*
Y23758100D01*
X32049980Y15274190D02*
Y23799980D01*
Y26649990D01*
X36949990Y31549980D01*
Y34050000D01*
Y60302570D01*
X37917380Y61269980D01*
X31486680Y30869790D02*
Y26778380D01*
X30398700Y25690380D01*
Y18190090D01*
X30411500Y18177280D01*
X36249990Y33149970D02*
X35067950Y31967990D01*
X32584880D01*
X31486680Y30869790D01*
X37884180Y62539980D02*
X36249990Y60905770D01*
Y33149970D01*
X39736300Y63809980D02*
Y61616690D01*
X46129880Y55223080D01*
Y52555500D01*
X55057880Y43627470D01*
Y35950100D01*
X2449980Y23599980D02*
Y14349990D01*
X2949980Y13849990D01*
X5249950D01*
X7749950Y11349990D01*
X10349970D01*
X11249990Y10449990D01*
Y8799980D01*
X13599980Y6449980D01*
X24149990D01*
X25149990Y7449970D01*
Y8899980D01*
X2449980Y37309990D02*
Y23599980D01*
X2449980Y57629990D02*
Y37309990D01*
X2449980Y77949990D02*
Y57629990D01*
X2449980Y98299980D02*
Y77949990D01*
X63349990Y47499980D02*
Y49291500D01*
X62908180Y49733280D01*
Y52113590D01*
X46029960Y93654980D02*
X38599980Y101084990D01*
Y112649990D01*
X8750000Y27249990D02*
Y16349980D01*
X11599950Y13499980D01*
Y9299980D01*
X13799950Y7099990D01*
X24099950D01*
X24449990Y7449970D01*
Y8150000D01*
X8750000Y37325000D02*
Y27249990D01*
X8750000Y54483180D02*
Y47099980D01*
X9050000Y46799990D01*
Y41200000D01*
X8750000Y40900000D01*
Y37325000D01*
X8750000Y57591000D02*
Y54483180D01*
X8750000Y77964970D02*
Y68679980D01*
X9350000Y68079980D01*
Y60908770D01*
X8750000Y60308770D01*
Y57591000D01*
X8750000Y98284970D02*
Y88999980D01*
X9350000Y88399980D01*
Y81511680D01*
X8750000Y80911680D01*
Y77964970D01*
X14149990Y109319090D02*
X8750000Y103919070D01*
Y98284970D01*
X46029960Y91114980D02*
X37699980Y99444990D01*
Y113249990D01*
X9350000Y28100000D02*
Y50160000D01*
Y60117080D01*
X9750000Y60517080D01*
Y69129990D01*
X9350000Y69529990D01*
Y70479970D01*
Y80858180D01*
X9750000Y81258180D01*
Y89449990D01*
X9350000Y89849990D01*
Y90799970D01*
Y103269090D01*
X14800000Y108719090D01*
Y111099980D01*
X25849990Y27549990D02*
Y26849990D01*
X25649960Y26649990D01*
Y22050000D01*
X25949990Y21750000D01*
Y14549990D01*
X46029960Y88574980D02*
X36699950Y97904990D01*
Y113899980D01*
X10050000Y50909980D02*
Y28849980D01*
X10050000Y71229980D02*
Y70279970D01*
X10149970Y70179970D01*
Y60240570D01*
X10050000Y60140570D01*
Y50909980D01*
X10050000Y91549980D02*
Y90599970D01*
X10149970Y90499970D01*
Y80958690D01*
X10050000Y80858690D01*
Y71229980D01*
X15500000Y111899980D02*
Y108611570D01*
X10050000Y103161570D01*
Y91549980D01*
X26999970Y15300000D02*
Y16699990D01*
X27900000Y17599990D01*
Y22499980D01*
X26999970Y23399980D01*
Y24099980D01*
X46029960Y86034980D02*
X35699980Y96364990D01*
Y114499980D01*
X10699980Y51709980D02*
Y29849980D01*
X10699980Y72029980D02*
Y51709980D01*
X10699980Y92349980D02*
Y72029980D01*
X16200000Y112699980D02*
Y108643680D01*
X10699980Y103143690D01*
Y92349980D01*
X27700000Y16049980D02*
Y16899990D01*
X28200000Y17399990D01*
Y22750000D01*
X27889960Y23059980D01*
Y25649990D01*
X28049960Y25809980D01*
Y27400000D01*
Y28100000D01*
X27700000Y28449980D01*
Y39845080D01*
X30830880Y42975990D01*
Y44581090D01*
X27849960Y55413790D02*
Y50999980D01*
X31649980Y47199980D01*
Y43665880D01*
X27849960Y72059980D02*
Y55413790D01*
X27849960Y88499980D02*
Y85666580D01*
X27500000Y85316570D01*
Y77737490D01*
X27849960Y77387480D01*
Y72059980D01*
X27849960Y92379980D02*
Y88499980D01*
X27852780Y115967970D02*
X27849960Y115965180D01*
Y92379980D01*
X28549980Y24049990D02*
Y16699990D01*
X31649980Y43665880D02*
Y42832890D01*
X29100000Y40282880D01*
Y28349980D01*
X28800000Y28049980D01*
Y25799980D01*
X28549980Y25549990D01*
Y24049990D01*
X27200000Y51749990D02*
Y26399980D01*
X26349990Y25549990D01*
Y22799980D01*
X27349990Y21799980D01*
X27300000D01*
Y18758590D01*
X26576580Y18035200D01*
Y17372180D01*
X27200000Y71299780D02*
Y51749990D01*
X27200000Y87299980D02*
Y71299780D01*
X27200000Y91579980D02*
Y87299980D01*
X27200000Y111899980D02*
Y91579980D01*
X32999990Y16350690D02*
Y24249990D01*
X33550000Y24799980D01*
Y27249990D01*
X26599950Y50749990D02*
Y26649990D01*
X26049990Y26099980D01*
Y22250000D01*
X26549990Y21750000D01*
Y19499990D01*
X26599950Y70459980D02*
Y50749990D01*
X26599950Y90779980D02*
Y70459980D01*
X26599950Y111099980D02*
Y90779980D01*
X34999980Y19499990D02*
Y21550000D01*
X34050000Y22499980D01*
Y23799980D01*
X12399980Y9699980D02*
Y11299980D01*
X12099980Y11599980D01*
Y28700000D01*
X19749980Y36349990D01*
Y40539980D01*
X18149980Y42139970D01*
Y48809990D01*
X19749980Y50409990D01*
Y60859980D01*
X18149980Y62459970D01*
Y69129990D01*
X19749980Y70729990D01*
Y81179980D01*
X18149980Y82779970D01*
Y89449990D01*
X19749980Y91049990D01*
Y101499980D01*
X28349980Y12749990D02*
Y5699990D01*
X26099980Y3449980D01*
Y2449980D01*
X94289960Y58729980D02*
Y56170200D01*
X91469770Y53349980D01*
X77999970D01*
X76949990Y52299970D01*
Y51449990D01*
X94289960Y73969980D02*
Y58729980D01*
X94289960Y87939980D02*
Y73969980D01*
X94289960Y103179980D02*
Y87939980D01*
X94289960Y113449990D02*
Y103179980D01*
X14700000Y8250000D02*
Y26599970D01*
X13599980Y27700000D01*
Y29449980D01*
X20399990Y36249990D01*
Y41339980D01*
X18649980Y43089980D01*
Y48759980D01*
X20399990Y50509990D01*
Y61659980D01*
X18649980Y63409980D01*
Y69079980D01*
X20399990Y70829990D01*
Y81979980D01*
X18649980Y83729980D01*
Y89399980D01*
X20399990Y91149990D01*
Y102299980D01*
X29149980Y12099980D02*
Y5799990D01*
X27249990Y3899990D01*
Y3049980D01*
X93649980Y114299980D02*
Y104449980D01*
X93654960D01*
X93654960Y59999980D02*
Y56139490D01*
X91165450Y53649980D01*
X77599950D01*
X76349960Y52400000D01*
Y47550000D01*
X93654960Y75239980D02*
Y59999980D01*
X93654960Y89209980D02*
Y75239980D01*
X93654960Y104449980D02*
Y89209980D01*
X6899990Y14099970D02*
Y46909990D01*
Y67229990D01*
Y87549990D01*
Y103149990D01*
X6749980Y103299970D01*
Y106249980D01*
X8450000Y107949980D01*
Y108649980D01*
X15649980Y107049980D02*
X17833880Y109233870D01*
Y112100770D01*
X24043490Y118310380D01*
X56539560D01*
X60634960Y114214990D01*
Y105719980D01*
X60634960Y61269980D02*
Y56864990D01*
X62549990Y54949980D01*
X66549980D01*
X69199990Y52299970D01*
Y47550000D01*
X60634960Y76509980D02*
Y61269980D01*
X60634960Y90479980D02*
Y76509980D01*
X60634960Y105719980D02*
Y90479980D01*
X6299960Y15049990D02*
Y46109990D01*
Y66429990D01*
Y86749990D01*
Y106549980D01*
X7299990Y107549980D01*
Y108549980D01*
X16300000Y106249980D02*
Y107071980D01*
X18226990Y108998970D01*
Y111536480D01*
X24636100Y117945590D01*
X56104390D01*
X59999960Y114049990D01*
Y106989980D01*
X59999960Y62539980D02*
Y56699990D01*
X62049990Y54649980D01*
X66149960D01*
X68549950Y52249990D01*
Y51449990D01*
X59999960Y77779980D02*
Y62539980D01*
X59999960Y91749980D02*
Y77779980D01*
X59999960Y106989980D02*
Y91749980D01*
X5699990Y16000000D02*
Y42059990D01*
Y62379990D01*
Y82699990D01*
Y102499980D01*
X16899970Y103899970D02*
Y107035070D01*
X18626480Y108761580D01*
Y111062980D01*
X25182680Y117619170D01*
X55530780D01*
X59364960Y113784990D01*
Y108259980D01*
X59364960Y63809980D02*
Y56584980D01*
X61599980Y54349980D01*
X65799970D01*
X67899990Y52249990D01*
Y47550000D01*
X59364960Y79049980D02*
Y63809980D01*
X59364960Y93019980D02*
Y79049980D01*
X59364960Y108259980D02*
Y93019980D01*
X5099990Y16949980D02*
Y41259990D01*
Y61579990D01*
Y81899990D01*
Y101699980D01*
X17499990Y103099970D02*
Y107041390D01*
X19079390Y108620790D01*
Y110530290D01*
X25861090Y117311990D01*
X54887980D01*
X58729960Y113469980D01*
Y109529980D01*
X58729960Y65079980D02*
Y56419980D01*
X61099980Y54049980D01*
X65449990D01*
X67249980Y52249990D01*
Y51449990D01*
X58729960Y80319980D02*
Y65079980D01*
X58729960Y94289980D02*
Y80319980D01*
X58729960Y109529980D02*
Y94289980D01*
X4449980Y17949980D02*
Y40409980D01*
Y60729980D01*
Y81049980D01*
Y100899980D01*
X18149980Y102299980D02*
Y107039970D01*
X19604080Y108494070D01*
Y110210170D01*
X26341100Y116947190D01*
X54402760D01*
X58094960Y113254970D01*
Y110799980D01*
X58094960Y66349980D02*
Y56305000D01*
X60649970Y53749980D01*
X65049990D01*
X66599970Y52199970D01*
Y47550000D01*
X58094960Y81589980D02*
Y66349980D01*
X58094960Y95559980D02*
Y81589980D01*
X58094960Y110799980D02*
Y95559980D01*
X3700000Y18849980D02*
Y39659990D01*
Y59979990D01*
Y80299970D01*
Y100049990D01*
X18143960Y101299980D02*
X18749980Y101905970D01*
Y107010380D01*
X20050560Y108310990D01*
Y109699280D01*
X26933650Y116582370D01*
X54167590D01*
X57459960Y113289970D01*
Y112069980D01*
X57459960Y67619980D02*
Y56089980D01*
X60099980Y53449980D01*
X64699950D01*
X65949960Y52199970D01*
Y51449990D01*
X57459960Y82859980D02*
Y67619980D01*
X57459960Y96829980D02*
Y82859980D01*
X57459960Y112069980D02*
Y96829980D01*
X21050000Y42139970D02*
Y36099980D01*
X15700000Y30749980D01*
Y10249990D01*
X21050000Y62459970D02*
Y50579990D01*
X19129990Y48659980D01*
Y44059990D01*
X21050000Y42139970D01*
X21050000Y82779970D02*
Y70899990D01*
X19129990Y68979980D01*
Y64379990D01*
X21050000Y62459970D01*
X21050000Y103099970D02*
Y91219990D01*
X19129990Y89299980D01*
Y84699990D01*
X21050000Y82779970D01*
X28500000Y3349980D02*
Y4450010D01*
X29849980Y5799990D01*
Y11349990D01*
X75699980Y51449990D02*
Y52600000D01*
X77049990Y53949980D01*
X90814960D01*
X93019960Y56154980D01*
Y61269980D01*
Y76509980D01*
Y90479980D01*
Y105719980D01*
Y115099980D01*
X30789960Y111434980D02*
Y113549990D01*
X30799990D01*
X16699970Y8250000D02*
Y30949980D01*
X21699960Y35949990D01*
Y42940000D01*
X19529990Y45110000D01*
Y48559980D01*
X21699960Y50729970D01*
Y63259970D01*
X19529990Y65429970D01*
Y68879980D01*
X21699960Y71049970D01*
Y83579970D01*
X19529990Y85749970D01*
Y89199980D01*
X21699960Y91369970D01*
Y103899970D01*
X30599990Y10649990D02*
Y9099980D01*
X31149980Y8550000D01*
Y5949980D01*
X29799990Y4599990D01*
Y3649980D01*
X92384960Y62539980D02*
Y56127980D01*
X90506960Y54249980D01*
X76549960D01*
X75049990Y52749990D01*
Y47550000D01*
X92384960Y77779980D02*
Y62539980D01*
X92384960Y91749980D02*
Y77779980D01*
X92384960Y106989980D02*
Y91749980D01*
X92384960Y118249980D02*
Y106989980D01*
X20149950Y45339990D02*
X22399980Y43089980D01*
Y35849990D01*
X18199990Y31649980D01*
Y10249990D01*
X20149950Y65659990D02*
X22350000Y63459970D01*
Y50760000D01*
X20149950Y48559980D01*
Y45339990D01*
X20149950Y85979990D02*
X22350000Y83779970D01*
Y71079970D01*
X20149950Y68879980D01*
Y65659990D01*
X20149950Y106299990D02*
X22350000Y104099970D01*
Y91399970D01*
X20149950Y89199980D01*
Y85979990D01*
X31049980Y3949980D02*
Y5049980D01*
X31699960Y5699990D01*
Y8699990D01*
X31349980Y9050000D01*
Y9950000D01*
X74399980Y51449990D02*
Y52900000D01*
X76049990Y54549980D01*
X90166090D01*
X91749960Y56133880D01*
Y63809980D01*
Y79049980D01*
Y93019980D01*
Y108259980D01*
Y115749990D01*
X30789960Y106354980D02*
X32549980Y108114980D01*
Y110249970D01*
X20749970Y46139990D02*
X23149970Y43740000D01*
Y35799980D01*
X19849980Y32499990D01*
Y27449990D01*
X19199960Y26799970D01*
Y8250000D01*
X20749970Y66459990D02*
X22999980Y64209980D01*
Y50809980D01*
X20749970Y48559980D01*
Y46139990D01*
X20749970Y86779990D02*
X22999980Y84529980D01*
Y71129980D01*
X20749970Y68879980D01*
Y66459990D01*
X20749970Y107099990D02*
X22999980Y104849980D01*
Y91449980D01*
X20749970Y89199980D01*
Y86779990D01*
X32699990Y3849980D02*
X32049980Y4499990D01*
Y9199980D01*
X73749940Y47550000D02*
Y53200000D01*
X75399980Y54849980D01*
X89843790D01*
X91114960Y56121180D01*
Y65079980D01*
Y80319980D01*
Y94289980D01*
Y109529980D01*
Y116649990D01*
X30789960Y103814980D02*
X33550000Y106574970D01*
Y110849970D01*
X21350000Y46939990D02*
X23899980Y44389980D01*
Y35649990D01*
X20199990Y31949980D01*
Y10249990D01*
X21350000Y67259990D02*
X23599980Y65009980D01*
Y50809980D01*
X21350000Y48559980D01*
Y46939990D01*
X21350000Y87579990D02*
X23599980Y85329980D01*
Y71129980D01*
X21350000Y68879980D01*
Y67259990D01*
X21350000Y107899990D02*
X23599980Y105649980D01*
Y91449980D01*
X21350000Y89199980D01*
Y87579990D01*
X32699990Y4850010D02*
Y8399990D01*
X73099980Y51449990D02*
Y53400000D01*
X74849990Y55149980D01*
X89578790D01*
X90479960Y56051200D01*
Y66349980D01*
Y81589980D01*
Y95559980D01*
Y110799980D01*
Y117549980D01*
X30789960Y101274980D02*
X34550000Y105034970D01*
Y111449970D01*
X22050000Y47739990D02*
X24649990Y45139990D01*
Y35549990D01*
X21199990Y32099990D01*
Y8250000D01*
X22050000Y68059990D02*
X24249990Y65859990D01*
Y50709980D01*
X22050000Y48509990D01*
Y47739990D01*
X22050000Y88379990D02*
X24249990Y86179990D01*
Y71029980D01*
X22050000Y68829990D01*
Y68059990D01*
X22050000Y108699990D02*
X24249990Y106499990D01*
Y91349980D01*
X22050000Y89149990D01*
Y88379990D01*
X72449970Y47550000D02*
Y53700000D01*
X74199980Y55449980D01*
X89202670D01*
X89844960Y56092300D01*
Y67619980D01*
Y82859980D01*
Y96829980D01*
Y112069980D01*
Y118349980D01*
X8150000Y12049990D02*
Y41200000D01*
X8699990Y41749980D01*
Y46199990D01*
X8150000Y46750000D01*
Y48509990D01*
Y60477380D01*
X8950000Y61277380D01*
Y67079980D01*
X8150000Y67879980D01*
Y68829990D01*
Y80965090D01*
X8950000Y81765090D01*
Y87399980D01*
X8150000Y88199980D01*
Y89149990D01*
Y103099970D01*
X8299990Y103249990D01*
Y105149980D01*
X10799980Y107649980D01*
Y108699990D01*
X16799970Y110099990D02*
Y112643770D01*
X23206150Y119049980D01*
X57599990D01*
X61904960Y114744990D01*
Y103179980D01*
X61904960Y58729980D02*
Y56845000D01*
X63199980Y55549980D01*
X69849980D01*
X70799990Y54599990D01*
Y51449990D01*
X61904960Y73969980D02*
Y58729980D01*
X61904960Y87939980D02*
Y73969980D01*
X61904960Y103179980D02*
Y87939980D01*
X7499990Y47709990D02*
Y46599990D01*
X8350000Y45749970D01*
Y42349980D01*
X7549950Y41549980D01*
Y13099980D01*
X7499990Y68029990D02*
Y67129990D01*
X8550000Y66079980D01*
Y61646080D01*
X7499990Y60596070D01*
Y47709990D01*
X7499990Y88349990D02*
Y87449990D01*
X8550000Y86399980D01*
Y81949390D01*
X7499990Y80899380D01*
Y68029990D01*
X9699980Y108649980D02*
Y107299990D01*
X7099990Y104699970D01*
Y103599970D01*
X7499990Y103199970D01*
Y88349990D01*
X61269960Y59999980D02*
Y75239980D01*
Y89209980D01*
Y104449980D01*
Y114429970D01*
X57024780Y118675180D01*
X23563480D01*
X17399990Y112511690D01*
Y109699990D01*
X16799970Y109099990D01*
X70499990Y47550000D02*
Y49234980D01*
X70034990Y49699980D01*
Y52414990D01*
X67199940Y55249980D01*
X62899980D01*
X61269960Y56879980D01*
Y59999980D01*
X53200000Y1549990D02*
Y9499980D01*
X63315190Y19615180D01*
Y22208190D01*
X64649990Y23542980D01*
Y24199980D01*
X62539960Y86669980D02*
Y74009990D01*
X63149990Y73399980D01*
Y63399980D01*
X71349950Y55199990D01*
Y52299970D01*
X71649970Y51999970D01*
Y46350000D01*
X64649990Y39349990D01*
Y24199980D01*
X62539960Y101909980D02*
Y86669980D01*
X78795960Y101909980D02*
X77398960Y100512980D01*
X76949990Y100499980D01*
X75899980D01*
X74649990Y99249970D01*
X94924960Y86669980D02*
Y101909980D01*
X15253770Y39724990D02*
Y60044990D01*
Y80364990D01*
Y96689980D01*
X17052190Y98488380D01*
Y100136990D01*
X17309390Y34934980D02*
X15996190D01*
X15253770Y35677380D01*
Y39724990D01*
X42349980Y26399980D02*
Y25499980D01*
X44299990Y23549990D01*
Y16799990D01*
Y12949990D01*
X46350000Y10899980D01*
Y3249980D01*
X83199990Y43949980D02*
X89199980D01*
X91549960Y41600000D01*
X94749980D01*
X112379990Y58729980D02*
X111156550Y57506590D01*
X102152990D01*
X93909770Y49263380D01*
X81365780D01*
X77878990Y45776590D01*
X72912580D01*
X67121890Y39985880D01*
Y37656290D01*
X58729960Y25798990D02*
Y27702790D01*
X60984970Y29957780D01*
Y31584980D01*
X107299990Y61269980D02*
X103407590D01*
X92046070Y49908490D01*
X81222340D01*
X77556460Y46242580D01*
X72646490D01*
X65934970Y39531090D01*
Y29502690D01*
X59992290Y26077400D02*
Y21599980D01*
X60245750Y21346490D01*
Y20332780D01*
X52349990Y2250010D02*
Y18299990D01*
X54100000Y20049980D01*
Y21899980D01*
Y23849990D01*
X52849990Y25099980D01*
Y26349990D01*
X79299970Y44599990D02*
X89899980D01*
X91649960Y42849980D01*
X94749980D01*
X107299990Y23169980D02*
X101749960Y17619980D01*
Y4650010D01*
X42349980Y28900000D02*
Y28100000D01*
X45299990Y25149990D01*
Y18099990D01*
Y14249990D01*
X47350000Y12199980D01*
Y4650010D01*
D11*
X76649990Y36899980D03*
X83599990Y18749980D03*
X98829980Y36504980D03*
X90349990Y14500000D03*
X92999970Y7950000D03*
X92349980Y12999980D03*
X97649970D03*
X89649990Y23799980D03*
X94949980D03*
X77549980Y35150000D03*
X98829980Y33964980D03*
X72099990Y19349970D03*
X74849990Y39434970D03*
X77549980Y32949970D03*
X98858150Y30154980D03*
X78449990Y34299980D03*
X98829980Y31424980D03*
X78549980Y35999980D03*
X98829980Y35234980D03*
X50099980Y10449990D03*
X56749970Y30299990D03*
X77597380Y38834970D03*
X98829980Y37774980D03*
X50099980Y95699990D03*
X56949970Y34850000D03*
X47049990Y37799980D03*
Y48349990D03*
X33699990Y2600000D03*
Y8399990D03*
X49199980Y2600000D03*
X53284990Y33534990D03*
X52849990Y35150000D03*
X61449990Y40049990D03*
X54100000Y9199980D03*
X65299970Y25249990D03*
X24749990Y18899990D03*
X25399970Y48061370D03*
Y68859990D03*
Y89179980D03*
Y109499990D03*
X31049980Y23818190D03*
X31449980Y18899990D03*
X44999980Y62549990D03*
Y67619980D03*
X54100000Y12999980D03*
X57332480Y27962890D03*
X70949950Y40635000D03*
X73449940Y5999990D03*
X78408960Y42634990D03*
X86268180Y41253080D03*
X74849990Y7299980D03*
X75649990Y41349980D03*
X49749990Y61299980D03*
X52499970Y98099980D03*
X65350470Y22465590D03*
X69199990Y29649980D03*
X78449990Y32049970D03*
X98858150Y28884980D03*
X3049980Y14900000D03*
Y38109980D03*
Y58429980D03*
Y78749980D03*
Y99099980D03*
X28973850Y95599990D03*
X36349990Y3549980D03*
Y7749970D03*
X54100000Y11749990D03*
X56189960Y57459980D03*
Y72699980D03*
X62649990Y29249980D03*
X72649970Y55799990D03*
X88574950Y57459980D03*
X89244990Y72699980D03*
X39649990Y68899990D03*
X43499990Y59750000D03*
X85849970Y52199970D03*
X94924960Y56189980D03*
X32399990Y39724990D03*
X34099990Y64999970D03*
X50899980Y65099970D03*
X52049990Y113349990D03*
X76449960Y67349980D03*
X78599970Y71399990D03*
X45849950Y63799970D03*
Y69549970D03*
X28527380Y81442590D03*
X32149970Y63799970D03*
X33049950Y62549990D03*
X34799980Y100099980D03*
X37849990Y65099970D03*
X42462100Y32274990D03*
X76462050Y37962180D03*
X83261380Y46646980D03*
X39900000Y3600020D03*
Y20650000D03*
X45576980Y51459790D03*
X76299970Y24749990D03*
X77549980Y3649980D03*
X102549980D03*
X107140580Y17890590D03*
X14324460Y38924990D03*
Y59244990D03*
Y79564970D03*
X15815690Y99205090D03*
X36837060Y13940480D03*
X44985490Y54908190D03*
X56851200Y99823370D03*
X64634980Y52427480D03*
X1800000Y36509980D03*
Y56829990D03*
Y77149990D03*
Y97499990D03*
X11449990Y3884800D03*
X25949980Y9599980D03*
X47699980Y92349980D03*
X25349960Y20199980D03*
X25999980Y49749990D03*
Y69659980D03*
Y89979980D03*
Y96049970D03*
Y110299980D03*
X34049990Y20199980D03*
X34699980Y8350000D03*
X19149970Y38939980D03*
Y51147470D03*
Y71432980D03*
Y91653080D03*
Y96049970D03*
X20906180Y109550070D03*
X33149950Y97549970D03*
X18499990Y38139980D03*
Y58459980D03*
Y78779980D03*
Y99099980D03*
X29149980Y21599980D03*
X29449980Y27399990D03*
X17899990Y37339980D03*
Y57659980D03*
Y77979980D03*
Y98299980D03*
X17249980Y36539990D03*
Y56859980D03*
Y77179990D03*
Y97499990D03*
X16649980Y35739990D03*
Y56059990D03*
Y76379990D03*
Y96699990D03*
X28518390Y57715170D03*
X28767990Y76364980D03*
X28980480Y98346180D03*
X29758690Y35724980D03*
X29798700Y23758090D03*
X32049970Y15274190D03*
Y23799980D03*
X36949990Y34049990D03*
X37917380Y61269980D03*
X30411500Y18177280D03*
X31486680Y30869790D03*
X36249990Y33149970D03*
X37884180Y62539980D03*
X39736300Y63809980D03*
X55057880Y35950100D03*
X2449980Y23599980D03*
Y37309990D03*
Y57629990D03*
Y77949990D03*
Y98299980D03*
X25149990Y8899980D03*
X62908180Y52113580D03*
X63349990Y47499980D03*
X8750000Y27249990D03*
Y37324990D03*
Y54483180D03*
Y57591000D03*
Y77964970D03*
Y98284970D03*
X14149990Y109319080D03*
X24449990Y8150000D03*
X38599980Y112649990D03*
X9350000Y28099990D03*
Y50159990D03*
Y70479970D03*
Y90799970D03*
X14800000Y111099980D03*
X25849980Y27549990D03*
X25949980Y14549990D03*
X37699980Y113249990D03*
X10050000Y28849980D03*
Y50909980D03*
Y71229980D03*
Y91549980D03*
X15500000Y111899980D03*
X26999970Y15300000D03*
Y24099970D03*
X36699950Y113899980D03*
X10699980Y29849980D03*
Y51709980D03*
Y72029980D03*
Y92349980D03*
X16200000Y112699980D03*
X27699990Y16049980D03*
X28049960Y27399990D03*
X30830880Y44581090D03*
X35699980Y114499980D03*
X27849950Y55413790D03*
Y72059980D03*
Y88499970D03*
Y92379980D03*
X27852770Y115967960D03*
X28549980Y16699990D03*
Y24049990D03*
X31649970Y43665880D03*
X26576580Y17372180D03*
X27199990Y51749980D03*
Y71299780D03*
Y87299980D03*
Y91579980D03*
Y111899980D03*
X32999980Y16350690D03*
X33549990Y27249990D03*
X26549990Y19499990D03*
X26599950Y50749980D03*
Y70459980D03*
Y90779980D03*
Y111099980D03*
X34049990Y23799980D03*
X34999980Y19499990D03*
X12399980Y9699980D03*
X19749980Y40539980D03*
Y60859980D03*
Y81179980D03*
Y101499970D03*
X26099970Y2449980D03*
X28349980Y12749980D03*
X76949990Y51449990D03*
X94289950Y58729980D03*
Y73969980D03*
Y87939980D03*
Y103179980D03*
Y113449990D03*
X14700000Y8250000D03*
X20399980Y41339980D03*
Y61659980D03*
Y81979980D03*
Y102299970D03*
X27249990Y3049980D03*
X29149980Y12099980D03*
X76349960Y47549990D03*
X93649980Y114299980D03*
X93654960Y59999980D03*
Y75239980D03*
Y89209980D03*
Y104449980D03*
X6899980Y14099970D03*
Y46909990D03*
Y67229990D03*
Y87549990D03*
X8450000Y108649980D03*
X15649980Y107049980D03*
X60634960Y61269980D03*
Y76509980D03*
Y90479980D03*
Y105719980D03*
X69199990Y47549990D03*
X6299960Y15049990D03*
Y46109990D03*
Y66429990D03*
Y86749990D03*
X7299980Y108549980D03*
X16300000Y106249980D03*
X59999950Y62539980D03*
Y77779980D03*
Y91749980D03*
Y106989980D03*
X68549950Y51449990D03*
X5699990Y16000000D03*
Y42059990D03*
Y62379990D03*
Y82699990D03*
Y102499970D03*
X16899960Y103899970D03*
X59364950Y63809980D03*
Y79049980D03*
Y93019980D03*
Y108259980D03*
X67899990Y47549990D03*
X5099990Y16949980D03*
Y41259990D03*
Y61579990D03*
Y81899990D03*
Y101699980D03*
X17499990Y103099970D03*
X58729960Y65079980D03*
Y80319980D03*
Y94289980D03*
Y109529980D03*
X67249980Y51449990D03*
X4449980Y17949980D03*
Y40409980D03*
Y60729980D03*
Y81049980D03*
Y100899980D03*
X18149970Y102299970D03*
X58094960Y66349980D03*
Y81589980D03*
Y95559980D03*
Y110799980D03*
X66599970Y47549990D03*
X3699990Y18849970D03*
Y39659990D03*
Y59979990D03*
Y80299970D03*
Y100049990D03*
X18143960Y101299970D03*
X57459960Y67619980D03*
Y82859980D03*
Y96829980D03*
Y112069980D03*
X65949950Y51449990D03*
X15700000Y10249990D03*
X21050000Y42139970D03*
Y62459970D03*
Y82779970D03*
Y103099970D03*
X28500000Y3349980D03*
X29849980Y11349990D03*
X75699980Y51449990D03*
X93019960Y61269980D03*
Y76509980D03*
Y90479980D03*
Y105719980D03*
Y115099980D03*
X16699960Y8250000D03*
X21699960Y42940000D03*
Y63259970D03*
Y83579970D03*
Y103899970D03*
X29799990Y3649980D03*
X30599990Y10649990D03*
X30799990Y113549990D03*
X75049990Y47549990D03*
X92384950Y62539980D03*
Y77779980D03*
Y91749980D03*
Y106989980D03*
Y118249980D03*
X18199990Y10249990D03*
X20149950Y45339990D03*
Y65659990D03*
Y85979990D03*
Y106299990D03*
X31049980Y3949980D03*
X31349970Y9950000D03*
X74399980Y51449990D03*
X91749960Y63809980D03*
Y79049980D03*
Y93019980D03*
Y108259980D03*
Y115749990D03*
X19199960Y8250000D03*
X20749970Y46139990D03*
Y66459990D03*
Y86779990D03*
Y107099990D03*
X32049970Y9199980D03*
X32549970Y110249970D03*
X32699980Y3849980D03*
X73749940Y47549990D03*
X91114960Y65079980D03*
Y80319980D03*
Y94289980D03*
Y109529980D03*
Y116649990D03*
X20199980Y10249990D03*
X21350000Y46939990D03*
Y67259990D03*
Y87579990D03*
Y107899990D03*
X32699980Y4850000D03*
Y8399990D03*
X33549990Y110849970D03*
X73099980Y51449990D03*
X90479960Y66349980D03*
Y81589980D03*
Y95559980D03*
Y110799980D03*
Y117549980D03*
X21199980Y8250000D03*
X22050000Y47739990D03*
Y68059990D03*
Y88379980D03*
Y108699990D03*
X34549990Y111449970D03*
X72449970Y47549990D03*
X89844960Y67619980D03*
Y82859980D03*
Y96829980D03*
Y112069980D03*
Y118349980D03*
X8150000Y12049990D03*
Y48509980D03*
Y68829990D03*
Y89149990D03*
X10799980Y108699990D03*
X16799970Y110099990D03*
X61904960Y58729980D03*
Y73969980D03*
Y87939980D03*
Y103179980D03*
X70799980Y51449990D03*
X7499990Y47709990D03*
Y68029990D03*
Y88349990D03*
X7549950Y13099970D03*
X9699980Y108649980D03*
X16799970Y109099990D03*
X61269960Y59999980D03*
Y75239980D03*
Y89209980D03*
Y104449980D03*
X70499990Y47549990D03*
X7699980Y42989990D03*
Y63309990D03*
Y83629980D03*
Y103949990D03*
X12699980Y5099990D03*
X14399970Y28899990D03*
X22199980Y5099990D03*
X28369970Y28899990D03*
X28500000Y45289980D03*
Y65609980D03*
Y85929980D03*
Y106249980D03*
X30549950Y8250000D03*
X33149950Y46449990D03*
X34449990Y54899990D03*
Y58099990D03*
Y66349980D03*
X34499960Y73349970D03*
X37849990Y70149980D03*
X39049990Y17299990D03*
X40500000Y23149990D03*
X45899990Y58099990D03*
X48649970Y56549970D03*
X49249990Y68899990D03*
X50699980Y15549980D03*
X51744960Y59872980D03*
Y75112980D03*
Y90352980D03*
Y105592980D03*
X54049980Y40199990D03*
X55935950Y25798990D03*
X57099960Y32249980D03*
Y45899990D03*
X60499980Y8550000D03*
X62199950Y7299980D03*
X63999970Y25299980D03*
X65299970Y47449990D03*
X66222960Y67619980D03*
Y82859980D03*
Y98099980D03*
Y113339980D03*
X67499940Y13649990D03*
X70629990Y87939980D03*
Y103179980D03*
X71949970Y22250000D03*
Y54549980D03*
X72099990Y20650000D03*
X76999970Y29549980D03*
X77649990Y47549990D03*
X79299970Y43299990D03*
X79684950Y101909980D03*
X79811960Y71429980D03*
Y86669980D03*
X80738980Y56189980D03*
X83299980Y33549990D03*
X85899980Y16849980D03*
Y20650000D03*
X86249940Y36599980D03*
X89649990Y10449990D03*
X98607950Y67619980D03*
Y82859980D03*
Y98099980D03*
Y113339980D03*
X101049990Y10449990D03*
Y21250000D03*
X103349990Y109549970D03*
X103949990Y112699980D03*
X107599990Y10599980D03*
X53200000Y1549990D03*
X62539960Y86669980D03*
Y101909980D03*
X64649990Y24199980D03*
X74649990Y99249970D03*
X78795950Y101909980D03*
X94924960Y86669980D03*
Y101909980D03*
X15253770Y39724990D03*
Y60044990D03*
Y80364990D03*
X17052190Y100136990D03*
X17309390Y34934980D03*
X42349980Y26399970D03*
X44299990Y16799990D03*
X46350000Y3249980D03*
X83199990Y43949980D03*
X94749970Y41600000D03*
X58729960Y25798990D03*
X60984970Y31584970D03*
X67121890Y37656290D03*
X59992290Y26077400D03*
X60245750Y20332780D03*
X65934970Y29502690D03*
X52349990Y2250010D03*
X52849990Y26349980D03*
X54100000Y21899980D03*
X79299970Y44599990D03*
X94749970Y42849980D03*
X7699980Y45289980D03*
Y65609980D03*
Y85929980D03*
Y106249980D03*
X17699990Y5099990D03*
X19239960Y28870000D03*
X28500000Y42989990D03*
Y63309990D03*
Y83629980D03*
Y103949990D03*
X29649980Y58099990D03*
Y73349970D03*
X30899990Y46449990D03*
X33209960Y28870000D03*
X33954600Y53671680D03*
X34399960Y67599970D03*
X39099980Y12599980D03*
X40249980Y65099970D03*
Y67599970D03*
X40500000Y19349970D03*
X41100000Y58099990D03*
X41249980Y46949990D03*
X43649980Y63799970D03*
Y68899990D03*
X47650000Y26399970D03*
Y28899990D03*
X48099980Y31399990D03*
Y33949990D03*
Y36499980D03*
Y39049990D03*
X50699980Y20650000D03*
X51744960Y55046980D03*
Y70286980D03*
Y85526980D03*
Y100766980D03*
X54049980Y37899980D03*
X58729960Y21048980D03*
X61523960D03*
X62699970Y10499980D03*
Y13649990D03*
X69649980Y22250000D03*
Y54500000D03*
X70673880Y72699980D03*
X70682890Y57459980D03*
X72549970Y10449990D03*
X73749940Y29549980D03*
X75999970Y10499980D03*
X78949950Y29549980D03*
X83249970Y29649980D03*
X85899980Y10449990D03*
X86249940Y38899980D03*
X88324970Y101909980D03*
X88336550Y86669980D03*
X88360960Y71399990D03*
X88476180Y56189980D03*
X88479980Y28884980D03*
Y41584980D03*
X108749980Y112699980D03*
X109349950Y109549970D03*
X42349980Y28899990D03*
X45299990Y18099990D03*
X47350000Y4650010D03*
X101749960D03*
D12*
X46029960Y80954980D03*
Y83494980D03*
Y86034980D03*
Y88574980D03*
Y91114980D03*
Y93654980D03*
Y96194980D03*
Y98734980D03*
Y101274980D03*
Y103814980D03*
Y106354980D03*
Y108894980D03*
Y111434980D03*
X30789950D03*
Y108894980D03*
Y106354980D03*
Y103814980D03*
Y101274980D03*
Y98734980D03*
Y96194980D03*
Y93654980D03*
Y91114980D03*
Y88574980D03*
Y86034980D03*
Y83494980D03*
Y80954980D03*
Y78414980D03*
D13*
X112379990Y23169980D03*
Y25709980D03*
Y28249980D03*
Y30789980D03*
Y33329980D03*
Y35869980D03*
Y38409980D03*
Y40949980D03*
Y43489980D03*
Y46029980D03*
Y48569980D03*
Y51109980D03*
Y53649980D03*
Y56189980D03*
Y58729980D03*
Y61269980D03*
Y63809980D03*
Y66349980D03*
Y68889980D03*
Y71429980D03*
Y73969980D03*
Y76509980D03*
Y79049980D03*
Y81589980D03*
Y84129980D03*
Y86669980D03*
Y89209980D03*
Y91749980D03*
Y94289980D03*
Y96829980D03*
Y99369980D03*
X109839990Y23169980D03*
Y25709980D03*
Y28249980D03*
Y30789980D03*
Y33329980D03*
Y35869980D03*
Y38409980D03*
Y40949980D03*
Y43489980D03*
Y46029980D03*
Y48569980D03*
Y51109980D03*
Y53649980D03*
Y56189980D03*
Y58729980D03*
Y61269980D03*
Y63809980D03*
Y66349980D03*
Y68889980D03*
Y71429980D03*
Y73969980D03*
Y76509980D03*
Y79049980D03*
Y81589980D03*
Y84129980D03*
Y86669980D03*
Y89209980D03*
Y91749980D03*
Y94289980D03*
Y96829980D03*
Y99369980D03*
X107299990Y23169980D03*
Y25709980D03*
Y28249980D03*
Y30789980D03*
Y33329980D03*
Y35869980D03*
Y38409980D03*
Y40949980D03*
Y43489980D03*
Y46029980D03*
Y48569980D03*
Y51109980D03*
Y53649980D03*
Y56189980D03*
Y58729980D03*
Y61269980D03*
Y63809980D03*
Y66349980D03*
Y68889980D03*
Y71429980D03*
Y73969980D03*
Y76509980D03*
Y79049980D03*
Y81589980D03*
Y84129980D03*
Y86669980D03*
Y89209980D03*
Y91749980D03*
Y94289980D03*
Y96829980D03*
Y99369980D03*
D14*
X46029880Y78414880D03*
D15*
X107299760Y20629880D03*
X109839760D03*
X112379760D03*
D16*
G36*
X110006210Y9970190D02*
X110017740Y9988370D01*
G02*
X110038850Y9999980I21110J-13380D01*
G01*
X119653640D01*
G02*
X119667430Y9995830I0J-24990D01*
G01*
X119688840Y9981660D01*
G02*
X119700040Y9960820I-13790J-20840D01*
G01*
Y5042640D01*
G02*
X119700000Y5041260I-24990J0D01*
G01*
X119678440Y4650130D01*
G02*
X119678230Y4648010I-24960J1370D01*
G01*
X119654890Y4482380D01*
G02*
X119652620Y4474950I-24750J3490D01*
G01*
X119629220Y4305390D01*
G02*
X119628950Y4303770I-24760J3420D01*
G01*
X119620620Y4263260D01*
X119620400Y4262300D01*
X119597630Y4170080D01*
X119590240Y4137510D01*
X119585980Y4114580D01*
G02*
X119585670Y4113160I-24570J4570D01*
G01*
X119568320Y4042840D01*
X119564660Y4024870D01*
X119564520Y4024230D01*
X119542320Y3928270D01*
X119541310Y3923290D01*
G02*
X119541010Y3922030I-24500J5000D01*
G01*
X119522090Y3848940D01*
X119518580Y3833380D01*
X119518420Y3832710D01*
X119502320Y3769470D01*
G02*
X119501930Y3768110I-24220J6170D01*
G01*
X119490580Y3732170D01*
X119490350Y3731490D01*
X119464910Y3658320D01*
X119455080Y3628410D01*
X119442360Y3586790D01*
X119442270Y3586520D01*
X119428300Y3540490D01*
X119428000Y3539550D01*
X119412860Y3495960D01*
X119412600Y3495250D01*
X119393890Y3446240D01*
X119379030Y3405400D01*
X119378820Y3404830D01*
X119365360Y3370440D01*
X119365300Y3370270D01*
X119355620Y3346040D01*
G02*
X119354720Y3344070I-23220J9280D01*
G01*
X119345550Y3325890D01*
X119319640Y3267930D01*
X119300610Y3217640D01*
X119300470Y3217270D01*
X119285310Y3179050D01*
G02*
X119284000Y3176260I-23240J9210D01*
G01*
X119258830Y3130300D01*
X119252750Y3116650D01*
G02*
X119251140Y3113630I-22840J10170D01*
G01*
X119219440Y3043000D01*
X119219390Y3042880D01*
X119206770Y3015150D01*
X119192330Y2983040D01*
G02*
X119191500Y2981370I-22790J10250D01*
G01*
X119191460Y2981290D01*
X119176140Y2953320D01*
X119175870Y2952830D01*
X119175820Y2952750D01*
X119165010Y2934180D01*
X119139240Y2882640D01*
X119139060Y2882290D01*
X119121130Y2846590D01*
X119120610Y2845600D01*
X119083220Y2778820D01*
X119082600Y2777780D01*
X118825910Y2367390D01*
G02*
X118824750Y2365700I-21190J13250D01*
G01*
X118691580Y2187160D01*
X118691000Y2186420D01*
X118550010Y2011560D01*
X118549230Y2010640D01*
X118390650Y1832360D01*
G02*
X118389720Y1831370I-18670J16610D01*
G01*
X118176640Y1616560D01*
G02*
X118175470Y1615450I-17740J17600D01*
G01*
X117997520Y1457890D01*
X117996820Y1457300D01*
X117831560Y1321480D01*
G02*
X117830020Y1320310I-15870J19310D01*
G01*
X117448540Y1053380D01*
X117447570Y1052740D01*
X117447490Y1052680D01*
X117322140Y974100D01*
X117321140Y973510D01*
X117140670Y871750D01*
X117139590Y871170D01*
X116887550Y745160D01*
G02*
X116886030Y744460I-11170J22350D01*
G01*
X116582040Y617180D01*
G02*
X116580530Y616600I-9650J23050D01*
G01*
X116305810Y521940D01*
X116304990Y521670D01*
X116148860Y473770D01*
G02*
X116147320Y473350I-7330J23890D01*
G01*
X115889100Y411880D01*
X115888260Y411700D01*
X115653030Y364170D01*
X115651820Y363960D01*
X115528280Y345260D01*
X115527570Y345170D01*
X115396650Y329190D01*
X115396430Y329170D01*
X115293870Y317560D01*
G02*
X115292570Y317440I-2810J24830D01*
G01*
X115043170Y302310D01*
G02*
X115041660Y302260I-1510J24950D01*
G01*
X110041740D01*
G02*
X110025710Y308080I0J25000D01*
G01*
X110011280Y320150D01*
G02*
X110002320Y339320I16040J19170D01*
G01*
Y4999990D01*
X111749990D01*
G03*
X114999980Y1750000I3249990J0D01*
G03*
X111749990Y4999990I0J3249990D01*
G01*
X110002320D01*
Y9956800D01*
G02*
X110006210Y9970190I25000J0D01*
G01*
G37*
G36*
X302260Y5040230D02*
Y9960820D01*
G02*
X313460Y9981660I25000J0D01*
G01*
X334870Y9995830D01*
G02*
X348670Y9999980I13800J-20840D01*
G01*
X9963460D01*
G02*
X9984590Y9988330I0J-24990D01*
G01*
X9996120Y9970070D01*
G02*
X9999980Y9956730I-21130J-13340D01*
G01*
X9999960Y339500D01*
G02*
X9991060Y320380I-25000J0D01*
G01*
X9976530Y308140D01*
G02*
X9960430Y302260I-16100J19120D01*
G01*
X4943580D01*
G02*
X4941840Y302320I0J25000D01*
G01*
X4675520Y320890D01*
X4674260Y321010D01*
X4476390Y344940D01*
X4475660Y345040D01*
X4352700Y363630D01*
X4351520Y363830D01*
X4132450Y407720D01*
X4131630Y407900D01*
X3860560Y471710D01*
G02*
X3858940Y472150I5730J24330D01*
G01*
X3792440Y492590D01*
X3792200Y492670D01*
X3701750Y520450D01*
X3701080Y520670D01*
X3606460Y552680D01*
X3606330Y552720D01*
X3606250Y552750D01*
X3424470Y616050D01*
G02*
X3423090Y616570I8220J23600D01*
G01*
X3120700Y742280D01*
G02*
X3119120Y743000I9600J23080D01*
G01*
X2861640Y871700D01*
X2860520Y872300D01*
X2860270Y872440D01*
X2678810Y974960D01*
X2677830Y975550D01*
X2537240Y1063690D01*
X2537170Y1063740D01*
X2536120Y1064430D01*
X2167920Y1323760D01*
G02*
X2166430Y1324900I14400J20440D01*
G01*
X1992770Y1467900D01*
X1992020Y1468550D01*
X1817570Y1624220D01*
G02*
X1816420Y1625320I16640J18650D01*
G01*
X1602190Y1842490D01*
G02*
X1601250Y1843500I17800J17550D01*
G01*
X1445150Y2020310D01*
X1444400Y2021190D01*
X1307550Y2191390D01*
X1306990Y2192120D01*
X1172680Y2372230D01*
G02*
X1171510Y2373930I20030J14940D01*
G01*
X1131350Y2438210D01*
G02*
X1129270Y2442360I21200J13250D01*
G01*
X1103090Y2483710D01*
G02*
X1101410Y2486820I21120J13370D01*
G01*
X1059870Y2553060D01*
X1042600Y2580390D01*
G02*
X1040630Y2584190I21130J13360D01*
G01*
X1014190Y2625950D01*
G02*
X1012510Y2629060I21120J13370D01*
G01*
X970920Y2695410D01*
X970850Y2695520D01*
X941710Y2741640D01*
X941490Y2742000D01*
X916670Y2782820D01*
X916180Y2783660D01*
X880860Y2847200D01*
X880350Y2848140D01*
X861550Y2885790D01*
X837270Y2934220D01*
X814960Y2973160D01*
G02*
X814030Y2974940I21690J12410D01*
G01*
X804790Y2994630D01*
X804690Y2994840D01*
X788700Y3029940D01*
X788630Y3030090D01*
X760980Y3092150D01*
G02*
X758900Y3095890I20730J13970D01*
G01*
X746780Y3122930D01*
X732950Y3148870D01*
X732810Y3149130D01*
X712310Y3188800D01*
G02*
X710750Y3192540I22210J11480D01*
G01*
X702590Y3217600D01*
X686310Y3259230D01*
X659140Y3321190D01*
X647950Y3343330D01*
G02*
X647020Y3345410I22310J11280D01*
G01*
X624240Y3402960D01*
X624170Y3403120D01*
X619200Y3416060D01*
X619130Y3416210D01*
X602060Y3461880D01*
X601960Y3462160D01*
X579560Y3524340D01*
X579360Y3524920D01*
X571000Y3550010D01*
X570820Y3550580D01*
X556660Y3596750D01*
X556630Y3596840D01*
X546810Y3629610D01*
X527010Y3687660D01*
X508060Y3743440D01*
X507840Y3744110D01*
X497730Y3776880D01*
G02*
X497290Y3778510I23890J7370D01*
G01*
X374600Y4298780D01*
G02*
X374200Y4300920I24330J5740D01*
G01*
X324720Y4640840D01*
G02*
X324500Y4643040I24740J3600D01*
G01*
X304480Y4999990D01*
X1750010D01*
G03*
X4999990Y1750010I3249980J0D01*
G03*
X1750010Y4999990I0J3249980D01*
G01*
X304480D01*
X302300Y5038830D01*
G02*
X302260Y5040230I24960J1400D01*
G01*
G37*
G36*
X324780Y115362600D02*
X369870Y115670270D01*
X372690Y115692680D01*
G02*
X373000Y115694590I24800J-3120D01*
G01*
X384250Y115749380D01*
X384520Y115750530D01*
X402690Y115821670D01*
X412600Y115867330D01*
X412900Y115869630D01*
G02*
X413400Y115872280I24800J-3230D01*
G01*
X425640Y115922860D01*
X435340Y115964700D01*
X435360Y115964820D01*
X448390Y116019290D01*
X461030Y116076920D01*
X461560Y116081070D01*
G02*
X462250Y116084470I24800J-3190D01*
G01*
X477150Y116138930D01*
X497720Y116224420D01*
G02*
X498120Y116225890I24300J-5850D01*
G01*
X511100Y116268280D01*
X511460Y116269360D01*
X529600Y116320220D01*
X547630Y116375230D01*
X559930Y116415460D01*
X573520Y116460240D01*
X573890Y116461380D01*
X592460Y116513430D01*
X592580Y116513770D01*
X606370Y116550720D01*
X619770Y116586410D01*
X638310Y116635110D01*
G02*
X638870Y116636440I23360J-8900D01*
G01*
X665670Y116696210D01*
X684310Y116738770D01*
X691430Y116755820D01*
X704250Y116789130D01*
X713550Y116815630D01*
G02*
X715090Y116819130I23590J-8270D01*
G01*
X739420Y116864720D01*
X745960Y116877740D01*
X785010Y116962910D01*
G02*
X786500Y116967110I24210J-6220D01*
G01*
X797140Y116990320D01*
X797520Y116991110D01*
X832490Y117060860D01*
G02*
X833540Y117062740I22350J-11210D01*
G01*
X1244140Y117730790D01*
G02*
X1245920Y117733320I21290J-13090D01*
G01*
X1451100Y117989560D01*
G02*
X1451960Y117990570I19510J-15630D01*
G01*
X1613480Y118171720D01*
G02*
X1614390Y118172690I18650J-16630D01*
G01*
X1822740Y118382770D01*
G02*
X1823910Y118383880I17750J-17600D01*
G01*
X2004200Y118543720D01*
X2004900Y118544310D01*
X2170910Y118680910D01*
G02*
X2172460Y118682090I15880J-19300D01*
G01*
X2552290Y118947880D01*
X2553270Y118948520D01*
X2553350Y118948570D01*
X2681540Y119028940D01*
X2682540Y119029540D01*
X2862460Y119130950D01*
X2863520Y119131520D01*
X3088610Y119244090D01*
G02*
X3090230Y119244830I11180J-22350D01*
G01*
X3439760Y119389480D01*
G02*
X3441210Y119390030I9560J-23090D01*
G01*
X3700360Y119478980D01*
X3701150Y119479230D01*
X3855480Y119526550D01*
G02*
X3857040Y119526980I7330J-23890D01*
G01*
X4105430Y119585910D01*
X4106170Y119586070D01*
X4255140Y119616680D01*
X4255350Y119616720D01*
X4355470Y119636400D01*
X4356550Y119636590D01*
X4476010Y119654680D01*
X4476720Y119654770D01*
X4598390Y119669630D01*
X4598600Y119669660D01*
X4709320Y119682210D01*
G02*
X4710620Y119682320I2810J-24840D01*
G01*
X4960280Y119697430D01*
G02*
X4961790Y119697480I1510J-24950D01*
G01*
X9960380Y119697500D01*
G02*
X9976300Y119691780I0J-24990D01*
G01*
X9990910Y119679710D01*
G02*
X9999980Y119660440I-15920J-19270D01*
G01*
Y110045070D01*
G02*
X9996020Y110031560I-24990J0D01*
G01*
X9984620Y110013810D01*
G02*
X9963580Y110002320I-21040J13510D01*
G01*
X346940D01*
G02*
X332920Y110006620I0J25000D01*
G01*
X313240Y110019960D01*
G02*
X302260Y110040650I14020J20690D01*
G01*
Y114961010D01*
G02*
X302300Y114962410I25000J0D01*
G01*
X304400Y114999980D01*
X1750010D01*
G03*
X4999990Y111750000I3249980J0D01*
G03*
X1750010Y114999980I0J3249980D01*
G01*
X304400D01*
X324550Y115360370D01*
G02*
X324780Y115362600I24960J-1390D01*
G37*
M02*
